SplineFontDB: 3.0
FontName: Dorsa-Regular
FullName: Dorsa
FamilyName: Dorsa
Weight: Regular
Copyright: Copyright (c) 2011, Santiago Orozco (hi@typemade.mx), with Reserved Font Name "Dorsa"
Version: 1.001
ItalicAngle: 0
UnderlinePosition: -50
UnderlineWidth: 50
Ascent: 750
Descent: 250
LayerCount: 2
Layer: 0 1 "Back"  1
Layer: 1 1 "Fore"  0
NeedsXUIDChange: 1
XUID: [1021 288 713564382 10937003]
FSType: 0
OS2Version: 3
OS2_WeightWidthSlopeOnly: 0
OS2_UseTypoMetrics: 1
CreationTime: 1305767754
ModificationTime: 1314377915
PfmFamily: 81
TTFWeight: 400
TTFWidth: 5
LineGap: 0
VLineGap: 0
Panose: 0 0 0 0 0 0 0 0 0 0
OS2TypoAscent: 857
OS2TypoAOffset: 0
OS2TypoDescent: -200
OS2TypoDOffset: 0
OS2TypoLinegap: 0
OS2WinAscent: 857
OS2WinAOffset: 0
OS2WinDescent: 200
OS2WinDOffset: 0
HheadAscent: 857
HheadAOffset: 0
HheadDescent: -200
HheadDOffset: 0
OS2SubXSize: 700
OS2SubYSize: 650
OS2SubXOff: 0
OS2SubYOff: 140
OS2SupXSize: 700
OS2SupYSize: 650
OS2SupXOff: 0
OS2SupYOff: 477
OS2StrikeYSize: 50
OS2StrikeYPos: 250
OS2Vendor: 'pyrs'
OS2CodePages: 20000111.00000000
OS2UnicodeRanges: 800000a7.0800004a.14000000.00000000
Lookup: 258 0 0 "'kern' Horizontal Kerning in Latin lookup 0"  {"'kern' Horizontal Kerning in Latin lookup 0 subtable"  } ['kern' ('latn' <'dflt' > ) ]
MarkAttachClasses: 1
DEI: 91125
TtTable: prep
PUSHW_1
 511
SCANCTRL
PUSHB_1
 4
SCANTYPE
EndTTInstrs
TtTable: fpgm
PUSHW_1
 0
FDEF
MPPEM
PUSHW_1
 9
LT
IF
PUSHB_2
 1
 1
INSTCTRL
EIF
PUSHW_1
 511
SCANCTRL
PUSHW_1
 68
SCVTCI
PUSHW_2
 9
 3
SDS
SDB
ENDF
PUSHW_1
 1
FDEF
DUP
DUP
RCVT
ROUND[Black]
WCVTP
PUSHB_1
 1
ADD
ENDF
PUSHW_1
 2
FDEF
PUSHW_1
 1
LOOPCALL
POP
ENDF
PUSHW_1
 3
FDEF
DUP
GC[cur]
PUSHB_1
 3
CINDEX
GC[cur]
GT
IF
SWAP
EIF
DUP
ROLL
DUP
ROLL
MD[grid]
ABS
ROLL
DUP
GC[cur]
DUP
ROUND[Grey]
SUB
ABS
PUSHB_1
 4
CINDEX
GC[cur]
DUP
ROUND[Grey]
SUB
ABS
GT
IF
SWAP
NEG
ROLL
EIF
MDAP[rnd]
DUP
PUSHB_1
 0
GTEQ
IF
ROUND[Black]
DUP
PUSHB_1
 0
EQ
IF
POP
PUSHB_1
 64
EIF
ELSE
ROUND[Black]
DUP
PUSHB_1
 0
EQ
IF
POP
PUSHB_1
 64
NEG
EIF

StartChar: exclam
Encoding: 33 33 4
Width: 76
Flags: HW
LayerCount: 2
Fore
SplineSet
20 0 m 1,0,-1
 20 64 l 1,1,-1
 55 64 l 1,2,-1
 55 0 l 1,3,-1
 20 0 l 1,0,-1
26 200 m 1,4,-1
 20 700 l 1,5,-1
 55 700 l 1,6,-1
 49 200 l 1,7,-1
 26 200 l 1,4,-1
EndSplineSet
EndChar

StartChar: quotedbl
Encoding: 34 34 5
Width: 131
Flags: HW
LayerCount: 2
Fore
SplineSet
22 550 m 1,0,-1
 20 700 l 1,1,-1
 55 700 l 1,2,-1
 53 550 l 1,3,-1
 22 550 l 1,0,-1
80 550 m 1,4,-1
 78 700 l 1,5,-1
 113 700 l 1,6,-1
 111 550 l 1,7,-1
 80 550 l 1,4,-1
EndSplineSet
EndChar

StartChar: numbersign
Encoding: 35 35 6
Width: 369
Flags: HW
LayerCount: 2
Fore
SplineSet
57 400 m 1,0,-1
 136 400 l 1,1,-1
 163 550 l 1,2,-1
 178 550 l 1,3,-1
 151 400 l 1,4,-1
 260 400 l 1,5,-1
 287 550 l 1,6,-1
 302 550 l 1,7,-1
 275 400 l 1,8,-1
 349 400 l 1,9,-1
 346 386 l 1,10,-1
 272 386 l 1,11,-1
 242 216 l 1,12,-1
 317 216 l 1,13,-1
 314 202 l 1,14,-1
 239 202 l 1,15,-1
 213 50 l 1,16,-1
 198 50 l 1,17,-1
 224 202 l 1,18,-1
 115 202 l 1,19,-1
 89 50 l 1,20,-1
 74 50 l 1,21,-1
 100 202 l 1,22,-1
 22 202 l 1,23,-1
 25 216 l 1,24,-1
 103 216 l 1,25,-1
 133 386 l 1,26,-1
 54 386 l 1,27,-1
 57 400 l 1,0,-1
118 216 m 1,28,-1
 227 216 l 1,29,-1
 257 386 l 1,30,-1
 148 386 l 1,31,-1
 118 216 l 1,28,-1
EndSplineSet
EndChar

StartChar: dollar
Encoding: 36 36 7
Width: 192
Flags: HW
LayerCount: 2
Fore
SplineSet
21 587 m 2,0,1
 21 645.8125 21 645.8125 88 650 c 1,2,-1
 88 700 l 1,3,-1
 103 700 l 1,4,-1
 103 650 l 1,5,6
 172 647 172 647 172 584 c 2,7,-1
 172 458 l 1,8,-1
 137 458 l 1,9,-1
 137 583 l 2,10,11
 137 611 137 611 130 624 c 128,-1,12
 123 637 123 637 103 639 c 1,13,-1
 103 386 l 1,14,15
 137.571428571 348.285714286 137.571428571 348.285714286 148.285714286 331.142857143 c 0,16,17
 172 293.2 172 293.2 172 257 c 2,18,-1
 172 113 l 2,19,20
 172 81 172 81 154 66.5 c 128,-1,21
 136 52 136 52 103 50 c 1,22,-1
 103 0 l 1,23,-1
 88 0 l 1,24,-1
 88 50 l 1,25,26
 21 53 21 53 21 116 c 2,27,-1
 21 212 l 1,28,-1
 56 212 l 1,29,-1
 56 117 l 2,30,31
 56 90 56 90 62.5 76.5 c 128,-1,32
 69 63 69 63 88 61 c 1,33,-1
 88 355 l 1,34,35
 76 368 76 368 64 381 c 128,-1,36
 52 394 52 394 42.5 408 c 0,37,38
 21 439.684210526 21 439.684210526 21 472 c 2,39,-1
 21 587 l 2,0,1
137 249 m 2,40,41
 137 278 137 278 128.5 297.5 c 128,-1,42
 120 317 120 317 103 338 c 1,43,-1
 103 61 l 1,44,45
 123 63 123 63 130 76.5 c 128,-1,46
 137 90 137 90 137 117 c 2,47,-1
 137 249 l 2,40,41
56 477 m 2,48,49
 56 440.647058824 56 440.647058824 88 403 c 1,50,-1
 88 638 l 1,51,52
 69 636 69 636 62.5 622.5 c 128,-1,53
 56 609 56 609 56 583 c 2,54,-1
 56 477 l 2,48,49
EndSplineSet
EndChar

StartChar: percent
Encoding: 37 37 8
Width: 363
Flags: HW
LayerCount: 2
Fore
SplineSet
24 444 m 2,0,1
 24 508 24 508 99.5 508 c 128,-1,2
 175 508 175 508 175 446 c 2,3,-1
 175 363 l 2,4,5
 175 301 175 301 99.5 301 c 128,-1,6
 24 301 24 301 24 365 c 2,7,-1
 24 444 l 2,0,1
97 316 m 256,8,9
 121 316 121 316 130.5 327 c 128,-1,10
 140 338 140 338 140 367 c 2,11,-1
 140 442 l 2,12,13
 140 471 140 471 130.5 481.5 c 128,-1,14
 121 492 121 492 97 492 c 256,15,16
 73 492 73 492 66 480.5 c 128,-1,17
 59 469 59 469 59 439 c 2,18,-1
 59 369 l 2,19,20
 59 340 59 340 66 328 c 128,-1,21
 73 316 73 316 97 316 c 256,8,9
342 500 m 1,22,-1
 37 0 l 1,23,-1
 21 0 l 1,24,-1
 326 500 l 1,25,-1
 342 500 l 1,22,-1
187 136 m 2,26,27
 187 200 187 200 262.5 200 c 128,-1,28
 338 200 338 200 338 138 c 2,29,-1
 338 55 l 2,30,31
 338 -7 338 -7 262.5 -7 c 128,-1,32
 187 -7 187 -7 187 57 c 2,33,-1
 187 136 l 2,26,27
260 8 m 256,34,35
 284 8 284 8 293.5 19 c 128,-1,36
 303 30 303 30 303 59 c 2,37,-1
 303 134 l 2,38,39
 303 163 303 163 293.5 173.5 c 128,-1,40
 284 184 284 184 260 184 c 256,41,42
 236 184 236 184 229 172.5 c 128,-1,43
 222 161 222 161 222 131 c 2,44,-1
 222 61 l 2,45,46
 222 32 222 32 229 20 c 128,-1,47
 236 8 236 8 260 8 c 256,34,35
EndSplineSet
EndChar

StartChar: ampersand
Encoding: 38 38 9
Width: 196
Flags: HW
LayerCount: 2
Fore
SplineSet
171 59 m 2,0,1
 171 -5 171 -5 95.5 -5 c 128,-1,2
 20 -5 20 -5 20 57 c 2,3,-1
 20 337 l 2,4,5
 20 377 20 377 52 391 c 1,6,7
 20 405 20 405 20 448 c 2,8,-1
 20 642 l 2,9,10
 20 706 20 706 95.5 706 c 128,-1,11
 171 706 171 706 171 644 c 2,12,-1
 171 500 l 1,13,-1
 136 500 l 1,14,-1
 136 641 l 2,15,16
 136 670 136 670 126.5 680.5 c 128,-1,17
 117 691 117 691 93 691 c 256,18,19
 69 691 69 691 62 679.5 c 128,-1,20
 55 668 55 668 55 638 c 2,21,-1
 55 452 l 2,22,23
 55 424 55 424 61 411.5 c 128,-1,24
 67 399 67 399 87 399 c 2,25,-1
 136 399 l 1,26,-1
 136 384 l 1,27,-1
 91 384 l 2,28,29
 71 384 71 384 63 371.5 c 128,-1,30
 55 359 55 359 55 333 c 2,31,-1
 55 60 l 2,32,33
 55 31 55 31 64.5 20 c 128,-1,34
 74 9 74 9 98 9 c 256,35,36
 122 9 122 9 129 21 c 128,-1,37
 136 33 136 33 136 62 c 2,38,-1
 136 301 l 1,39,-1
 115 301 l 1,40,-1
 115 316 l 1,41,-1
 192 316 l 1,42,-1
 192 301 l 1,43,-1
 171 301 l 1,44,-1
 171 59 l 2,0,1
EndSplineSet
EndChar

StartChar: quotesingle
Encoding: 39 39 10
Width: 76
Flags: HW
LayerCount: 2
Fore
SplineSet
22 550 m 1,0,-1
 20 700 l 1,1,-1
 55 700 l 1,2,-1
 53 550 l 1,3,-1
 22 550 l 1,0,-1
EndSplineSet
EndChar

StartChar: parenleft
Encoding: 40 40 11
Width: 114
Flags: HW
LayerCount: 2
Fore
SplineSet
93 735 m 1,0,1
 69 735 69 735 62 723 c 128,-1,2
 55 711 55 711 55 682 c 2,3,-1
 55 1 l 2,4,5
 55 -28 55 -28 62 -40 c 128,-1,6
 69 -52 69 -52 93 -52 c 1,7,-1
 93 -67 l 1,8,9
 20 -67 20 -67 20 -3 c 2,10,-1
 20 686 l 2,11,12
 20 750 20 750 93 750 c 1,13,-1
 93 735 l 1,0,1
EndSplineSet
EndChar

StartChar: parenright
Encoding: 41 41 12
Width: 114
Flags: HW
LayerCount: 2
Fore
SplineSet
20 750 m 1,0,1
 93 750 93 750 93 686 c 2,2,-1
 93 -6 l 2,3,4
 93 -70 93 -70 20 -70 c 1,5,-1
 20 -55 l 1,6,7
 44 -55 44 -55 51 -43 c 128,-1,8
 58 -31 58 -31 58 -2 c 2,9,-1
 58 682 l 2,10,11
 58 711 58 711 51 723 c 128,-1,12
 44 735 44 735 20 735 c 1,13,-1
 20 750 l 1,0,1
EndSplineSet
EndChar

StartChar: asterisk
Encoding: 42 42 13
Width: 201
Flags: HW
LayerCount: 2
Fore
SplineSet
24 661 m 1,0,-1
 91 622 l 1,1,-1
 91 700 l 1,2,-1
 106 700 l 1,3,-1
 106 621 l 1,4,-1
 173 661 l 1,5,-1
 181 649 l 1,6,-1
 113 609 l 1,7,-1
 180 571 l 1,8,-1
 173 558 l 1,9,-1
 106 597 l 1,10,-1
 106 520 l 1,11,-1
 91 520 l 1,12,-1
 91 597 l 1,13,-1
 25 559 l 1,14,-1
 17 571 l 1,15,-1
 84 609 l 1,16,-1
 17 648 l 1,17,-1
 24 661 l 1,0,-1
EndSplineSet
EndChar

StartChar: plus
Encoding: 43 43 14
Width: 298
Flags: HW
LayerCount: 2
Fore
SplineSet
20 316 m 1,0,-1
 129 316 l 1,1,-1
 129 450 l 1,2,-1
 164 450 l 1,3,-1
 164 316 l 1,4,-1
 278 316 l 1,5,-1
 278 300 l 1,6,-1
 164 300 l 1,7,-1
 164 150 l 1,8,-1
 129 150 l 1,9,-1
 129 300 l 1,10,-1
 20 300 l 1,11,-1
 20 316 l 1,0,-1
EndSplineSet
EndChar

StartChar: comma
Encoding: 44 44 15
Width: 80
Flags: HW
LayerCount: 2
Fore
SplineSet
12 -52 m 1,0,-1
 33 80 l 1,1,-1
 68 80 l 1,2,-1
 43 -52 l 1,3,-1
 12 -52 l 1,0,-1
EndSplineSet
EndChar

StartChar: hyphen
Encoding: 45 45 16
Width: 150
Flags: HW
LayerCount: 2
Fore
SplineSet
20 316 m 1,0,-1
 129 316 l 1,1,-1
 129 301 l 1,2,-1
 20 301 l 1,3,-1
 20 316 l 1,0,-1
EndSplineSet
EndChar

StartChar: period
Encoding: 46 46 17
Width: 76
Flags: HW
LayerCount: 2
Fore
SplineSet
20 0 m 1,0,-1
 20 64 l 1,1,-1
 55 64 l 1,2,-1
 55 0 l 1,3,-1
 20 0 l 1,0,-1
EndSplineSet
EndChar

StartChar: slash
Encoding: 47 47 18
Width: 208
Flags: HW
LayerCount: 2
Fore
SplineSet
192 750 m 1,0,-1
 43 0 l 1,1,-1
 20 0 l 1,2,-1
 169 750 l 1,3,-1
 192 750 l 1,0,-1
EndSplineSet
EndChar

StartChar: zero
Encoding: 48 48 19
Width: 192
Flags: HW
LayerCount: 2
Fore
SplineSet
171 57 m 2,0,1
 171 -5 171 -5 95.5 -5 c 128,-1,2
 20 -5 20 -5 20 59 c 2,3,-1
 20 644 l 2,4,5
 20 706 20 706 95.5 706 c 128,-1,6
 171 706 171 706 171 642 c 2,7,-1
 171 57 l 2,0,1
136 638 m 2,8,9
 136 668 136 668 129 679.5 c 128,-1,10
 122 691 122 691 98 691 c 256,11,12
 74 691 74 691 64.5 680.5 c 128,-1,13
 55 670 55 670 55 641 c 2,14,-1
 55 62 l 2,15,16
 55 33 55 33 62 21 c 128,-1,17
 69 9 69 9 93 9 c 256,18,19
 117 9 117 9 126.5 20 c 128,-1,20
 136 31 136 31 136 60 c 2,21,-1
 136 638 l 2,8,9
EndSplineSet
EndChar

StartChar: one
Encoding: 49 49 20
Width: 117
Flags: HW
LayerCount: 2
Fore
SplineSet
20 679 m 1,0,-1
 61 700 l 1,1,-1
 96 700 l 1,2,-1
 96 0 l 1,3,-1
 61 0 l 1,4,-1
 61 683 l 1,5,-1
 32 669 l 1,6,-1
 20 679 l 1,0,-1
EndSplineSet
EndChar

StartChar: two
Encoding: 50 50 21
Width: 192
Flags: HW
LayerCount: 2
Fore
SplineSet
21 640 m 2,0,1
 21 706 21 706 96.5 706 c 128,-1,2
 172 706 172 706 172 643 c 2,3,-1
 172 497 l 2,4,5
 172 458.411764706 172 458.411764706 158 433.705882353 c 0,6,7
 139.352517986 400.798561151 139.352517986 400.798561151 117.176258993 376.399280576 c 128,-1,8
 95 352 95 352 85 336.5 c 128,-1,9
 75 321 75 321 68.5 303.5 c 0,10,11
 56 269.846153846 56 269.846153846 56 220 c 2,12,-1
 56 15 l 1,13,-1
 137 15 l 1,14,-1
 137 200 l 1,15,-1
 172 200 l 1,16,-1
 172 0 l 1,17,-1
 21 0 l 1,18,-1
 21 228 l 2,19,20
 21 306.772727273 21 306.772727273 61 359.5 c 0,21,22
 72 374 72 374 84 388 c 128,-1,23
 96 402 96 402 106.5 414.5 c 128,-1,24
 117 427 117 427 123.5 440 c 0,25,26
 137 467 137 467 137 502 c 2,27,-1
 137 639 l 2,28,29
 137 668 137 668 128.5 681.5 c 128,-1,30
 120 695 120 695 96 695 c 128,-1,31
 72 695 72 695 64 681.5 c 128,-1,32
 56 668 56 668 56 639 c 2,33,-1
 56 500 l 1,34,-1
 21 500 l 1,35,-1
 21 640 l 2,0,1
EndSplineSet
EndChar

StartChar: three
Encoding: 51 51 22
Width: 192
Flags: HW
LayerCount: 2
Fore
SplineSet
20 644 m 2,0,1
 20 706 20 706 95.5 706 c 128,-1,2
 171 706 171 706 171 642 c 2,3,-1
 171 429 l 2,4,5
 171 385 171 385 138 372 c 1,6,7
 171 358 171 358 171 318 c 2,8,-1
 171 57 l 2,9,10
 171 -5 171 -5 95.5 -5 c 128,-1,11
 20 -5 20 -5 20 59 c 2,12,-1
 20 200 l 1,13,-1
 55 200 l 1,14,-1
 55 62 l 2,15,16
 55 33 55 33 62 21 c 128,-1,17
 69 9 69 9 93 9 c 256,18,19
 117 9 117 9 126.5 20 c 128,-1,20
 136 31 136 31 136 60 c 2,21,-1
 136 315 l 2,22,23
 136 341 136 341 128 352.5 c 128,-1,24
 120 364 120 364 102 366 c 1,25,-1
 55 366 l 1,26,-1
 55 380 l 1,27,-1
 98 380 l 2,28,29
 122 380 122 380 129 392 c 128,-1,30
 136 404 136 404 136 433 c 2,31,-1
 136 638 l 2,32,33
 136 668 136 668 129 679.5 c 128,-1,34
 122 691 122 691 98 691 c 256,35,36
 74 691 74 691 64.5 680.5 c 128,-1,37
 55 670 55 670 55 641 c 2,38,-1
 55 500 l 1,39,-1
 20 500 l 1,40,-1
 20 644 l 2,0,1
EndSplineSet
EndChar

StartChar: four
Encoding: 52 52 23
Width: 215
Flags: HW
LayerCount: 2
Fore
SplineSet
175 700 m 1,0,-1
 175 199 l 1,1,-1
 196 199 l 1,2,-1
 196 184 l 1,3,-1
 175 184 l 1,4,-1
 175 0 l 1,5,-1
 140 0 l 1,6,-1
 140 184 l 1,7,-1
 19 184 l 1,8,-1
 160 700 l 1,9,-1
 175 700 l 1,0,-1
140 199 m 1,10,-1
 140 573 l 1,11,-1
 38 199 l 1,12,-1
 140 199 l 1,10,-1
EndSplineSet
EndChar

StartChar: five
Encoding: 53 53 24
Width: 193
Flags: HW
LayerCount: 2
Fore
SplineSet
171 57 m 2,0,1
 171 -5 171 -5 95.5 -5 c 128,-1,2
 20 -5 20 -5 20 59 c 2,3,-1
 20 200 l 1,4,-1
 55 200 l 1,5,-1
 55 62 l 2,6,7
 55 33 55 33 62 21 c 128,-1,8
 69 9 69 9 93 9 c 256,9,10
 117 9 117 9 126.5 20 c 128,-1,11
 136 31 136 31 136 60 c 2,12,-1
 136 350 l 2,13,14
 136 377 136 377 128 388 c 128,-1,15
 120 399 120 399 100 401 c 1,16,-1
 29 401 l 1,17,-1
 29 700 l 1,18,-1
 171 700 l 1,19,-1
 171 685 l 1,20,-1
 64 685 l 1,21,-1
 64 415 l 1,22,-1
 104 415 l 1,23,24
 171 410.8125 171 410.8125 171 353 c 2,25,-1
 171 57 l 2,0,1
EndSplineSet
EndChar

StartChar: six
Encoding: 54 54 25
Width: 192
Flags: HW
LayerCount: 2
Fore
SplineSet
171 57 m 2,0,1
 171 -5 171 -5 95.5 -5 c 128,-1,2
 20 -5 20 -5 20 59 c 2,3,-1
 20 642 l 2,4,5
 20 706 20 706 95.5 706 c 128,-1,6
 171 706 171 706 171 644 c 2,7,-1
 171 500 l 1,8,-1
 136 500 l 1,9,-1
 136 641 l 2,10,11
 136 670 136 670 126.5 680.5 c 128,-1,12
 117 691 117 691 93 691 c 256,13,14
 69 691 69 691 62 679.5 c 128,-1,15
 55 668 55 668 55 638 c 2,16,-1
 55 399 l 1,17,18
 73 405 73 405 98 405 c 0,19,20
 171 405 171 405 171 341 c 2,21,-1
 171 57 l 2,0,1
55 62 m 2,22,23
 55 33 55 33 62 21 c 128,-1,24
 69 9 69 9 93 9 c 256,25,26
 117 9 117 9 126.5 20 c 128,-1,27
 136 31 136 31 136 60 c 2,28,-1
 136 337 l 2,29,30
 136 367 136 367 129 378.5 c 128,-1,31
 122 390 122 390 98.5 390 c 128,-1,32
 75 390 75 390 65.5 381.5 c 128,-1,33
 56 373 56 373 55 348 c 1,34,-1
 55 62 l 2,22,23
EndSplineSet
EndChar

StartChar: seven
Encoding: 55 55 26
Width: 196
Flags: HW
LayerCount: 2
Fore
SplineSet
61 0 m 1,0,-1
 138 685 l 1,1,-1
 20 685 l 1,2,-1
 20 700 l 1,3,-1
 175 700 l 1,4,-1
 96 0 l 1,5,-1
 61 0 l 1,0,-1
EndSplineSet
EndChar

StartChar: eight
Encoding: 56 56 27
Width: 192
Flags: HW
LayerCount: 2
Fore
SplineSet
171 57 m 2,0,1
 171 -5 171 -5 95.5 -5 c 128,-1,2
 20 -5 20 -5 20 59 c 2,3,-1
 20 344 l 2,4,5
 20 384 20 384 52 398 c 1,6,7
 20 411 20 411 20 456 c 2,8,-1
 20 644 l 2,9,10
 20 706 20 706 95.5 706 c 128,-1,11
 171 706 171 706 171 642 c 2,12,-1
 171 454 l 2,13,14
 171 413 171 413 138 399 c 1,15,16
 171 385 171 385 171 342 c 2,17,-1
 171 57 l 2,0,1
136 338 m 2,18,19
 136 368 136 368 129 379.5 c 128,-1,20
 122 391 122 391 97.5 391 c 128,-1,21
 73 391 73 391 64 380.5 c 128,-1,22
 55 370 55 370 55 341 c 2,23,-1
 55 62 l 2,24,25
 55 33 55 33 62 21 c 128,-1,26
 69 9 69 9 93 9 c 256,27,28
 117 9 117 9 126.5 20 c 128,-1,29
 136 31 136 31 136 60 c 2,30,-1
 136 338 l 2,18,19
136 638 m 2,31,32
 136 668 136 668 129 679.5 c 128,-1,33
 122 691 122 691 98 691 c 256,34,35
 74 691 74 691 64.5 680.5 c 128,-1,36
 55 670 55 670 55 641 c 2,37,-1
 55 459 l 2,38,39
 55 430 55 430 63 418 c 128,-1,40
 71 406 71 406 95.5 406.5 c 128,-1,41
 120 407 120 407 128 418.5 c 128,-1,42
 136 430 136 430 136 457 c 2,43,-1
 136 638 l 2,31,32
EndSplineSet
EndChar

StartChar: nine
Encoding: 57 57 28
Width: 192
Flags: HW
LayerCount: 2
Fore
SplineSet
20 644 m 2,0,1
 20 706 20 706 95.5 706 c 128,-1,2
 171 706 171 706 171 642 c 2,3,-1
 171 59 l 2,4,5
 171 -5 171 -5 95.5 -5 c 128,-1,6
 20 -5 20 -5 20 57 c 2,7,-1
 20 201 l 1,8,-1
 55 201 l 1,9,-1
 55 60 l 2,10,11
 55 31 55 31 64.5 20.5 c 128,-1,12
 74 10 74 10 98 10 c 256,13,14
 122 10 122 10 129 21.5 c 128,-1,15
 136 33 136 33 136 63 c 2,16,-1
 136 302 l 1,17,18
 118 296 118 296 93 296 c 0,19,20
 20 296 20 296 20 360 c 2,21,-1
 20 644 l 2,0,1
136 639 m 2,22,23
 136 668 136 668 129 680 c 128,-1,24
 122 692 122 692 98 692 c 256,25,26
 74 692 74 692 64.5 681 c 128,-1,27
 55 670 55 670 55 641 c 2,28,-1
 55 364 l 2,29,30
 55 334 55 334 62 322.5 c 128,-1,31
 69 311 69 311 92.5 311 c 128,-1,32
 116 311 116 311 125.5 319.5 c 128,-1,33
 135 328 135 328 136 353 c 1,34,-1
 136 639 l 2,22,23
EndSplineSet
EndChar

StartChar: colon
Encoding: 58 58 29
Width: 77
Flags: HW
LayerCount: 2
Fore
SplineSet
20 0 m 1,0,-1
 20 64 l 1,1,-1
 55 64 l 1,2,-1
 55 0 l 1,3,-1
 20 0 l 1,0,-1
20 401 m 1,4,-1
 20 465 l 1,5,-1
 55 465 l 1,6,-1
 55 401 l 1,7,-1
 20 401 l 1,4,-1
EndSplineSet
EndChar

StartChar: semicolon
Encoding: 59 59 30
Width: 89
Flags: HW
LayerCount: 2
Fore
SplineSet
33 400 m 1,0,-1
 33 464 l 1,1,-1
 68 464 l 1,2,-1
 68 400 l 1,3,-1
 33 400 l 1,0,-1
12 -52 m 1,4,-1
 33 80 l 1,5,-1
 68 80 l 1,6,-1
 43 -52 l 1,7,-1
 12 -52 l 1,4,-1
EndSplineSet
EndChar

StartChar: less
Encoding: 60 60 31
Width: 199
Flags: HW
LayerCount: 2
Fore
SplineSet
160 500 m 1,0,-1
 179 500 l 1,1,-1
 42 332 l 1,2,-1
 179 164 l 1,3,-1
 160 164 l 1,4,-1
 20 332 l 1,5,-1
 160 500 l 1,0,-1
EndSplineSet
EndChar

StartChar: equal
Encoding: 61 61 32
Width: 299
Flags: HW
LayerCount: 2
Fore
SplineSet
20 400 m 1,0,-1
 280 400 l 1,1,-1
 280 385 l 1,2,-1
 20 385 l 1,3,-1
 20 400 l 1,0,-1
20 215 m 1,4,-1
 280 215 l 1,5,-1
 280 200 l 1,6,-1
 20 200 l 1,7,-1
 20 215 l 1,4,-1
EndSplineSet
EndChar

StartChar: greater
Encoding: 62 62 33
Width: 199
Flags: HW
LayerCount: 2
Fore
SplineSet
39 164 m 1,0,-1
 20 164 l 1,1,-1
 157 332 l 1,2,-1
 20 500 l 1,3,-1
 39 500 l 1,4,-1
 179 332 l 1,5,-1
 39 164 l 1,0,-1
EndSplineSet
EndChar

StartChar: question
Encoding: 63 63 34
Width: 192
Flags: HW
LayerCount: 2
Fore
SplineSet
21 640 m 2,0,1
 21 706 21 706 96.5 706 c 128,-1,2
 172 706 172 706 172 643 c 2,3,-1
 172 513 l 2,4,5
 172 466 172 466 164.5 436.5 c 128,-1,6
 157 407 157 407 134 381.5 c 128,-1,7
 111 356 111 356 105.5 312.5 c 128,-1,8
 100 269 100 269 100 200 c 1,9,-1
 75 200 l 1,10,11
 71.1 297.5 71.1 297.5 77.55 329.75 c 128,-1,12
 84 362 84 362 91 376 c 128,-1,13
 98 390 98 390 114 407.5 c 128,-1,14
 130 425 130 425 133.5 452.5 c 128,-1,15
 137 480 137 480 137 518 c 2,16,-1
 137 639 l 2,17,18
 137 668 137 668 128.5 681.5 c 128,-1,19
 120 695 120 695 96 695 c 128,-1,20
 72 695 72 695 64 681.5 c 128,-1,21
 56 668 56 668 56 639 c 2,22,-1
 56 500 l 1,23,-1
 21 500 l 1,24,-1
 21 640 l 2,0,1
71 -1 m 1,25,-1
 71 63 l 1,26,-1
 106 63 l 1,27,-1
 106 -1 l 1,28,-1
 71 -1 l 1,25,-1
EndSplineSet
EndChar

StartChar: at
Encoding: 64 64 35
Width: 428
Flags: HW
LayerCount: 2
Fore
SplineSet
140 254 m 2,0,1
 140 316 140 316 218 316 c 0,2,3
 239 316 239 316 256 310 c 1,4,-1
 256 439 l 2,5,6
 256 468 256 468 248 481.5 c 128,-1,7
 240 495 240 495 216 495 c 128,-1,8
 192 495 192 495 183.5 481.5 c 128,-1,9
 175 468 175 468 175 439 c 2,10,-1
 175 376 l 1,11,-1
 140 376 l 1,12,-1
 140 443 l 2,13,14
 140 506 140 506 215.5 506 c 128,-1,15
 291 506 291 506 291 440 c 2,16,-1
 291 1 l 2,17,18
 291 -28 291 -28 298 -40 c 128,-1,19
 305 -52 305 -52 329 -52 c 256,20,21
 353 -52 353 -52 362.5 -41 c 128,-1,22
 372 -30 372 -30 372 -1 c 2,23,-1
 372 371 l 2,24,25
 372 432 372 432 367 475 c 128,-1,26
 362 518 362 518 346 545 c 0,27,28
 315.185185185 597 315.185185185 597 223 597 c 0,29,30
 126.296296296 597 126.296296296 597 89 544 c 0,31,32
 55 495.684210526 55 495.684210526 55 371 c 2,33,-1
 55 130 l 2,34,35
 55 8.7027027027 55 8.7027027027 88.5 -42 c 0,36,37
 124.178571429 -96 124.178571429 -96 218 -96 c 1,38,-1
 218 -107 l 1,39,40
 117.775510204 -107 117.775510204 -107 72.5 -63.5 c 0,41,42
 20 -13.0588235294 20 -13.0588235294 20 114 c 2,43,-1
 20 387 l 2,44,45
 20 513.615384615 20 513.615384615 74 564.5 c 0,46,47
 120.163265306 608 120.163265306 608 219 608 c 0,48,49
 339.774193548 608 339.774193548 608 379 544 c 0,50,51
 398 513 398 513 402.5 470 c 128,-1,52
 407 427 407 427 407 374 c 2,53,-1
 407 -4 l 2,54,55
 407 -66 407 -66 331.5 -66 c 128,-1,56
 256 -66 256 -66 256 -2 c 2,57,-1
 256 2 l 1,58,59
 239 -5 239 -5 213 -5 c 0,60,61
 140 -5 140 -5 140 59 c 2,62,-1
 140 254 l 2,0,1
182 21 m 128,-1,64
 189 9 189 9 212.5 9 c 128,-1,65
 236 9 236 9 246 19.5 c 128,-1,66
 256 30 256 30 256 58 c 2,67,-1
 256 248 l 2,68,69
 256 278 256 278 249 289.5 c 128,-1,70
 242 301 242 301 218 301 c 256,71,72
 194 301 194 301 184.5 290.5 c 128,-1,73
 175 280 175 280 175 251 c 2,74,-1
 175 62 l 2,75,63
 175 33 175 33 182 21 c 128,-1,64
EndSplineSet
EndChar

StartChar: A
Encoding: 65 65 36
Width: 199
Flags: HW
LayerCount: 2
Fore
SplineSet
20 0 m 1,0,-1
 98 700 l 1,1,-1
 112 700 l 1,2,-1
 181 0 l 1,3,-1
 146 0 l 1,4,-1
 125 230 l 1,5,-1
 59 230 l 1,6,-1
 34 0 l 1,7,-1
 20 0 l 1,0,-1
61 245 m 1,8,-1
 124 245 l 1,9,-1
 96 556 l 1,10,-1
 61 245 l 1,8,-1
EndSplineSet
EndChar

StartChar: B
Encoding: 66 66 37
Width: 192
Flags: HW
LayerCount: 2
Fore
SplineSet
104 700 m 1,0,1
 136 697 136 697 153.5 683.5 c 128,-1,2
 171 670 171 670 171 638 c 2,3,-1
 171 449 l 2,4,5
 171 406 171 406 138 392 c 1,6,7
 171 378 171 378 171 338 c 2,8,-1
 171 64 l 2,9,10
 171 0 171 0 98 0 c 2,11,-1
 20 0 l 1,12,-1
 20 700 l 1,13,-1
 104 700 l 1,0,1
136 335 m 2,14,15
 136 362 136 362 127 373.5 c 128,-1,16
 118 385 118 385 98 386 c 1,17,-1
 55 386 l 1,18,-1
 55 14 l 1,19,-1
 98 14 l 2,20,21
 122 14 122 14 129 26 c 128,-1,22
 136 38 136 38 136 67 c 2,23,-1
 136 335 l 2,14,15
55 685 m 1,24,-1
 55 400 l 1,25,-1
 98 400 l 2,26,27
 122 400 122 400 129 412 c 128,-1,28
 136 424 136 424 136 453 c 2,29,-1
 136 635 l 2,30,31
 136 662 136 662 128 672.5 c 128,-1,32
 120 683 120 683 100 685 c 1,33,-1
 55 685 l 1,24,-1
EndSplineSet
EndChar

StartChar: C
Encoding: 67 67 38
Width: 192
Flags: HW
LayerCount: 2
Fore
SplineSet
20 644 m 2,0,1
 20 706 20 706 95.5 706 c 128,-1,2
 171 706 171 706 171 642 c 2,3,-1
 171 500 l 1,4,-1
 136 500 l 1,5,-1
 136 638 l 2,6,7
 136 668 136 668 129 679.5 c 128,-1,8
 122 691 122 691 98 691 c 256,9,10
 74 691 74 691 64.5 680.5 c 128,-1,11
 55 670 55 670 55 641 c 2,12,-1
 55 62 l 2,13,14
 55 33 55 33 62 21 c 128,-1,15
 69 9 69 9 93 9 c 256,16,17
 117 9 117 9 126.5 20 c 128,-1,18
 136 31 136 31 136 60 c 2,19,-1
 136 200 l 1,20,-1
 171 200 l 1,21,-1
 171 57 l 2,22,23
 171 -5 171 -5 95.5 -5 c 128,-1,24
 20 -5 20 -5 20 59 c 2,25,-1
 20 644 l 2,0,1
EndSplineSet
EndChar

StartChar: D
Encoding: 68 68 39
Width: 192
Flags: HW
LayerCount: 2
Fore
SplineSet
104 700 m 1,0,1
 171 695.8125 171 695.8125 171 638 c 2,2,-1
 171 64 l 2,3,4
 171 0 171 0 98 0 c 2,5,-1
 20 0 l 1,6,-1
 20 700 l 1,7,-1
 104 700 l 1,0,1
55 685 m 1,8,-1
 55 14 l 1,9,-1
 98 14 l 2,10,11
 122 14 122 14 129 26 c 128,-1,12
 136 38 136 38 136 67 c 2,13,-1
 136 635 l 2,14,15
 136 662 136 662 128 672.5 c 128,-1,16
 120 683 120 683 100 685 c 1,17,-1
 55 685 l 1,8,-1
EndSplineSet
EndChar

StartChar: E
Encoding: 69 69 40
Width: 196
Flags: HW
LayerCount: 2
Fore
SplineSet
175 700 m 1,0,-1
 175 685 l 1,1,-1
 55 685 l 1,2,-1
 55 381 l 1,3,-1
 155 381 l 1,4,-1
 155 366 l 1,5,-1
 55 366 l 1,6,-1
 55 15 l 1,7,-1
 175 15 l 1,8,-1
 175 0 l 1,9,-1
 20 0 l 1,10,-1
 20 700 l 1,11,-1
 175 700 l 1,0,-1
EndSplineSet
EndChar

StartChar: F
Encoding: 70 70 41
Width: 196
Flags: HW
LayerCount: 2
Fore
SplineSet
175 700 m 1,0,-1
 175 685 l 1,1,-1
 55 685 l 1,2,-1
 55 360 l 1,3,-1
 155 360 l 1,4,-1
 155 345 l 1,5,-1
 55 345 l 1,6,-1
 55 0 l 1,7,-1
 20 0 l 1,8,-1
 20 700 l 1,9,-1
 175 700 l 1,0,-1
EndSplineSet
EndChar

StartChar: G
Encoding: 71 71 42
Width: 192
Flags: HW
LayerCount: 2
Fore
SplineSet
20 644 m 2,0,1
 20 706 20 706 95.5 706 c 128,-1,2
 171 706 171 706 171 642 c 2,3,-1
 171 500 l 1,4,-1
 136 500 l 1,5,-1
 136 638 l 2,6,7
 136 668 136 668 129 679.5 c 128,-1,8
 122 691 122 691 98 691 c 256,9,10
 74 691 74 691 64.5 680.5 c 128,-1,11
 55 670 55 670 55 641 c 2,12,-1
 55 62 l 2,13,14
 55 33 55 33 62 21 c 128,-1,15
 69 9 69 9 93 9 c 256,16,17
 117 9 117 9 126.5 20 c 128,-1,18
 136 31 136 31 136 60 c 2,19,-1
 136 301 l 1,20,-1
 96 301 l 1,21,-1
 96 316 l 1,22,-1
 171 316 l 1,23,-1
 171 57 l 2,24,25
 171 -5 171 -5 95.5 -5 c 128,-1,26
 20 -5 20 -5 20 59 c 2,27,-1
 20 644 l 2,0,1
EndSplineSet
EndChar

StartChar: H
Encoding: 72 72 43
Width: 192
Flags: HW
LayerCount: 2
Fore
SplineSet
171 700 m 1,0,-1
 171 0 l 1,1,-1
 136 0 l 1,2,-1
 136 357 l 1,3,-1
 55 357 l 1,4,-1
 55 0 l 1,5,-1
 20 0 l 1,6,-1
 20 700 l 1,7,-1
 55 700 l 1,8,-1
 55 372 l 1,9,-1
 136 372 l 1,10,-1
 136 700 l 1,11,-1
 171 700 l 1,0,-1
EndSplineSet
EndChar

StartChar: I
Encoding: 73 73 44
Width: 76
Flags: HW
LayerCount: 2
Fore
SplineSet
55 700 m 1,0,-1
 55 0 l 1,1,-1
 20 0 l 1,2,-1
 20 700 l 1,3,-1
 55 700 l 1,0,-1
EndSplineSet
EndChar

StartChar: J
Encoding: 74 74 45
Width: 192
Flags: HW
LayerCount: 2
Fore
SplineSet
171 57 m 2,0,1
 171 -5 171 -5 95.5 -5 c 128,-1,2
 20 -5 20 -5 20 59 c 2,3,-1
 20 200 l 1,4,-1
 55 200 l 1,5,-1
 55 62 l 2,6,7
 55 33 55 33 62 21 c 128,-1,8
 69 9 69 9 93 9 c 256,9,10
 117 9 117 9 126.5 20 c 128,-1,11
 136 31 136 31 136 60 c 2,12,-1
 136 685 l 1,13,-1
 72 685 l 1,14,-1
 72 700 l 1,15,-1
 171 700 l 1,16,-1
 171 57 l 2,0,1
EndSplineSet
EndChar

StartChar: K
Encoding: 75 75 46
Width: 194
Flags: HW
LayerCount: 2
Fore
SplineSet
20 0 m 1,0,-1
 20 700 l 1,1,-1
 55 700 l 1,2,-1
 55 427 l 1,3,-1
 139 700 l 1,4,-1
 152 700 l 1,5,-1
 68 427 l 1,6,-1
 173 0 l 1,7,-1
 138 0 l 1,8,-1
 55 339 l 1,9,-1
 55 0 l 1,10,-1
 20 0 l 1,0,-1
EndSplineSet
EndChar

StartChar: L
Encoding: 76 76 47
Width: 170
Flags: HW
LayerCount: 2
Fore
SplineSet
20 700 m 1,0,-1
 55 700 l 1,1,-1
 55 15 l 1,2,-1
 152 15 l 1,3,-1
 152 0 l 1,4,-1
 20 0 l 1,5,-1
 20 700 l 1,0,-1
EndSplineSet
EndChar

StartChar: M
Encoding: 77 77 48
Width: 253
Flags: HW
LayerCount: 2
Fore
SplineSet
20 0 m 1,0,-1
 20 700 l 1,1,-1
 34 700 l 1,2,-1
 126 143 l 1,3,-1
 218 700 l 1,4,-1
 232 700 l 1,5,-1
 232 0 l 1,6,-1
 197 0 l 1,7,-1
 197 487 l 1,8,-1
 133 100 l 1,9,-1
 119 100 l 1,10,-1
 55 487 l 1,11,-1
 55 0 l 1,12,-1
 20 0 l 1,0,-1
EndSplineSet
EndChar

StartChar: N
Encoding: 78 78 49
Width: 196
Flags: HW
LayerCount: 2
Fore
SplineSet
20 0 m 1,0,-1
 20 700 l 1,1,-1
 34 700 l 1,2,-1
 140 208 l 1,3,-1
 140 700 l 1,4,-1
 175 700 l 1,5,-1
 175 0 l 1,6,-1
 140 0 l 1,7,-1
 140 141 l 1,8,-1
 55 537 l 1,9,-1
 55 0 l 1,10,-1
 20 0 l 1,0,-1
EndSplineSet
EndChar

StartChar: O
Encoding: 79 79 50
Width: 192
Flags: HW
LayerCount: 2
Fore
SplineSet
171 57 m 2,0,1
 171 -5 171 -5 95.5 -5 c 128,-1,2
 20 -5 20 -5 20 59 c 2,3,-1
 20 644 l 2,4,5
 20 706 20 706 95.5 706 c 128,-1,6
 171 706 171 706 171 642 c 2,7,-1
 171 57 l 2,0,1
136 638 m 2,8,9
 136 668 136 668 129 679.5 c 128,-1,10
 122 691 122 691 98 691 c 256,11,12
 74 691 74 691 64.5 680.5 c 128,-1,13
 55 670 55 670 55 641 c 2,14,-1
 55 62 l 2,15,16
 55 33 55 33 62 21 c 128,-1,17
 69 9 69 9 93 9 c 256,18,19
 117 9 117 9 126.5 20 c 128,-1,20
 136 31 136 31 136 60 c 2,21,-1
 136 638 l 2,8,9
EndSplineSet
EndChar

StartChar: P
Encoding: 80 80 51
Width: 193
Flags: HW
LayerCount: 2
Fore
SplineSet
104 700 m 1,0,1
 171 695.8125 171 695.8125 171 638 c 2,2,-1
 171 409 l 2,3,4
 171 345 171 345 98 345 c 2,5,-1
 55 345 l 1,6,-1
 55 0 l 1,7,-1
 20 0 l 1,8,-1
 20 700 l 1,9,-1
 104 700 l 1,0,1
55 685 m 1,10,-1
 55 359 l 1,11,-1
 98 359 l 2,12,13
 122 359 122 359 129 371 c 128,-1,14
 136 383 136 383 136 412 c 2,15,-1
 136 635 l 2,16,17
 136 662 136 662 128 672.5 c 128,-1,18
 120 683 120 683 100 685 c 1,19,-1
 55 685 l 1,10,-1
EndSplineSet
EndChar

StartChar: Q
Encoding: 81 81 52
Width: 192
Flags: HW
LayerCount: 2
Fore
SplineSet
171 57 m 2,0,1
 171 -0.818181818182 171 -0.818181818182 102 -5 c 1,2,-1
 102 -100 l 1,3,-1
 88 -100 l 1,4,-1
 88 -5 l 1,5,6
 20 -2 20 -2 20 59 c 2,7,-1
 20 644 l 2,8,9
 20 706 20 706 95.5 706 c 128,-1,10
 171 706 171 706 171 642 c 2,11,-1
 171 57 l 2,0,1
136 638 m 2,12,13
 136 668 136 668 129 679.5 c 128,-1,14
 122 691 122 691 98 691 c 256,15,16
 74 691 74 691 64.5 680.5 c 128,-1,17
 55 670 55 670 55 641 c 2,18,-1
 55 62 l 2,19,20
 55 34 55 34 61 22 c 128,-1,21
 67 10 67 10 88 9 c 1,22,-1
 88 100 l 1,23,-1
 102 100 l 1,24,-1
 102 9 l 1,25,26
 121 11 121 11 128.5 22.5 c 128,-1,27
 136 34 136 34 136 60 c 2,28,-1
 136 638 l 2,12,13
EndSplineSet
EndChar

StartChar: R
Encoding: 82 82 53
Width: 192
Flags: HW
LayerCount: 2
Fore
SplineSet
104 700 m 1,0,1
 171 695.8125 171 695.8125 171 638 c 2,2,-1
 171 417 l 2,3,4
 171 373 171 373 138 360 c 1,5,6
 171 346 171 346 171 306 c 2,7,-1
 171 0 l 1,8,-1
 136 0 l 1,9,-1
 136 302 l 2,10,11
 136 329 136 329 128 339.5 c 128,-1,12
 120 350 120 350 100 352 c 1,13,-1
 55 352 l 1,14,-1
 55 0 l 1,15,-1
 20 0 l 1,16,-1
 20 700 l 1,17,-1
 104 700 l 1,0,1
55 685 m 1,18,-1
 55 367 l 1,19,-1
 98 367 l 2,20,21
 122 367 122 367 129 379 c 128,-1,22
 136 391 136 391 136 420 c 2,23,-1
 136 635 l 2,24,25
 136 662 136 662 128 672.5 c 128,-1,26
 120 683 120 683 100 685 c 1,27,-1
 55 685 l 1,18,-1
EndSplineSet
EndChar

StartChar: S
Encoding: 83 83 54
Width: 192
Flags: HW
LayerCount: 2
Fore
SplineSet
21 643 m 2,0,1
 21 706 21 706 96.5 706 c 128,-1,2
 172 706 172 706 172 640 c 2,3,-1
 172 500 l 1,4,-1
 137 500 l 1,5,-1
 137 639 l 2,6,7
 137 668 137 668 129 681.5 c 128,-1,8
 121 695 121 695 97 695 c 128,-1,9
 73 695 73 695 64.5 681.5 c 128,-1,10
 56 668 56 668 56 639 c 2,11,-1
 56 519 l 2,12,13
 56 481.142857143 56 481.142857143 66 462.571428571 c 0,14,15
 80.4545454545 435.727272727 80.4545454545 435.727272727 100.727272727 413.863636364 c 128,-1,16
 121 392 121 392 132 377.5 c 128,-1,17
 143 363 143 363 152 344 c 0,18,19
 172 301.777777778 172 301.777777778 172 245 c 2,20,-1
 172 58 l 2,21,22
 172 -5 172 -5 96.5 -5 c 128,-1,23
 21 -5 21 -5 21 61 c 2,24,-1
 21 200 l 1,25,-1
 56 200 l 1,26,-1
 56 62 l 2,27,28
 56 33 56 33 64 19.5 c 128,-1,29
 72 6 72 6 96 6 c 128,-1,30
 120 6 120 6 128.5 19.5 c 128,-1,31
 137 33 137 33 137 62 c 2,32,-1
 137 237 l 2,33,34
 137 293.857142857 137 293.857142857 127 317.428571429 c 0,35,36
 112.908675799 350.643835616 112.908675799 350.643835616 92.4543378995 373.821917808 c 128,-1,37
 72 397 72 397 61 410 c 128,-1,38
 50 423 50 423 41 438.5 c 0,39,40
 21 472.944444444 21 472.944444444 21 514 c 2,41,-1
 21 643 l 2,0,1
EndSplineSet
EndChar

StartChar: T
Encoding: 84 84 55
Width: 200
Flags: HW
LayerCount: 2
Fore
SplineSet
20 700 m 1,0,-1
 179 700 l 1,1,-1
 179 685 l 1,2,-1
 117 685 l 1,3,-1
 117 0 l 1,4,-1
 82 0 l 1,5,-1
 82 685 l 1,6,-1
 20 685 l 1,7,-1
 20 700 l 1,0,-1
EndSplineSet
EndChar

StartChar: U
Encoding: 85 85 56
Width: 192
Flags: HW
LayerCount: 2
Fore
SplineSet
171 57 m 2,0,1
 171 -5 171 -5 95.5 -5 c 128,-1,2
 20 -5 20 -5 20 59 c 2,3,-1
 20 700 l 1,4,-1
 55 700 l 1,5,-1
 55 62 l 2,6,7
 55 33 55 33 62 21 c 128,-1,8
 69 9 69 9 93 9 c 256,9,10
 117 9 117 9 126.5 20 c 128,-1,11
 136 31 136 31 136 60 c 2,12,-1
 136 700 l 1,13,-1
 171 700 l 1,14,-1
 171 57 l 2,0,1
EndSplineSet
EndChar

StartChar: V
Encoding: 86 86 57
Width: 199
Flags: HW
LayerCount: 2
Fore
SplineSet
181 700 m 1,0,-1
 103 0 l 1,1,-1
 89 0 l 1,2,-1
 20 700 l 1,3,-1
 55 700 l 1,4,-1
 105 143 l 1,5,-1
 167 700 l 1,6,-1
 181 700 l 1,0,-1
EndSplineSet
EndChar

StartChar: W
Encoding: 87 87 58
Width: 297
Flags: HW
LayerCount: 2
Fore
SplineSet
285 700 m 1,0,-1
 207 0 l 1,1,-1
 193 0 l 1,2,-1
 151 429 l 1,3,-1
 103 0 l 1,4,-1
 89 0 l 1,5,-1
 20 700 l 1,6,-1
 55 700 l 1,7,-1
 105 142 l 1,8,-1
 155 590 l 1,9,-1
 169 590 l 1,10,-1
 209 143 l 1,11,-1
 271 700 l 1,12,-1
 285 700 l 1,0,-1
EndSplineSet
EndChar

StartChar: X
Encoding: 88 88 59
Width: 198
Flags: HW
LayerCount: 2
Fore
SplineSet
142 0 m 1,0,-1
 83 349 l 1,1,-1
 28 0 l 1,2,-1
 13 0 l 1,3,-1
 76 391 l 1,4,-1
 23 700 l 1,5,-1
 58 700 l 1,6,-1
 104 430 l 1,7,-1
 159 700 l 1,8,-1
 174 700 l 1,9,-1
 110 390 l 1,10,-1
 177 0 l 1,11,-1
 142 0 l 1,0,-1
EndSplineSet
EndChar

StartChar: Y
Encoding: 89 89 60
Width: 197
Flags: HW
LayerCount: 2
Fore
SplineSet
81 0 m 1,0,-1
 81 300 l 1,1,-1
 21 700 l 1,2,-1
 56 700 l 1,3,-1
 109 341 l 1,4,-1
 165 700 l 1,5,-1
 180 700 l 1,6,-1
 116 301 l 1,7,-1
 116 0 l 1,8,-1
 81 0 l 1,0,-1
EndSplineSet
EndChar

StartChar: Z
Encoding: 90 90 61
Width: 197
Flags: HW
LayerCount: 2
Fore
SplineSet
33 700 m 1,0,-1
 175 700 l 1,1,-1
 58 15 l 1,2,-1
 176 15 l 1,3,-1
 176 0 l 1,4,-1
 21 0 l 1,5,-1
 137 685 l 1,6,-1
 33 685 l 1,7,-1
 33 700 l 1,0,-1
EndSplineSet
EndChar

StartChar: bracketleft
Encoding: 91 91 62
Width: 196
Flags: HW
LayerCount: 2
Fore
SplineSet
20 750 m 1,0,-1
 175 750 l 1,1,-1
 175 735 l 1,2,-1
 55 735 l 1,3,-1
 55 -35 l 1,4,-1
 175 -35 l 1,5,-1
 175 -50 l 1,6,-1
 20 -50 l 1,7,-1
 20 750 l 1,0,-1
EndSplineSet
EndChar

StartChar: backslash
Encoding: 92 92 63
Width: 200
Flags: HW
LayerCount: 2
Fore
SplineSet
30 750 m 1,0,-1
 179 0 l 1,1,-1
 156 0 l 1,2,-1
 7 750 l 1,3,-1
 30 750 l 1,0,-1
EndSplineSet
EndChar

StartChar: bracketright
Encoding: 93 93 64
Width: 196
Flags: HW
LayerCount: 2
Fore
SplineSet
175 750 m 1,0,-1
 175 -50 l 1,1,-1
 20 -50 l 1,2,-1
 20 -35 l 1,3,-1
 140 -35 l 1,4,-1
 140 735 l 1,5,-1
 20 735 l 1,6,-1
 20 750 l 1,7,-1
 175 750 l 1,0,-1
EndSplineSet
EndChar

StartChar: asciicircum
Encoding: 94 94 65
Width: 200
Flags: HW
LayerCount: 2
Fore
SplineSet
179 315 m 1,0,-1
 100 378 l 1,1,-1
 21 315 l 1,2,-1
 21 334 l 1,3,-1
 100 400 l 1,4,-1
 179 334 l 1,5,-1
 179 315 l 1,0,-1
EndSplineSet
EndChar

StartChar: underscore
Encoding: 95 95 66
Width: 220
Flags: HW
LayerCount: 2
Fore
SplineSet
20 15 m 1,0,-1
 200 15 l 1,1,-1
 200 0 l 1,2,-1
 20 0 l 1,3,-1
 20 15 l 1,0,-1
EndSplineSet
EndChar

StartChar: grave
Encoding: 96 96 67
Width: 178
Flags: HW
LayerCount: 2
Fore
SplineSet
64 650 m 1,0,-1
 98 540 l 1,1,-1
 82 540 l 1,2,-1
 45 650 l 1,3,-1
 64 650 l 1,0,-1
EndSplineSet
EndChar

StartChar: a
Encoding: 97 97 68
Width: 192
Flags: HW
LayerCount: 2
Fore
SplineSet
21 254 m 2,0,1
 21 316 21 316 99 316 c 0,2,3
 120 316 120 316 137 310 c 1,4,-1
 137 439 l 2,5,6
 137 468 137 468 129 481.5 c 128,-1,7
 121 495 121 495 97 495 c 128,-1,8
 73 495 73 495 64.5 481.5 c 128,-1,9
 56 468 56 468 56 439 c 2,10,-1
 56 376 l 1,11,-1
 21 376 l 1,12,-1
 21 443 l 2,13,14
 21 506 21 506 96.5 506 c 128,-1,15
 172 506 172 506 172 440 c 2,16,-1
 172 0 l 1,17,-1
 137 0 l 1,18,-1
 137 2 l 1,19,20
 120 -5 120 -5 94 -5 c 0,21,22
 21 -5 21 -5 21 59 c 2,23,-1
 21 254 l 2,0,1
63 21 m 128,-1,25
 70 9 70 9 93 9 c 128,-1,26
 116 9 116 9 125.5 18 c 128,-1,27
 135 27 135 27 137 51 c 1,28,-1
 137 244 l 2,29,30
 137 276 137 276 130.5 288.5 c 128,-1,31
 124 301 124 301 99.5 301 c 128,-1,32
 75 301 75 301 65.5 290.5 c 128,-1,33
 56 280 56 280 56 251 c 2,34,-1
 56 62 l 2,35,24
 56 33 56 33 63 21 c 128,-1,25
EndSplineSet
EndChar

StartChar: b
Encoding: 98 98 69
Width: 192
Flags: HW
LayerCount: 2
Fore
SplineSet
171 57 m 2,0,1
 171 -5 171 -5 95.5 -5 c 128,-1,2
 20 -5 20 -5 20 59 c 2,3,-1
 20 750 l 1,4,-1
 55 750 l 1,5,-1
 55 501 l 1,6,7
 72 508 72 508 98 508 c 0,8,9
 171 508 171 508 171 444 c 2,10,-1
 171 57 l 2,0,1
136 440 m 2,11,12
 136 470 136 470 129 481.5 c 128,-1,13
 122 493 122 493 98.5 493 c 128,-1,14
 75 493 75 493 65 484 c 128,-1,15
 55 475 55 475 55 448 c 2,16,-1
 55 62 l 2,17,18
 55 33 55 33 62 21 c 128,-1,19
 69 9 69 9 93 9 c 256,20,21
 117 9 117 9 126.5 20 c 128,-1,22
 136 31 136 31 136 60 c 2,23,-1
 136 440 l 2,11,12
EndSplineSet
EndChar

StartChar: c
Encoding: 99 99 70
Width: 192
Flags: HW
LayerCount: 2
Fore
SplineSet
21 443 m 2,0,1
 21 506 21 506 96.5 506 c 128,-1,2
 172 506 172 506 172 440 c 2,3,-1
 172 376 l 1,4,-1
 137 376 l 1,5,-1
 137 439 l 2,6,7
 137 468 137 468 129 481.5 c 128,-1,8
 121 495 121 495 97 495 c 128,-1,9
 73 495 73 495 64.5 481.5 c 128,-1,10
 56 468 56 468 56 439 c 2,11,-1
 56 62 l 2,12,13
 56 33 56 33 64 19.5 c 128,-1,14
 72 6 72 6 96 6 c 128,-1,15
 120 6 120 6 128.5 19.5 c 128,-1,16
 137 33 137 33 137 62 c 2,17,-1
 137 130 l 1,18,-1
 172 130 l 1,19,-1
 172 58 l 2,20,21
 172 -5 172 -5 96.5 -5 c 128,-1,22
 21 -5 21 -5 21 61 c 2,23,-1
 21 443 l 2,0,1
EndSplineSet
EndChar

StartChar: d
Encoding: 100 100 71
Width: 192
Flags: HW
LayerCount: 2
Fore
SplineSet
20 443 m 2,0,1
 20 506 20 506 97 506 c 0,2,3
 117 506 117 506 136 499 c 1,4,-1
 136 750 l 1,5,-1
 171 750 l 1,6,-1
 171 58 l 2,7,8
 171 -5 171 -5 95.5 -5 c 128,-1,9
 20 -5 20 -5 20 61 c 2,10,-1
 20 443 l 2,0,1
63 19.5 m 128,-1,12
 71 6 71 6 95 6 c 128,-1,13
 119 6 119 6 127.5 19.5 c 128,-1,14
 136 33 136 33 136 62 c 2,15,-1
 136 439 l 2,16,17
 136 468 136 468 128 481.5 c 128,-1,18
 120 495 120 495 96 495 c 128,-1,19
 72 495 72 495 63.5 481.5 c 128,-1,20
 55 468 55 468 55 439 c 2,21,-1
 55 62 l 2,22,11
 55 33 55 33 63 19.5 c 128,-1,12
EndSplineSet
EndChar

StartChar: e
Encoding: 101 101 72
Width: 192
Flags: HW
LayerCount: 2
Fore
SplineSet
20 444 m 2,0,1
 20 506 20 506 95.5 506 c 128,-1,2
 171 506 171 506 171 442 c 2,3,-1
 171 246 l 1,4,5
 170 213 170 213 150 199 c 128,-1,6
 130 185 130 185 100 185 c 128,-1,7
 70 185 70 185 55 191 c 1,8,-1
 55 62 l 2,9,10
 55 33 55 33 63 19.5 c 128,-1,11
 71 6 71 6 95 6 c 128,-1,12
 119 6 119 6 127.5 19.5 c 128,-1,13
 136 33 136 33 136 62 c 2,14,-1
 136 130 l 1,15,-1
 171 130 l 1,16,-1
 171 58 l 2,17,18
 171 -5 171 -5 95.5 -5 c 128,-1,19
 20 -5 20 -5 20 61 c 2,20,-1
 20 444 l 2,0,1
55 253 m 2,21,22
 55 222 55 222 61.5 211 c 128,-1,23
 68 200 68 200 92.5 200 c 128,-1,24
 117 200 117 200 126.5 210.5 c 128,-1,25
 136 221 136 221 136 250 c 2,26,-1
 136 439 l 2,27,28
 136 468 136 468 129 480 c 128,-1,29
 122 492 122 492 98 492 c 256,30,31
 74 492 74 492 64.5 481 c 128,-1,32
 55 470 55 470 55 441 c 2,33,-1
 55 253 l 2,21,22
EndSplineSet
EndChar

StartChar: f
Encoding: 102 102 73
Width: 123
Flags: HW
LayerCount: 2
Fore
SplineSet
140 710 m 1,0,1
 133.785714286 739 133.785714286 739 105.892857143 739 c 128,-1,2
 78 739 78 739 69.5 725.5 c 128,-1,3
 61 712 61 712 61 683 c 2,4,-1
 61 500 l 1,5,-1
 121 500 l 1,6,-1
 121 485 l 1,7,-1
 61 485 l 1,8,-1
 61 0 l 1,9,-1
 26 0 l 1,10,-1
 26 485 l 1,11,-1
 -4 485 l 1,12,-1
 -4 500 l 1,13,-1
 26 500 l 1,14,-1
 26 687 l 2,15,16
 26 750 26 750 102 750 c 0,17,18
 145.6 750 145.6 750 153 713 c 1,19,-1
 140 710 l 1,0,1
EndSplineSet
EndChar

StartChar: g
Encoding: 103 103 74
Width: 194
Flags: HW
LayerCount: 2
Fore
SplineSet
40 163 m 1,0,1
 7 205 7 205 37 250 c 1,2,3
 20 266 20 266 20 299 c 2,4,-1
 20 446 l 2,5,6
 20 508 20 508 97 508 c 2,7,-1
 182 508 l 1,8,-1
 182 493 l 1,9,-1
 152 493 l 1,10,11
 171 477 171 477 171 444 c 2,12,-1
 171 297 l 2,13,14
 171 235 171 235 93 235 c 0,15,16
 65 235 65 235 50 242 c 1,17,18
 24.8181818182 207.375 24.8181818182 207.375 52 170 c 1,19,20
 71 178 71 178 98 178 c 0,21,22
 171 178 171 178 171 114 c 2,23,-1
 171 -138 l 2,24,25
 171 -200 171 -200 95.5 -200 c 128,-1,26
 20 -200 20 -200 20 -136 c 2,27,-1
 20 116 l 2,28,29
 20 148 20 148 40 163 c 1,0,1
136 110 m 2,30,31
 136 140 136 140 129 151.5 c 128,-1,32
 122 163 122 163 98 163 c 256,33,34
 74 163 74 163 64.5 152.5 c 128,-1,35
 55 142 55 142 55 113 c 2,36,-1
 55 -133 l 2,37,38
 55 -162 55 -162 62 -174 c 128,-1,39
 69 -186 69 -186 93 -186 c 256,40,41
 117 -186 117 -186 126.5 -175 c 128,-1,42
 136 -164 136 -164 136 -135 c 2,43,-1
 136 110 l 2,30,31
136 440 m 2,44,45
 136 470 136 470 129 481.5 c 128,-1,46
 122 493 122 493 98 493 c 256,47,48
 74 493 74 493 64.5 482.5 c 128,-1,49
 55 472 55 472 55 443 c 2,50,-1
 55 302 l 2,51,52
 55 273 55 273 62 261 c 128,-1,53
 69 249 69 249 93 249 c 256,54,55
 117 249 117 249 126.5 260 c 128,-1,56
 136 271 136 271 136 300 c 2,57,-1
 136 440 l 2,44,45
EndSplineSet
EndChar

StartChar: h
Encoding: 104 104 75
Width: 192
Flags: HW
LayerCount: 2
Fore
SplineSet
20 0 m 1,0,-1
 20 750 l 1,1,-1
 55 750 l 1,2,-1
 55 501 l 1,3,4
 72 508 72 508 98 508 c 0,5,6
 170 508 170 508 171 447 c 1,7,-1
 171 0 l 1,8,-1
 136 0 l 1,9,-1
 136 440 l 2,10,11
 136 470 136 470 129 481.5 c 128,-1,12
 122 493 122 493 98 493 c 256,13,14
 74 493 74 493 64.5 482.5 c 128,-1,15
 55 472 55 472 55 443 c 2,16,-1
 55 0 l 1,17,-1
 20 0 l 1,0,-1
EndSplineSet
EndChar

StartChar: i
Encoding: 105 105 76
Width: 76
Flags: HW
LayerCount: 2
Fore
SplineSet
20 0 m 1,0,-1
 20 500 l 1,1,-1
 55 500 l 1,2,-1
 55 0 l 1,3,-1
 20 0 l 1,0,-1
27 620 m 1,4,-1
 25 700 l 1,5,-1
 51 700 l 1,6,-1
 49 620 l 1,7,-1
 27 620 l 1,4,-1
EndSplineSet
EndChar

StartChar: j
Encoding: 106 106 77
Width: 80
Flags: HW
LayerCount: 2
Fore
SplineSet
-30 -185 m 1,0,1
 -21 -188 -21 -188 -9 -188 c 0,2,3
 25 -188 25 -188 25 -133 c 2,4,-1
 25 500 l 1,5,-1
 60 500 l 1,6,-1
 60 -137 l 2,7,8
 60 -167 60 -167 42 -183.5 c 128,-1,9
 24 -200 24 -200 0 -200 c 0,10,11
 -24 -200 -24 -200 -35 -196 c 1,12,-1
 -30 -185 l 1,0,1
32 620 m 1,13,-1
 30 700 l 1,14,-1
 56 700 l 1,15,-1
 54 620 l 1,16,-1
 32 620 l 1,13,-1
EndSplineSet
EndChar

StartChar: k
Encoding: 107 107 78
Width: 187
Flags: HW
LayerCount: 2
Fore
SplineSet
20 0 m 1,0,-1
 20 750 l 1,1,-1
 55 750 l 1,2,-1
 55 306 l 1,3,-1
 139 499 l 1,4,-1
 153 499 l 1,5,-1
 69 306 l 1,6,-1
 174 0 l 1,7,-1
 139 0 l 1,8,-1
 55 245 l 1,9,-1
 55 0 l 1,10,-1
 20 0 l 1,0,-1
EndSplineSet
EndChar

StartChar: l
Encoding: 108 108 79
Width: 76
Flags: HW
LayerCount: 2
Fore
SplineSet
20 0 m 1,0,-1
 20 750 l 1,1,-1
 55 750 l 1,2,-1
 55 0 l 1,3,-1
 20 0 l 1,0,-1
EndSplineSet
EndChar

StartChar: m
Encoding: 109 109 80
Width: 308
Flags: HW
LayerCount: 2
Fore
SplineSet
252 0 m 1,0,-1
 252 440 l 2,1,2
 252 470 252 470 245 481.5 c 128,-1,3
 238 493 238 493 214 493 c 256,4,5
 190 493 190 493 180.5 483 c 128,-1,6
 171 473 171 473 171 444 c 2,7,-1
 171 0 l 1,8,-1
 136 0 l 1,9,-1
 136 440 l 2,10,11
 136 470 136 470 129 481.5 c 128,-1,12
 122 493 122 493 97.5 493 c 0,13,14
 73 493 73 493 64 483 c 128,-1,15
 55 473 55 473 55 443 c 2,16,-1
 55 0 l 1,17,-1
 20 0 l 1,18,-1
 20 500 l 1,19,-1
 50 500 l 1,20,-1
 50 499 l 1,21,22
 69 508 69 508 101.5 508 c 0,23,24
 134 508 134 508 153 491 c 1,25,26
 171 508 171 508 214 508 c 0,27,28
 287 508 287 508 287 445 c 2,29,-1
 287 0 l 1,30,-1
 252 0 l 1,0,-1
EndSplineSet
EndChar

StartChar: n
Encoding: 110 110 81
Width: 192
Flags: HW
LayerCount: 2
Fore
SplineSet
136 0 m 1,0,-1
 136 440 l 2,1,2
 136 470 136 470 129 481.5 c 128,-1,3
 122 493 122 493 97.5 493 c 0,4,5
 73 493 73 493 64 483 c 128,-1,6
 55 473 55 473 55 443 c 2,7,-1
 55 0 l 1,8,-1
 20 0 l 1,9,-1
 20 500 l 1,10,-1
 50 500 l 1,11,-1
 50 499 l 1,12,13
 69 508 69 508 98 508 c 0,14,15
 171 508 171 508 171 445 c 2,16,-1
 171 0 l 1,17,-1
 136 0 l 1,0,-1
EndSplineSet
EndChar

StartChar: o
Encoding: 111 111 82
Width: 192
Flags: HW
LayerCount: 2
Fore
SplineSet
171 57 m 2,0,1
 171 -5 171 -5 95.5 -5 c 128,-1,2
 20 -5 20 -5 20 59 c 2,3,-1
 20 446 l 2,4,5
 20 508 20 508 95.5 508 c 128,-1,6
 171 508 171 508 171 444 c 2,7,-1
 171 57 l 2,0,1
136 440 m 2,8,9
 136 470 136 470 129 481.5 c 128,-1,10
 122 493 122 493 98 493 c 256,11,12
 74 493 74 493 64.5 482.5 c 128,-1,13
 55 472 55 472 55 443 c 2,14,-1
 55 62 l 2,15,16
 55 33 55 33 62 21 c 128,-1,17
 69 9 69 9 93 9 c 256,18,19
 117 9 117 9 126.5 20 c 128,-1,20
 136 31 136 31 136 60 c 2,21,-1
 136 440 l 2,8,9
EndSplineSet
EndChar

StartChar: p
Encoding: 112 112 83
Width: 192
Flags: HW
LayerCount: 2
Fore
SplineSet
171 57 m 2,0,1
 171 -5 171 -5 93 -5 c 0,2,3
 70 -5 70 -5 55 1 c 1,4,-1
 55 -200 l 1,5,-1
 20 -200 l 1,6,-1
 20 500 l 1,7,-1
 50 500 l 1,8,-1
 50 499 l 1,9,10
 69 508 69 508 98 508 c 0,11,12
 171 508 171 508 171 444 c 2,13,-1
 171 57 l 2,0,1
136 440 m 2,14,15
 136 470 136 470 129 481.5 c 128,-1,16
 122 493 122 493 98.5 493 c 128,-1,17
 75 493 75 493 65.5 484 c 128,-1,18
 56 475 56 475 55 449 c 1,19,-1
 55 62 l 2,20,21
 55 33 55 33 62 21 c 128,-1,22
 69 9 69 9 93 9 c 256,23,24
 117 9 117 9 126.5 20 c 128,-1,25
 136 31 136 31 136 60 c 2,26,-1
 136 440 l 2,14,15
EndSplineSet
EndChar

StartChar: q
Encoding: 113 113 84
Width: 192
Flags: HW
LayerCount: 2
Fore
SplineSet
20 446 m 2,0,1
 20 508 20 508 98 508 c 0,2,3
 124 508 124 508 142 499 c 1,4,-1
 142 500 l 1,5,-1
 171 500 l 1,6,-1
 171 -200 l 1,7,-1
 136 -200 l 1,8,-1
 136 2 l 1,9,10
 119 -5 119 -5 93 -5 c 0,11,12
 20 -5 20 -5 20 59 c 2,13,-1
 20 446 l 2,0,1
136 440 m 2,14,15
 136 470 136 470 129 481.5 c 128,-1,16
 122 493 122 493 98 493 c 256,17,18
 74 493 74 493 64.5 482.5 c 128,-1,19
 55 472 55 472 55 443 c 2,20,-1
 55 62 l 2,21,22
 55 33 55 33 62 21 c 128,-1,23
 69 9 69 9 92.5 9 c 128,-1,24
 116 9 116 9 125 18.5 c 128,-1,25
 134 28 134 28 136 53 c 1,26,-1
 136 440 l 2,14,15
EndSplineSet
EndChar

StartChar: r
Encoding: 114 114 85
Width: 192
Flags: HW
LayerCount: 2
Fore
SplineSet
54 500 m 1,0,-1
 54 499 l 1,1,2
 71 506 71 506 97 506 c 0,3,4
 171 506 171 506 171 440 c 2,5,-1
 171 371 l 1,6,-1
 136 371 l 1,7,-1
 136 439 l 2,8,9
 136 470 136 470 128 482.5 c 128,-1,10
 120 495 120 495 96 495 c 0,11,12
 72 495 72 495 63.5 481.5 c 128,-1,13
 55 468 55 468 55 439 c 2,14,-1
 55 0 l 1,15,-1
 20 0 l 1,16,-1
 20 500 l 1,17,-1
 54 500 l 1,0,-1
EndSplineSet
EndChar

StartChar: s
Encoding: 115 115 86
Width: 192
Flags: HW
LayerCount: 2
Fore
SplineSet
21 443 m 2,0,1
 21 506 21 506 96.5 506 c 128,-1,2
 172 506 172 506 172 440 c 2,3,-1
 172 377 l 1,4,-1
 137 377 l 1,5,-1
 137 439 l 2,6,7
 137 468 137 468 129 481.5 c 128,-1,8
 121 495 121 495 97 495 c 128,-1,9
 73 495 73 495 64.5 481.5 c 128,-1,10
 56 468 56 468 56 439 c 2,11,-1
 56 367 l 2,12,13
 56 336.857142857 56 336.857142857 66 320.428571429 c 0,14,15
 79.5 298.25 79.5 298.25 100.25 278.625 c 128,-1,16
 121 259 121 259 132 246.5 c 128,-1,17
 143 234 143 234 152 218 c 0,18,19
 172 182.444444444 172 182.444444444 172 139 c 2,20,-1
 172 58 l 2,21,22
 172 -5 172 -5 96.5 -5 c 128,-1,23
 21 -5 21 -5 21 61 c 2,24,-1
 21 130 l 1,25,-1
 56 130 l 1,26,-1
 56 62 l 2,27,28
 56 33 56 33 64 19.5 c 128,-1,29
 72 6 72 6 96 6 c 128,-1,30
 120 6 120 6 128.5 19.5 c 128,-1,31
 137 33 137 33 137 62 c 2,32,-1
 137 132 l 2,33,34
 137 195.19047619 137 195.19047619 106.5 231.5 c 0,35,36
 96 244 96 244 77.5 261 c 128,-1,37
 59 278 59 278 40 302.5 c 128,-1,38
 21 327 21 327 21 363 c 2,39,-1
 21 443 l 2,0,1
EndSplineSet
EndChar

StartChar: t
Encoding: 116 116 87
Width: 162
Flags: HW
LayerCount: 2
Fore
SplineSet
21 500 m 1,0,-1
 51 500 l 1,1,-1
 51 650 l 1,2,-1
 86 650 l 1,3,-1
 86 500 l 1,4,-1
 146 500 l 1,5,-1
 146 485 l 1,6,-1
 86 485 l 1,7,-1
 86 67 l 2,8,9
 86 12 86 12 120 12 c 0,10,11
 132 12 132 12 141 15 c 1,12,-1
 145 4 l 1,13,14
 134 0 134 0 110 0 c 0,15,16
 86 0 86 0 68.5 16.5 c 128,-1,17
 51 33 51 33 51 63 c 2,18,-1
 51 485 l 1,19,-1
 21 485 l 1,20,-1
 21 500 l 1,0,-1
EndSplineSet
EndChar

StartChar: u
Encoding: 117 117 88
Width: 192
Flags: HW
LayerCount: 2
Fore
SplineSet
171 500 m 1,0,-1
 171 0 l 1,1,-1
 141 0 l 1,2,-1
 141 1 l 1,3,4
 121 -8 121 -8 93 -8 c 0,5,6
 20 -8 20 -8 20 56 c 2,7,-1
 20 500 l 1,8,-1
 55 500 l 1,9,-1
 55 60 l 2,10,11
 55 30 55 30 62 18.5 c 128,-1,12
 69 7 69 7 92 7 c 0,13,14
 115 7 115 7 124.5 15.5 c 128,-1,15
 134 24 134 24 136 48 c 1,16,-1
 136 500 l 1,17,-1
 171 500 l 1,0,-1
EndSplineSet
EndChar

StartChar: v
Encoding: 118 118 89
Width: 183
Flags: HW
LayerCount: 2
Fore
SplineSet
164 500 m 1,0,-1
 88 0 l 1,1,-1
 73 0 l 1,2,-1
 20 500 l 1,3,-1
 55 500 l 1,4,-1
 91 119 l 1,5,-1
 149 500 l 1,6,-1
 164 500 l 1,0,-1
EndSplineSet
EndChar

StartChar: w
Encoding: 119 119 90
Width: 274
Flags: HW
LayerCount: 2
Fore
SplineSet
256 500 m 1,0,-1
 180 0 l 1,1,-1
 165 0 l 1,2,-1
 133 297 l 1,3,-1
 88 0 l 1,4,-1
 73 0 l 1,5,-1
 20 500 l 1,6,-1
 55 500 l 1,7,-1
 91 119 l 1,8,-1
 139 438 l 1,9,-1
 153 438 l 1,10,-1
 183 118 l 1,11,-1
 241 500 l 1,12,-1
 256 500 l 1,0,-1
EndSplineSet
EndChar

StartChar: x
Encoding: 120 120 91
Width: 198
Flags: HW
LayerCount: 2
Fore
SplineSet
142 0 m 1,0,-1
 86 232 l 1,1,-1
 32 0 l 1,2,-1
 16 0 l 1,3,-1
 78 266 l 1,4,-1
 23 500 l 1,5,-1
 58 500 l 1,6,-1
 105 301 l 1,7,-1
 152 500 l 1,8,-1
 167 500 l 1,9,-1
 113 268 l 1,10,-1
 177 0 l 1,11,-1
 142 0 l 1,0,-1
EndSplineSet
EndChar

StartChar: y
Encoding: 121 121 92
Width: 211
Flags: HW
LayerCount: 2
Fore
SplineSet
18 -187 m 1,0,1
 26 -189 26 -189 34 -189 c 0,2,3
 58 -189 58 -189 66.5 -172.5 c 128,-1,4
 75 -156 75 -156 78 -136 c 2,5,-1
 99 1 l 1,6,-1
 21 500 l 1,7,-1
 56 500 l 1,8,-1
 116 115 l 1,9,-1
 175 500 l 1,10,-1
 190 500 l 1,11,-1
 93 -136 l 2,12,13
 82.3333333333 -200 82.3333333333 -200 37 -200 c 2,14,-1
 24.5 -200 l 2,15,16
 19 -200 19 -200 14 -198 c 1,17,-1
 18 -187 l 1,0,1
EndSplineSet
EndChar

StartChar: z
Encoding: 122 122 93
Width: 196
Flags: HW
LayerCount: 2
Fore
SplineSet
26 500 m 1,0,-1
 175 500 l 1,1,-1
 59 15 l 1,2,-1
 176 15 l 1,3,-1
 176 0 l 1,4,-1
 21 0 l 1,5,-1
 136 485 l 1,6,-1
 26 485 l 1,7,-1
 26 500 l 1,0,-1
EndSplineSet
EndChar

StartChar: braceleft
Encoding: 123 123 94
Width: 156
Flags: HW
LayerCount: 2
Fore
SplineSet
138 -51 m 1,0,1
 60 -51 60 -51 60 11 c 2,2,-1
 60 290 l 2,3,4
 60 317 60 317 53 329 c 128,-1,5
 46 341 46 341 20 343 c 1,6,-1
 20 357 l 1,7,8
 44 357 44 357 52 369 c 128,-1,9
 60 381 60 381 60 410 c 2,10,-1
 60 688 l 2,11,12
 60 750 60 750 138 750 c 1,13,-1
 138 735 l 1,14,15
 114 735 114 735 104.5 724.5 c 128,-1,16
 95 714 95 714 95 685 c 2,17,-1
 95 406 l 2,18,19
 95 364 95 364 64 349 c 1,20,21
 95 335 95 335 95 293 c 2,22,-1
 95 14 l 2,23,24
 95 -15 95 -15 104.5 -25.5 c 128,-1,25
 114 -36 114 -36 138 -36 c 1,26,-1
 138 -51 l 1,0,1
EndSplineSet
EndChar

StartChar: bar
Encoding: 124 124 95
Width: 76
Flags: HW
LayerCount: 2
Fore
SplineSet
55 750 m 1,0,-1
 55 -50 l 1,1,-1
 20 -50 l 1,2,-1
 20 750 l 1,3,-1
 55 750 l 1,0,-1
EndSplineSet
EndChar

StartChar: braceright
Encoding: 125 125 96
Width: 156
Flags: HW
LayerCount: 2
Fore
SplineSet
20 750 m 1,0,1
 98 750 98 750 98 688 c 2,2,-1
 98 410 l 2,3,4
 98 381 98 381 106 369 c 128,-1,5
 114 357 114 357 138 357 c 1,6,-1
 138 343 l 1,7,8
 112 341 112 341 105 329 c 128,-1,9
 98 317 98 317 98 290 c 2,10,-1
 98 11 l 2,11,12
 98 -51 98 -51 20 -51 c 1,13,-1
 20 -36 l 1,14,15
 44 -36 44 -36 53.5 -25.5 c 128,-1,16
 63 -15 63 -15 63 14 c 2,17,-1
 63 293 l 2,18,19
 63 335 63 335 94 349 c 1,20,21
 63 364 63 364 63 406 c 2,22,-1
 63 685 l 2,23,24
 63 714 63 714 53.5 724.5 c 128,-1,25
 44 735 44 735 20 735 c 1,26,-1
 20 750 l 1,0,1
EndSplineSet
EndChar

StartChar: asciitilde
Encoding: 126 126 97
Width: 198
Flags: HW
LayerCount: 2
Fore
SplineSet
178 339 m 1,0,1
 174.454545455 300 174.454545455 300 135 300 c 0,2,3
 115.5 300 115.5 300 101.25 309.5 c 128,-1,4
 87 319 87 319 79 323.5 c 128,-1,5
 71 328 71 328 59 328 c 256,6,7
 37.6 328 37.6 328 32 314 c 0,8,9
 29 308 29 308 30 300 c 1,10,-1
 20 300 l 1,11,12
 20 320 20 320 32 329 c 128,-1,13
 44 338 44 338 58.5 338 c 128,-1,14
 73 338 73 338 82 333.5 c 128,-1,15
 91 329 91 329 98.5 324 c 0,16,17
 119.5 310 119.5 310 134 310 c 256,18,19
 154.6 310 154.6 310 163 324 c 0,20,21
 167 330 167 330 167 339 c 1,22,-1
 178 339 l 1,0,1
EndSplineSet
EndChar

StartChar: exclamdown
Encoding: 161 161 98
Width: 76
Flags: HW
LayerCount: 2
Fore
SplineSet
55 500 m 1,0,-1
 55 436 l 1,1,-1
 20 436 l 1,2,-1
 20 500 l 1,3,-1
 55 500 l 1,0,-1
49 300 m 1,4,-1
 55 -200 l 1,5,-1
 20 -200 l 1,6,-1
 26 300 l 1,7,-1
 49 300 l 1,4,-1
EndSplineSet
EndChar

StartChar: cent
Encoding: 162 162 99
Width: 192
Flags: HW
LayerCount: 2
Fore
SplineSet
21 443 m 2,0,1
 21 501.875 21 501.875 87 506 c 1,2,-1
 87 550 l 1,3,-1
 102 550 l 1,4,-1
 102 506 l 1,5,6
 172 503 172 503 172 440 c 2,7,-1
 172 376 l 1,8,-1
 137 376 l 1,9,-1
 137 439 l 2,10,11
 137 467 137 467 129.5 480 c 128,-1,12
 122 493 122 493 102 495 c 1,13,-1
 102 6 l 1,14,15
 122 8 122 8 129.5 21.5 c 128,-1,16
 137 35 137 35 137 62 c 2,17,-1
 137 130 l 1,18,-1
 172 130 l 1,19,-1
 172 58 l 2,20,21
 172 26 172 26 154 11.5 c 128,-1,22
 136 -3 136 -3 102 -5 c 1,23,-1
 102 -50 l 1,24,-1
 87 -50 l 1,25,-1
 87 -5 l 1,26,27
 21 -2 21 -2 21 61 c 2,28,-1
 21 443 l 2,0,1
56 62 m 2,29,30
 56 35 56 35 62.5 21.5 c 128,-1,31
 69 8 69 8 87 6 c 1,32,-1
 87 494 l 1,33,34
 69 492 69 492 62.5 478.5 c 128,-1,35
 56 465 56 465 56 439 c 2,36,-1
 56 62 l 2,29,30
EndSplineSet
EndChar

StartChar: sterling
Encoding: 163 163 100
Width: 196
Flags: HW
LayerCount: 2
Fore
SplineSet
24 588 m 2,0,1
 24 650 24 650 99.5 650 c 128,-1,2
 175 650 175 650 175 586 c 2,3,-1
 175 444 l 1,4,-1
 140 444 l 1,5,-1
 140 582 l 2,6,7
 140 612 140 612 133 623.5 c 128,-1,8
 126 635 126 635 102 635 c 256,9,10
 78 635 78 635 68.5 624.5 c 128,-1,11
 59 614 59 614 59 585 c 2,12,-1
 59 344 l 1,13,-1
 141 344 l 1,14,-1
 141 329 l 1,15,-1
 59 329 l 1,16,-1
 59 64 l 1,17,-1
 156 64 l 1,18,-1
 156 49 l 1,19,-1
 4 49 l 1,20,-1
 4 64 l 1,21,-1
 24 64 l 1,22,-1
 24 588 l 2,0,1
EndSplineSet
EndChar

StartChar: currency
Encoding: 164 164 101
Width: 303
Flags: HW
LayerCount: 2
Fore
SplineSet
79 469 m 1,0,1
 91 508 91 508 150 508 c 128,-1,2
 209 508 209 508 222 469 c 1,3,-1
 273 531 l 1,4,-1
 286 521 l 1,5,-1
 226 449 l 1,6,-1
 226 299 l 1,7,-1
 231 290 l 1,8,-1
 286 225 l 1,9,-1
 274 215 l 1,10,-1
 223 276 l 1,11,12
 213.227272727 233 213.227272727 233 150.613636364 233 c 128,-1,13
 88 233 88 233 78 274 c 1,14,-1
 28 215 l 1,15,-1
 16 225 l 1,16,-1
 75 295 l 1,17,-1
 75 450 l 1,18,-1
 16 521 l 1,19,-1
 28 531 l 1,20,-1
 79 469 l 1,0,1
148 247 m 256,21,22
 172 247 172 247 181.5 258 c 128,-1,23
 191 269 191 269 191 298 c 2,24,-1
 191 443 l 2,25,26
 191 472 191 472 181.5 482.5 c 128,-1,27
 172 493 172 493 148 493 c 256,28,29
 124 493 124 493 117 481.5 c 128,-1,30
 110 470 110 470 110 440 c 2,31,-1
 110 300 l 2,32,33
 110 271 110 271 117 259 c 128,-1,34
 124 247 124 247 148 247 c 256,21,22
EndSplineSet
EndChar

StartChar: yen
Encoding: 165 165 102
Width: 201
Flags: HW
LayerCount: 2
Fore
SplineSet
21 280 m 1,0,-1
 80 280 l 1,1,-1
 25 650 l 1,2,-1
 60 650 l 1,3,-1
 112 296 l 1,4,-1
 167 650 l 1,5,-1
 183 650 l 1,6,-1
 123 280 l 1,7,-1
 184 280 l 1,8,-1
 184 265 l 1,9,-1
 121 265 l 1,10,-1
 119 251 l 1,11,-1
 119 178 l 1,12,-1
 184 178 l 1,13,-1
 184 163 l 1,14,-1
 119 163 l 1,15,-1
 119 50 l 1,16,-1
 85 50 l 1,17,-1
 85 163 l 1,18,-1
 21 163 l 1,19,-1
 21 178 l 1,20,-1
 85 178 l 1,21,-1
 85 250 l 1,22,-1
 83 265 l 1,23,-1
 21 265 l 1,24,-1
 21 280 l 1,0,-1
EndSplineSet
EndChar

StartChar: brokenbar
Encoding: 166 166 103
Width: 76
Flags: HW
LayerCount: 2
Fore
SplineSet
55 300 m 1,0,-1
 55 -50 l 1,1,-1
 20 -50 l 1,2,-1
 20 300 l 1,3,-1
 55 300 l 1,0,-1
20 400 m 1,4,-1
 20 750 l 1,5,-1
 55 750 l 1,6,-1
 55 400 l 1,7,-1
 20 400 l 1,4,-1
EndSplineSet
EndChar

StartChar: section
Encoding: 167 167 104
Width: 190
Flags: HW
LayerCount: 2
Fore
SplineSet
173 -48 m 2,0,1
 173 -111 173 -111 97.5 -111 c 128,-1,2
 22 -111 22 -111 22 -45 c 2,3,-1
 22 24 l 1,4,-1
 57 24 l 1,5,-1
 57 -44 l 2,6,7
 57 -73 57 -73 65 -86.5 c 128,-1,8
 73 -100 73 -100 97 -100 c 128,-1,9
 121 -100 121 -100 129.5 -86.5 c 128,-1,10
 138 -73 138 -73 138 -44 c 2,11,-1
 138 26 l 2,12,13
 138 71 138 71 125.5 97 c 128,-1,14
 113 123 113 123 93 141 c 128,-1,15
 73 159 73 159 61.5 169.5 c 128,-1,16
 50 180 50 180 41.5 192 c 0,17,18
 22 219.529411765 22 219.529411765 22 255 c 2,19,-1
 22 334 l 2,20,21
 22 400 22 400 96 400 c 0,22,23
 113 400 113 400 125 396 c 1,24,25
 116 417 116 417 98.5 433.5 c 128,-1,26
 81 450 81 450 64 467 c 128,-1,27
 47 484 47 484 34.5 505 c 128,-1,28
 22 526 22 526 22 557 c 2,29,-1
 22 634 l 2,30,31
 22 700 22 700 97.5 700 c 128,-1,32
 173 700 173 700 173 637 c 2,33,-1
 173 570 l 1,34,-1
 138 570 l 1,35,-1
 138 633 l 2,36,37
 138 662 138 662 129.5 675.5 c 128,-1,38
 121 689 121 689 97 689 c 128,-1,39
 73 689 73 689 65 675.5 c 128,-1,40
 57 662 57 662 57 633 c 2,41,-1
 57 561 l 2,42,43
 57 528.692307692 57 528.692307692 66.5 513.346153846 c 0,44,45
 79.768115942 491.913043478 79.768115942 491.913043478 110 466 c 1,46,47
 139.230769231 436.769230769 139.230769231 436.769230769 149.615384615 418.884615385 c 0,48,49
 173 378.611111111 173 378.611111111 173 338 c 2,50,-1
 173 252 l 2,51,52
 173 189 173 189 96 189 c 2,53,-1
 84 189 l 1,54,55
 95 178 95 178 110 165 c 128,-1,56
 125 152 125 152 139 134 c 0,57,58
 173 90.2857142857 173 90.2857142857 173 33 c 2,59,-1
 173 -48 l 2,0,1
138 336 m 1,60,61
 134 362 134 362 128 375.5 c 128,-1,62
 122 389 122 389 97.5 389 c 128,-1,63
 73 389 73 389 65 375.5 c 128,-1,64
 57 362 57 362 57 331 c 2,65,-1
 57 261 l 2,66,67
 57 236 57 236 63.5 218 c 128,-1,68
 70 200 70 200 95.5 200 c 128,-1,69
 121 200 121 200 129.5 213.5 c 128,-1,70
 138 227 138 227 138 256 c 2,71,-1
 138 336 l 1,60,61
EndSplineSet
EndChar

StartChar: dieresis
Encoding: 168 168 105
Width: 192
Flags: HW
LayerCount: 2
Fore
SplineSet
30 540 m 1,0,-1
 28 620 l 1,1,-1
 55 620 l 1,2,-1
 53 540 l 1,3,-1
 30 540 l 1,0,-1
139 540 m 1,4,-1
 137 620 l 1,5,-1
 164 620 l 1,6,-1
 162 540 l 1,7,-1
 139 540 l 1,4,-1
EndSplineSet
EndChar

StartChar: copyright
Encoding: 169 169 106
Width: 439
Flags: HW
LayerCount: 2
Fore
SplineSet
146 434 m 2,0,1
 146 500 146 500 221.5 500 c 128,-1,2
 297 500 297 500 297 437 c 2,3,-1
 297 370 l 1,4,-1
 262 370 l 1,5,-1
 262 433 l 2,6,7
 262 462 262 462 253.5 475.5 c 128,-1,8
 245 489 245 489 221 489 c 128,-1,9
 197 489 197 489 189 475.5 c 128,-1,10
 181 462 181 462 181 433 c 2,11,-1
 181 162 l 2,12,13
 181 133 181 133 189.5 119.5 c 128,-1,14
 198 106 198 106 222 106 c 128,-1,15
 246 106 246 106 254 119.5 c 128,-1,16
 262 133 262 133 262 162 c 2,17,-1
 262 230 l 1,18,-1
 297 230 l 1,19,-1
 297 161 l 2,20,21
 297 95 297 95 221.5 95 c 128,-1,22
 146 95 146 95 146 158 c 2,23,-1
 146 434 l 2,0,1
20 396 m 1,24,25
 21.9030779306 513.990831696 21.9030779306 513.990831696 73 561 c 0,26,27
 117.565217391 602 117.565217391 602 223 602 c 0,28,29
 346.774193548 602 346.774193548 602 386 538 c 0,30,31
 405 507 405 507 410 464 c 128,-1,32
 415 421 415 421 415 368 c 2,33,-1
 415 228 l 2,34,35
 415 175 415 175 410 132 c 128,-1,36
 405 89 405 89 386 58 c 0,37,38
 346.774193548 -6 346.774193548 -6 223 -6 c 0,39,40
 117.565217391 -6 117.565217391 -6 73 35 c 0,41,42
 21.9030779306 82.0091683039 21.9030779306 82.0091683039 20 200 c 1,43,-1
 20 396 l 1,24,25
55 231 m 2,44,45
 55 105.769230769 55 105.769230769 89.5 58 c 0,46,47
 127.777777778 5 127.777777778 5 227 5 c 0,48,49
 323.185185185 5 323.185185185 5 354 57 c 0,50,51
 370 84 370 84 375 127 c 128,-1,52
 380 170 380 170 380 231 c 2,53,-1
 380 365 l 2,54,55
 380 426 380 426 375 469 c 128,-1,56
 370 512 370 512 354 539 c 0,57,58
 323.185185185 591 323.185185185 591 227 591 c 256,59,60
 129 591 129 591 91.5 541 c 0,61,62
 57.0718562874 495.095808383 57.0718562874 495.095808383 55 377 c 1,63,-1
 55 231 l 2,44,45
EndSplineSet
EndChar

StartChar: ordfeminine
Encoding: 170 170 107
Width: 117
Flags: HW
LayerCount: 2
Fore
SplineSet
78 723 m 2,0,1
 78 737 78 737 74 744 c 128,-1,2
 70 751 70 751 58 751 c 128,-1,3
 46 751 46 751 42 744 c 128,-1,4
 38 737 38 737 38 723 c 2,5,-1
 38 691 l 1,6,-1
 20 691 l 1,7,-1
 20 725 l 2,8,9
 20 756 20 756 57.5 756 c 128,-1,10
 95 756 95 756 95 723 c 2,11,-1
 95 503 l 1,12,-1
 78 503 l 1,13,-1
 78 505 l 1,14,15
 70 500 70 500 57 500 c 0,16,17
 20 500 20 500 20 533 c 2,18,-1
 20 630 l 2,19,20
 20 661 20 661 59 661 c 0,21,22
 70 661 70 661 78 658 c 1,23,-1
 78 723 l 2,0,1
41.5 514 m 128,-1,25
 45 508 45 508 56.5 508 c 128,-1,26
 68 508 68 508 72.5 512.5 c 128,-1,27
 77 517 77 517 78 529 c 1,28,-1
 78 625 l 2,29,30
 78 642 78 642 75 648 c 128,-1,31
 72 654 72 654 59.5 654 c 128,-1,32
 47 654 47 654 42.5 648.5 c 128,-1,33
 38 643 38 643 38 629 c 2,34,-1
 38 535 l 2,35,24
 38 520 38 520 41.5 514 c 128,-1,25
EndSplineSet
EndChar

StartChar: guillemotleft
Encoding: 171 171 108
Width: 313
Flags: HW
LayerCount: 2
Fore
SplineSet
160 500 m 1,0,-1
 172 500 l 1,1,-1
 40 332 l 1,2,-1
 172 164 l 1,3,-1
 160 164 l 1,4,-1
 20 332 l 1,5,-1
 160 500 l 1,0,-1
275 500 m 1,6,-1
 287 500 l 1,7,-1
 155 332 l 1,8,-1
 287 164 l 1,9,-1
 275 164 l 1,10,-1
 135 332 l 1,11,-1
 275 500 l 1,6,-1
EndSplineSet
EndChar

StartChar: logicalnot
Encoding: 172 172 109
Width: 320
Flags: HW
LayerCount: 2
Fore
SplineSet
20 316 m 1,0,-1
 299 316 l 1,1,-1
 299 299 l 1,2,-1
 298 299 l 1,3,-1
 298 250 l 1,4,-1
 283 250 l 1,5,-1
 283 301 l 1,6,-1
 20 301 l 1,7,-1
 20 316 l 1,0,-1
EndSplineSet
EndChar

StartChar: registered
Encoding: 174 174 110
Width: 440
Flags: HW
LayerCount: 2
Fore
SplineSet
21 494 m 1,0,1
 22.9030779306 611.990831696 22.9030779306 611.990831696 74 659 c 0,2,3
 118.565217391 700 118.565217391 700 224 700 c 0,4,5
 347.774193548 700 347.774193548 700 387 636 c 0,6,7
 406 605 406 605 411 562 c 128,-1,8
 416 519 416 519 416 466 c 2,9,-1
 416 381 l 2,10,11
 416 328 416 328 411 285 c 128,-1,12
 406 242 406 242 387 211 c 0,13,14
 347.774193548 147 347.774193548 147 224 147 c 0,15,16
 118.565217391 147 118.565217391 147 74 188 c 0,17,18
 22.9030779306 235.009168304 22.9030779306 235.009168304 21 353 c 1,19,-1
 21 494 l 1,0,1
56 384 m 2,20,21
 56 258.769230769 56 258.769230769 90.5 211 c 0,22,23
 128.777777778 158 128.777777778 158 228 158 c 0,24,25
 324.185185185 158 324.185185185 158 355 210 c 0,26,27
 371 237 371 237 376 280 c 128,-1,28
 381 323 381 323 381 384 c 2,29,-1
 381 463 l 2,30,31
 381 524 381 524 376 567 c 128,-1,32
 371 610 371 610 355 637 c 0,33,34
 324.185185185 689 324.185185185 689 228 689 c 256,35,36
 130 689 130 689 92.5 639 c 0,37,38
 58.0718562874 593.095808383 58.0718562874 593.095808383 56 475 c 1,39,-1
 56 384 l 2,20,21
235 617 m 1,40,41
 302 612.8125 302 612.8125 302 555 c 2,42,-1
 302 495 l 2,43,44
 302 451 302 451 269 438 c 1,45,46
 302 424 302 424 302 384 c 2,47,-1
 302 247 l 1,48,-1
 267 247 l 1,49,-1
 267 380 l 2,50,51
 267 407 267 407 259 418 c 128,-1,52
 251 429 251 429 231 431 c 1,53,-1
 186 431 l 1,54,-1
 186 247 l 1,55,-1
 151 247 l 1,56,-1
 151 617 l 1,57,-1
 235 617 l 1,40,41
186 602 m 1,58,-1
 186 446 l 1,59,-1
 234 446 l 2,60,61
 255 446 255 446 261 458.5 c 128,-1,62
 267 471 267 471 267 499 c 2,63,-1
 267 552 l 2,64,65
 267 579 267 579 259 589.5 c 128,-1,66
 251 600 251 600 231 602 c 1,67,-1
 186 602 l 1,58,-1
EndSplineSet
EndChar

StartChar: degree
Encoding: 176 176 111
Width: 186
Flags: HW
LayerCount: 2
Fore
SplineSet
33 636 m 256,0,1
 33 663 33 663 51.5 681.5 c 128,-1,2
 70 700 70 700 97 700 c 256,3,4
 124 700 124 700 142.5 681.5 c 128,-1,5
 161 663 161 663 161 636 c 256,6,7
 161 609 161 609 142.5 590.5 c 128,-1,8
 124 572 124 572 97 572 c 256,9,10
 70 572 70 572 51.5 590.5 c 128,-1,11
 33 609 33 609 33 636 c 256,0,1
49 636 m 256,12,13
 49 616 49 616 63 602 c 128,-1,14
 77 588 77 588 96.5 588 c 0,15,16
 116 588 116 588 130 602 c 128,-1,17
 144 616 144 616 144 636 c 256,18,19
 144 656 144 656 130 670 c 128,-1,20
 116 684 116 684 96.5 684 c 0,21,22
 77 684 77 684 63 670 c 128,-1,23
 49 656 49 656 49 636 c 256,12,13
EndSplineSet
EndChar

StartChar: plusminus
Encoding: 177 177 112
Width: 300
Flags: HW
LayerCount: 2
Fore
SplineSet
26 418 m 1,0,-1
 135 418 l 1,1,-1
 135 552 l 1,2,-1
 170 552 l 1,3,-1
 170 418 l 1,4,-1
 284 418 l 1,5,-1
 284 402 l 1,6,-1
 170 402 l 1,7,-1
 170 252 l 1,8,-1
 135 252 l 1,9,-1
 135 402 l 1,10,-1
 26 402 l 1,11,-1
 26 418 l 1,0,-1
20 199 m 1,12,-1
 280 199 l 1,13,-1
 280 184 l 1,14,-1
 20 184 l 1,15,-1
 20 199 l 1,12,-1
EndSplineSet
EndChar

StartChar: twosuperior
Encoding: 178 178 113
Width: 88
Flags: HW
LayerCount: 2
Fore
SplineSet
20 500 m 1,0,-1
 20 567 l 2,1,2
 20 594 20 594 38 612 c 1,3,4
 46 622 46 622 50.5 628.5 c 128,-1,5
 55 635 55 635 55 646 c 2,6,-1
 55 686 l 2,7,8
 55 703 55 703 42 703 c 0,9,10
 31 703 31 703 31 686 c 2,11,-1
 31 646 l 1,12,-1
 20 646 l 1,13,-1
 20 687 l 2,14,15
 20 706 20 706 42.5 706 c 128,-1,16
 65 706 65 706 65 688 c 2,17,-1
 65 645 l 2,18,19
 65 631 65 631 59 623.5 c 128,-1,20
 53 616 53 616 45.5 606.5 c 0,21,22
 31 588.133333333 31 588.133333333 31 564 c 2,23,-1
 31 505 l 1,24,-1
 55 505 l 1,25,-1
 55 558 l 1,26,-1
 65 558 l 1,27,-1
 65 500 l 1,28,-1
 20 500 l 1,0,-1
EndSplineSet
EndChar

StartChar: threesuperior
Encoding: 179 179 114
Width: 87
Flags: HW
LayerCount: 2
Fore
SplineSet
64 518 m 2,0,1
 64 501 64 501 42 501 c 0,2,3
 20 501 20 501 20 519 c 2,4,-1
 20 560 l 1,5,-1
 30 560 l 1,6,-1
 30 520 l 2,7,8
 30 505 30 505 41 505 c 0,9,10
 48 505 48 505 51 508 c 128,-1,11
 54 511 54 511 54 520 c 2,12,-1
 54 593 l 2,13,14
 54 606 54 606 44 607 c 1,15,-1
 30 607 l 1,16,-1
 30 612 l 1,17,-1
 43 612 l 2,18,19
 54 612 54 612 54 627 c 2,20,-1
 54 686 l 2,21,22
 54 701 54 701 43 701 c 0,23,24
 30 701 30 701 30 687 c 2,25,-1
 30 646 l 1,26,-1
 20 646 l 1,27,-1
 20 688 l 2,28,29
 20 706 20 706 42 706 c 0,30,31
 64 706 64 706 64 687 c 2,32,-1
 64 626 l 2,33,34
 64 613 64 613 54 609 c 1,35,36
 64 606 64 606 64 594 c 2,37,-1
 64 518 l 2,0,1
EndSplineSet
EndChar

StartChar: acute
Encoding: 180 180 115
Width: 179
Flags: HW
LayerCount: 2
Fore
SplineSet
132 650 m 1,0,-1
 95 540 l 1,1,-1
 79 540 l 1,2,-1
 113 650 l 1,3,-1
 132 650 l 1,0,-1
EndSplineSet
EndChar

StartChar: mu
Encoding: 181 181 116
AltUni2: 0003bc.ffffffff.0
Width: 192
Flags: HW
LayerCount: 2
Fore
SplineSet
20 -100 m 1,0,-1
 20 500 l 1,1,-1
 55 500 l 1,2,-1
 55 60 l 2,3,4
 55 30 55 30 62 18.5 c 128,-1,5
 69 7 69 7 93 7 c 256,6,7
 117 7 117 7 126.5 17.5 c 128,-1,8
 136 28 136 28 136 57 c 2,9,-1
 136 500 l 1,10,-1
 171 500 l 1,11,-1
 171 0 l 1,12,-1
 141 0 l 1,13,-1
 141 1 l 1,14,15
 121 -8 121 -8 95.5 -8 c 128,-1,16
 70 -8 70 -8 55 -2 c 1,17,-1
 55 -100 l 1,18,-1
 20 -100 l 1,0,-1
EndSplineSet
EndChar

StartChar: paragraph
Encoding: 182 182 117
Width: 192
Flags: HW
LayerCount: 2
Fore
SplineSet
20 638 m 2,0,1
 20 695.8125 20 695.8125 87 700 c 1,2,-1
 171 700 l 1,3,-1
 171 685 l 1,4,-1
 140 685 l 1,5,-1
 140 359 l 1,6,-1
 171 359 l 1,7,-1
 171 345 l 1,8,-1
 140 345 l 1,9,-1
 140 0 l 1,10,-1
 105 0 l 1,11,-1
 105 345 l 1,12,-1
 93 345 l 2,13,14
 20 345 20 345 20 409 c 2,15,-1
 20 638 l 2,0,1
55 635 m 2,16,-1
 55 412 l 2,17,18
 55 383 55 383 62 371 c 128,-1,19
 69 359 69 359 93 359 c 2,20,-1
 105 359 l 1,21,-1
 105 685 l 1,22,-1
 91 685 l 1,23,24
 71 683 71 683 63 672.5 c 128,-1,25
 55 662 55 662 55 635 c 2,16,-1
EndSplineSet
EndChar

StartChar: periodcentered
Encoding: 183 183 118
Width: 76
Flags: HW
LayerCount: 2
Fore
SplineSet
20 336 m 1,0,-1
 20 400 l 1,1,-1
 55 400 l 1,2,-1
 55 336 l 1,3,-1
 20 336 l 1,0,-1
EndSplineSet
EndChar

StartChar: cedilla
Encoding: 184 184 119
Width: 87
Flags: HW
LayerCount: 2
Fore
SplineSet
67 0 m 1,0,-1
 67 -137 l 2,1,2
 67 -167 67 -167 49.5 -183.5 c 128,-1,3
 32 -200 32 -200 7.5 -200 c 0,4,5
 -17 -200 -17 -200 -28 -196 c 1,6,-1
 -23 -185 l 1,7,8
 -14 -188 -14 -188 -2 -188 c 0,9,10
 32 -188 32 -188 32 -133 c 2,11,-1
 32 0 l 1,12,-1
 67 0 l 1,0,-1
EndSplineSet
EndChar

StartChar: onesuperior
Encoding: 185 185 120
Width: 68
Flags: HW
LayerCount: 2
Fore
SplineSet
20 694 m 1,0,-1
 32 700 l 1,1,-1
 42 700 l 1,2,-1
 42 500 l 1,3,-1
 32 500 l 1,4,-1
 32 695 l 1,5,-1
 23 691 l 1,6,-1
 20 694 l 1,0,-1
EndSplineSet
EndChar

StartChar: ordmasculine
Encoding: 186 186 121
Width: 117
Flags: HW
LayerCount: 2
Fore
SplineSet
20 725 m 2,0,1
 20 756 20 756 57.5 756 c 0,2,3
 95 756 95 756 95 724 c 2,4,-1
 95 530 l 2,5,6
 95 513 95 513 85 506.5 c 128,-1,7
 75 500 75 500 56 500 c 0,8,9
 20 500 20 500 20 531 c 2,10,-1
 20 725 l 2,0,1
78 721 m 2,11,12
 78 736 78 736 74.5 742 c 128,-1,13
 71 748 71 748 59 748 c 256,14,15
 47 748 47 748 42 742.5 c 128,-1,16
 37 737 37 737 37 723 c 2,17,-1
 37 533 l 2,18,19
 37 519 37 519 40.5 513 c 128,-1,20
 44 507 44 507 56 507 c 256,21,22
 68 507 68 507 73 512.5 c 128,-1,23
 78 518 78 518 78 532 c 2,24,-1
 78 721 l 2,11,12
EndSplineSet
EndChar

StartChar: guillemotright
Encoding: 187 187 122
Width: 306
Flags: HW
LayerCount: 2
Fore
SplineSet
147 164 m 1,0,-1
 135 164 l 1,1,-1
 266 332 l 1,2,-1
 135 500 l 1,3,-1
 147 500 l 1,4,-1
 287 332 l 1,5,-1
 147 164 l 1,0,-1
32 164 m 1,6,-1
 20 164 l 1,7,-1
 151 332 l 1,8,-1
 20 500 l 1,9,-1
 32 500 l 1,10,-1
 172 332 l 1,11,-1
 32 164 l 1,6,-1
EndSplineSet
EndChar

StartChar: onequarter
Encoding: 188 188 123
Width: 247
Flags: HW
LayerCount: 2
Fore
SplineSet
20 691 m 1,0,-1
 38 700 l 1,1,-1
 52 700 l 1,2,-1
 52 400 l 1,3,-1
 38 400 l 1,4,-1
 38 693 l 1,5,-1
 26 686 l 1,6,-1
 20 691 l 1,0,-1
210 750 m 1,7,-1
 61 0 l 1,8,-1
 38 0 l 1,9,-1
 187 750 l 1,10,-1
 210 750 l 1,7,-1
210 300 m 1,11,-1
 210 86 l 1,12,-1
 219 86 l 1,13,-1
 219 79 l 1,14,-1
 210 79 l 1,15,-1
 210 0 l 1,16,-1
 195 0 l 1,17,-1
 195 79 l 1,18,-1
 143 79 l 1,19,-1
 204 300 l 1,20,-1
 210 300 l 1,11,-1
195 86 m 1,21,-1
 195 245 l 1,22,-1
 151 86 l 1,23,-1
 195 86 l 1,21,-1
EndSplineSet
EndChar

StartChar: onehalf
Encoding: 189 189 124
Width: 258
Flags: HW
LayerCount: 2
Fore
SplineSet
173 0 m 1,0,-1
 173 97 l 2,1,2
 173 132.75 173 132.75 198 164 c 1,3,4
 210 177 210 177 215.5 186.5 c 128,-1,5
 221 196 221 196 221 213 c 2,6,-1
 221 272 l 2,7,8
 221 284 221 284 218 289.5 c 128,-1,9
 215 295 215 295 204 295 c 0,10,11
 187 295 187 295 187 272 c 2,12,-1
 187 212 l 1,13,-1
 173 212 l 1,14,-1
 173 272 l 2,15,16
 173 300 173 300 205 300 c 128,-1,17
 237 300 237 300 237 273 c 2,18,-1
 237 211 l 2,19,20
 237 191 237 191 229 179.5 c 128,-1,21
 221 168 221 168 209.5 155.5 c 0,22,23
 187 131.043478261 187 131.043478261 187 93 c 2,24,-1
 187 7 l 1,25,-1
 221 7 l 1,26,-1
 221 85 l 1,27,-1
 237 85 l 1,28,-1
 237 0 l 1,29,-1
 173 0 l 1,0,-1
20 691 m 1,30,-1
 38 700 l 1,31,-1
 52 700 l 1,32,-1
 52 400 l 1,33,-1
 38 400 l 1,34,-1
 38 693 l 1,35,-1
 26 686 l 1,36,-1
 20 691 l 1,30,-1
210 750 m 1,37,-1
 61 0 l 1,38,-1
 38 0 l 1,39,-1
 187 750 l 1,40,-1
 210 750 l 1,37,-1
EndSplineSet
EndChar

StartChar: threequarters
Encoding: 190 190 125
Width: 272
Flags: HW
LayerCount: 2
Fore
SplineSet
84 428 m 2,0,1
 84 402 84 402 52 402 c 0,2,3
 20 402 20 402 20 429 c 2,4,-1
 20 490 l 1,5,-1
 34 490 l 1,6,-1
 34 431 l 2,7,8
 34 418 34 418 37 413 c 128,-1,9
 40 408 40 408 50.5 408 c 0,10,11
 61 408 61 408 65 412.5 c 128,-1,12
 69 417 69 417 69 430 c 2,13,-1
 69 538 l 2,14,15
 69 559 69 559 54 560 c 1,16,-1
 34 560 l 1,17,-1
 34 566 l 1,18,-1
 53 566 l 2,19,20
 63 566 63 566 66 571 c 128,-1,21
 69 576 69 576 69 589 c 2,22,-1
 69 676 l 2,23,24
 69 690 69 690 66 694.5 c 128,-1,25
 63 699 63 699 52.5 699 c 0,26,27
 42 699 42 699 38 694.5 c 128,-1,28
 34 690 34 690 34 678 c 2,29,-1
 34 618 l 1,30,-1
 20 618 l 1,31,-1
 20 679 l 2,32,33
 20 706 20 706 52 706 c 0,34,35
 84 706 84 706 84 678 c 2,36,-1
 84 587 l 2,37,38
 84 569 84 569 70 563 c 1,39,40
 84 557 84 557 84 540 c 2,41,-1
 84 428 l 2,0,1
241 750 m 1,42,-1
 92 0 l 1,43,-1
 69 0 l 1,44,-1
 218 750 l 1,45,-1
 241 750 l 1,42,-1
241 300 m 1,46,-1
 241 86 l 1,47,-1
 250 86 l 1,48,-1
 250 79 l 1,49,-1
 241 79 l 1,50,-1
 241 0 l 1,51,-1
 226 0 l 1,52,-1
 226 79 l 1,53,-1
 174 79 l 1,54,-1
 235 300 l 1,55,-1
 241 300 l 1,46,-1
226 86 m 1,56,-1
 226 245 l 1,57,-1
 182 86 l 1,58,-1
 226 86 l 1,56,-1
EndSplineSet
EndChar

StartChar: questiondown
Encoding: 191 191 126
Width: 192
Flags: HW
LayerCount: 2
Fore
SplineSet
-13 -136 m 2,0,1
 -13 -199 -13 -199 62.5 -199 c 128,-1,2
 138 -199 138 -199 138 -133 c 2,3,-1
 138 7 l 1,4,-1
 103 7 l 1,5,-1
 103 -132 l 2,6,7
 103 -161 103 -161 95 -174.5 c 128,-1,8
 87 -188 87 -188 63 -188 c 128,-1,9
 39 -188 39 -188 30.5 -174.5 c 128,-1,10
 22 -161 22 -161 22 -132 c 2,11,-1
 22 -11 l 2,12,13
 22 27 22 27 25.5 54.5 c 128,-1,14
 29 82 29 82 50 105 c 1,15,16
 72.3684210526 131.842105263 72.3684210526 131.842105263 78.1842105263 160.921052632 c 0,17,18
 87.9 209.5 87.9 209.5 84 307 c 1,19,-1
 59 307 l 1,20,21
 59 238 59 238 53.5 194.5 c 128,-1,22
 48 151 48 151 25 125.5 c 128,-1,23
 2 100 2 100 -5.5 70.5 c 128,-1,24
 -13 41 -13 41 -13 -6 c 2,25,-1
 -13 -136 l 2,0,1
88 508 m 1,26,-1
 88 444 l 1,27,-1
 53 444 l 1,28,-1
 53 508 l 1,29,-1
 88 508 l 1,26,-1
EndSplineSet
EndChar

StartChar: Agrave
Encoding: 192 192 127
Width: 199
Flags: HW
LayerCount: 2
Fore
SplineSet
20 0 m 1,0,-1
 98 700 l 1,1,-1
 112 700 l 1,2,-1
 181 0 l 1,3,-1
 146 0 l 1,4,-1
 125 230 l 1,5,-1
 59 230 l 1,6,-1
 34 0 l 1,7,-1
 20 0 l 1,0,-1
61 245 m 1,8,-1
 124 245 l 1,9,-1
 96 556 l 1,10,-1
 61 245 l 1,8,-1
78 840 m 1,11,-1
 112 730 l 1,12,-1
 96 730 l 1,13,-1
 59 840 l 1,14,-1
 78 840 l 1,11,-1
EndSplineSet
EndChar

StartChar: Aacute
Encoding: 193 193 128
Width: 199
Flags: HW
LayerCount: 2
Fore
SplineSet
34 0 m 1,0,-1
 59 230 l 1,1,-1
 125 230 l 1,2,-1
 146 0 l 1,3,-1
 181 0 l 1,4,-1
 112 700 l 1,5,-1
 98 700 l 1,6,-1
 20 0 l 1,7,-1
 34 0 l 1,0,-1
96 556 m 1,8,-1
 124 245 l 1,9,-1
 61 245 l 1,10,-1
 96 556 l 1,8,-1
151 840 m 1,11,-1
 114 730 l 1,12,-1
 98 730 l 1,13,-1
 132 840 l 1,14,-1
 151 840 l 1,11,-1
EndSplineSet
EndChar

StartChar: Acircumflex
Encoding: 194 194 129
Width: 199
Flags: HW
LayerCount: 2
Fore
SplineSet
20 0 m 1,0,-1
 98 700 l 1,1,-1
 112 700 l 1,2,-1
 181 0 l 1,3,-1
 146 0 l 1,4,-1
 125 230 l 1,5,-1
 59 230 l 1,6,-1
 34 0 l 1,7,-1
 20 0 l 1,0,-1
61 245 m 1,8,-1
 124 245 l 1,9,-1
 96 556 l 1,10,-1
 61 245 l 1,8,-1
46 730 m 1,11,-1
 106 833 l 1,12,-1
 166 730 l 1,13,-1
 154 730 l 1,14,-1
 106 805 l 1,15,-1
 58 730 l 1,16,-1
 46 730 l 1,11,-1
EndSplineSet
EndChar

StartChar: Atilde
Encoding: 195 195 130
Width: 199
Flags: HW
LayerCount: 2
Fore
SplineSet
34 0 m 1,0,-1
 59 230 l 1,1,-1
 125 230 l 1,2,-1
 146 0 l 1,3,-1
 181 0 l 1,4,-1
 112 700 l 1,5,-1
 98 700 l 1,6,-1
 20 0 l 1,7,-1
 34 0 l 1,0,-1
96 556 m 1,8,-1
 124 245 l 1,9,-1
 61 245 l 1,10,-1
 96 556 l 1,8,-1
181 767 m 1,11,12
 177.636363636 730 177.636363636 730 140 730 c 0,13,14
 122.5 730 122.5 730 108.25 739.5 c 128,-1,15
 94 749 94 749 87 753.5 c 128,-1,16
 80 758 80 758 69 758 c 256,17,18
 49.6 758 49.6 758 44 744 c 0,19,20
 41 738 41 738 42 730 c 1,21,-1
 31 730 l 1,22,23
 31 748.6 31 748.6 42.5 757.8 c 128,-1,24
 54 767 54 767 68.5 767 c 128,-1,25
 83 767 83 767 91 762.5 c 128,-1,26
 99 758 99 758 106 753 c 0,27,28
 125.6 739 125.6 739 139 739 c 256,29,30
 157.6 739 157.6 739 166 753 c 0,31,32
 170 759 170 759 170 767 c 1,33,-1
 181 767 l 1,11,12
EndSplineSet
EndChar

StartChar: Adieresis
Encoding: 196 196 131
Width: 199
Flags: HW
LayerCount: 2
Fore
SplineSet
34 0 m 1,0,-1
 59 230 l 1,1,-1
 125 230 l 1,2,-1
 146 0 l 1,3,-1
 181 0 l 1,4,-1
 112 700 l 1,5,-1
 98 700 l 1,6,-1
 20 0 l 1,7,-1
 34 0 l 1,0,-1
96 556 m 1,8,-1
 124 245 l 1,9,-1
 61 245 l 1,10,-1
 96 556 l 1,8,-1
40 730 m 1,11,-1
 38 810 l 1,12,-1
 65 810 l 1,13,-1
 63 730 l 1,14,-1
 40 730 l 1,11,-1
149 730 m 1,15,-1
 147 810 l 1,16,-1
 174 810 l 1,17,-1
 172 730 l 1,18,-1
 149 730 l 1,15,-1
EndSplineSet
EndChar

StartChar: Aring
Encoding: 197 197 132
Width: 199
Flags: HW
LayerCount: 2
Fore
SplineSet
20 0 m 1,0,-1
 98 700 l 1,1,-1
 112 700 l 1,2,-1
 181 0 l 1,3,-1
 146 0 l 1,4,-1
 125 230 l 1,5,-1
 59 230 l 1,6,-1
 34 0 l 1,7,-1
 20 0 l 1,0,-1
61 245 m 1,8,-1
 124 245 l 1,9,-1
 96 556 l 1,10,-1
 61 245 l 1,8,-1
42 794 m 256,11,12
 42 821 42 821 60 839 c 128,-1,13
 78 857 78 857 105 857 c 256,14,15
 132 857 132 857 150 839 c 128,-1,16
 168 821 168 821 168 794 c 256,17,18
 168 767 168 767 150 749 c 128,-1,19
 132 731 132 731 105 731 c 256,20,21
 78 731 78 731 60 749 c 128,-1,22
 42 767 42 767 42 794 c 256,11,12
57 794 m 256,23,24
 57 774 57 774 71 760 c 128,-1,25
 85 746 85 746 104.5 746 c 0,26,27
 124 746 124 746 138 760 c 128,-1,28
 152 774 152 774 152 794 c 256,29,30
 152 814 152 814 138 828 c 128,-1,31
 124 842 124 842 104.5 842 c 0,32,33
 85 842 85 842 71 828 c 128,-1,34
 57 814 57 814 57 794 c 256,23,24
EndSplineSet
EndChar

StartChar: AE
Encoding: 198 198 133
Width: 273
Flags: HW
LayerCount: 2
Fore
SplineSet
20 0 m 1,0,-1
 98 700 l 1,1,-1
 251 700 l 1,2,-1
 251 685 l 1,3,-1
 131 685 l 1,4,-1
 131 381 l 1,5,-1
 231 381 l 1,6,-1
 231 366 l 1,7,-1
 131 366 l 1,8,-1
 131 15 l 1,9,-1
 251 15 l 1,10,-1
 251 0 l 1,11,-1
 96 0 l 1,12,-1
 96 230 l 1,13,-1
 59 230 l 1,14,-1
 34 0 l 1,15,-1
 20 0 l 1,0,-1
96 245 m 1,16,-1
 96 554 l 1,17,-1
 61 245 l 1,18,-1
 96 245 l 1,16,-1
EndSplineSet
EndChar

StartChar: Ccedilla
Encoding: 199 199 134
Width: 194
Flags: HW
LayerCount: 2
Fore
SplineSet
22 644 m 2,0,1
 22 706 22 706 97.5 706 c 128,-1,2
 173 706 173 706 173 642 c 2,3,-1
 173 500 l 1,4,-1
 138 500 l 1,5,-1
 138 638 l 2,6,7
 138 668 138 668 131 679.5 c 128,-1,8
 124 691 124 691 100 691 c 256,9,10
 76 691 76 691 66.5 680.5 c 128,-1,11
 57 670 57 670 57 641 c 2,12,-1
 57 62 l 2,13,14
 57 33 57 33 64 21 c 128,-1,15
 71 9 71 9 95 9 c 256,16,17
 119 9 119 9 128.5 20 c 128,-1,18
 138 31 138 31 138 60 c 2,19,-1
 138 200 l 1,20,-1
 173 200 l 1,21,-1
 173 57 l 2,22,23
 173 3 173 3 117 -3 c 1,24,-1
 117 -137 l 2,25,26
 117 -167 117 -167 99.5 -183.5 c 128,-1,27
 82 -200 82 -200 57.5 -200 c 128,-1,28
 33 -200 33 -200 22 -196 c 1,29,-1
 27 -185 l 1,30,31
 36 -188 36 -188 48 -188 c 0,32,33
 82 -188 82 -188 82 -133 c 2,34,-1
 82 -4 l 1,35,36
 22 0 22 0 22 59 c 2,37,-1
 22 644 l 2,0,1
EndSplineSet
EndChar

StartChar: Egrave
Encoding: 200 200 135
Width: 196
Flags: HW
LayerCount: 2
Fore
SplineSet
175 700 m 1,0,-1
 175 685 l 1,1,-1
 55 685 l 1,2,-1
 55 381 l 1,3,-1
 155 381 l 1,4,-1
 155 366 l 1,5,-1
 55 366 l 1,6,-1
 55 15 l 1,7,-1
 175 15 l 1,8,-1
 175 0 l 1,9,-1
 20 0 l 1,10,-1
 20 700 l 1,11,-1
 175 700 l 1,0,-1
80 840 m 1,12,-1
 114 730 l 1,13,-1
 98 730 l 1,14,-1
 61 840 l 1,15,-1
 80 840 l 1,12,-1
EndSplineSet
EndChar

StartChar: Eacute
Encoding: 201 201 136
Width: 196
Flags: HW
LayerCount: 2
Fore
SplineSet
20 700 m 1,0,-1
 20 0 l 1,1,-1
 175 0 l 1,2,-1
 175 15 l 1,3,-1
 55 15 l 1,4,-1
 55 366 l 1,5,-1
 155 366 l 1,6,-1
 155 381 l 1,7,-1
 55 381 l 1,8,-1
 55 685 l 1,9,-1
 175 685 l 1,10,-1
 175 700 l 1,11,-1
 20 700 l 1,0,-1
149 840 m 1,12,-1
 112 730 l 1,13,-1
 96 730 l 1,14,-1
 130 840 l 1,15,-1
 149 840 l 1,12,-1
EndSplineSet
EndChar

StartChar: Ecircumflex
Encoding: 202 202 137
Width: 196
Flags: HW
LayerCount: 2
Fore
SplineSet
175 700 m 1,0,-1
 175 685 l 1,1,-1
 55 685 l 1,2,-1
 55 381 l 1,3,-1
 155 381 l 1,4,-1
 155 366 l 1,5,-1
 55 366 l 1,6,-1
 55 15 l 1,7,-1
 175 15 l 1,8,-1
 175 0 l 1,9,-1
 20 0 l 1,10,-1
 20 700 l 1,11,-1
 175 700 l 1,0,-1
38 730 m 1,12,-1
 98 833 l 1,13,-1
 158 730 l 1,14,-1
 146 730 l 1,15,-1
 98 805 l 1,16,-1
 50 730 l 1,17,-1
 38 730 l 1,12,-1
EndSplineSet
EndChar

StartChar: Edieresis
Encoding: 203 203 138
Width: 196
Flags: HW
LayerCount: 2
Fore
SplineSet
20 700 m 1,0,-1
 20 0 l 1,1,-1
 175 0 l 1,2,-1
 175 15 l 1,3,-1
 55 15 l 1,4,-1
 55 366 l 1,5,-1
 155 366 l 1,6,-1
 155 381 l 1,7,-1
 55 381 l 1,8,-1
 55 685 l 1,9,-1
 175 685 l 1,10,-1
 175 700 l 1,11,-1
 20 700 l 1,0,-1
32 730 m 1,12,-1
 30 810 l 1,13,-1
 57 810 l 1,14,-1
 55 730 l 1,15,-1
 32 730 l 1,12,-1
141 730 m 1,16,-1
 139 810 l 1,17,-1
 166 810 l 1,18,-1
 164 730 l 1,19,-1
 141 730 l 1,16,-1
EndSplineSet
EndChar

StartChar: Igrave
Encoding: 204 204 139
Width: 76
Flags: HW
LayerCount: 2
Fore
SplineSet
55 700 m 1,0,-1
 55 0 l 1,1,-1
 20 0 l 1,2,-1
 20 700 l 1,3,-1
 55 700 l 1,0,-1
9 840 m 1,4,-1
 43 730 l 1,5,-1
 27 730 l 1,6,-1
 -10 840 l 1,7,-1
 9 840 l 1,4,-1
EndSplineSet
EndChar

StartChar: Iacute
Encoding: 205 205 140
Width: 76
Flags: HW
LayerCount: 2
Fore
SplineSet
20 700 m 1,0,-1
 20 0 l 1,1,-1
 55 0 l 1,2,-1
 55 700 l 1,3,-1
 20 700 l 1,0,-1
83 840 m 1,4,-1
 46 730 l 1,5,-1
 30 730 l 1,6,-1
 64 840 l 1,7,-1
 83 840 l 1,4,-1
EndSplineSet
EndChar

StartChar: Icircumflex
Encoding: 206 206 141
Width: 76
Flags: HW
LayerCount: 2
Fore
SplineSet
55 700 m 1,0,-1
 55 0 l 1,1,-1
 20 0 l 1,2,-1
 20 700 l 1,3,-1
 55 700 l 1,0,-1
-22 730 m 1,4,-1
 38 833 l 1,5,-1
 98 730 l 1,6,-1
 86 730 l 1,7,-1
 38 805 l 1,8,-1
 -10 730 l 1,9,-1
 -22 730 l 1,4,-1
EndSplineSet
EndChar

StartChar: Idieresis
Encoding: 207 207 142
Width: 76
Flags: HW
LayerCount: 2
Fore
SplineSet
-28 730 m 1,0,-1
 -30 810 l 1,1,-1
 -3 810 l 1,2,-1
 -5 730 l 1,3,-1
 -28 730 l 1,0,-1
81 730 m 1,4,-1
 79 810 l 1,5,-1
 106 810 l 1,6,-1
 104 730 l 1,7,-1
 81 730 l 1,4,-1
20 700 m 1,8,-1
 20 0 l 1,9,-1
 55 0 l 1,10,-1
 55 700 l 1,11,-1
 20 700 l 1,8,-1
EndSplineSet
EndChar

StartChar: Eth
Encoding: 208 208 143
Width: 200
Flags: HW
LayerCount: 2
Fore
SplineSet
112 700 m 1,0,1
 179 695.8125 179 695.8125 179 638 c 2,2,-1
 179 64 l 2,3,4
 179 0 179 0 106 0 c 2,5,-1
 28 0 l 1,6,-1
 28 384 l 1,7,-1
 4 384 l 1,8,-1
 4 399 l 1,9,-1
 28 399 l 1,10,-1
 28 700 l 1,11,-1
 112 700 l 1,0,1
63 384 m 1,12,-1
 63 14 l 1,13,-1
 106 14 l 2,14,15
 130 14 130 14 137 26 c 128,-1,16
 144 38 144 38 144 67 c 2,17,-1
 144 635 l 2,18,19
 144 662 144 662 136 672.5 c 128,-1,20
 128 683 128 683 108 685 c 1,21,-1
 63 685 l 1,22,-1
 63 399 l 1,23,-1
 113 399 l 1,24,-1
 113 384 l 1,25,-1
 63 384 l 1,12,-1
EndSplineSet
EndChar

StartChar: Ntilde
Encoding: 209 209 144
Width: 199
Flags: HW
LayerCount: 2
Fore
SplineSet
55 0 m 1,0,-1
 55 537 l 1,1,-1
 140 141 l 1,2,-1
 140 0 l 1,3,-1
 175 0 l 1,4,-1
 175 700 l 1,5,-1
 140 700 l 1,6,-1
 140 208 l 1,7,-1
 34 700 l 1,8,-1
 20 700 l 1,9,-1
 20 0 l 1,10,-1
 55 0 l 1,0,-1
174 767 m 1,11,12
 170.636363636 730 170.636363636 730 133 730 c 0,13,14
 115.5 730 115.5 730 101.25 739.5 c 128,-1,15
 87 749 87 749 80 753.5 c 128,-1,16
 73 758 73 758 62 758 c 256,17,18
 34 758 34 758 34 730 c 1,19,-1
 24 730 l 1,20,21
 24 748.6 24 748.6 35.5 757.8 c 128,-1,22
 47 767 47 767 61.5 767 c 128,-1,23
 76 767 76 767 84 762.5 c 128,-1,24
 92 758 92 758 99 753 c 0,25,26
 118.6 739 118.6 739 132 739 c 256,27,28
 150.6 739 150.6 739 159 753 c 0,29,30
 163 759 163 759 163 767 c 1,31,-1
 174 767 l 1,11,12
EndSplineSet
EndChar

StartChar: Ograve
Encoding: 210 210 145
Width: 192
Flags: HW
LayerCount: 2
Fore
SplineSet
171 57 m 2,0,1
 171 -5 171 -5 95.5 -5 c 128,-1,2
 20 -5 20 -5 20 59 c 2,3,-1
 20 644 l 2,4,5
 20 706 20 706 95.5 706 c 128,-1,6
 171 706 171 706 171 642 c 2,7,-1
 171 57 l 2,0,1
136 638 m 2,8,9
 136 668 136 668 129 679.5 c 128,-1,10
 122 691 122 691 98 691 c 256,11,12
 74 691 74 691 64.5 680.5 c 128,-1,13
 55 670 55 670 55 641 c 2,14,-1
 55 62 l 2,15,16
 55 33 55 33 62 21 c 128,-1,17
 69 9 69 9 93 9 c 256,18,19
 117 9 117 9 126.5 20 c 128,-1,20
 136 31 136 31 136 60 c 2,21,-1
 136 638 l 2,8,9
72 840 m 1,22,-1
 106 730 l 1,23,-1
 90 730 l 1,24,-1
 53 840 l 1,25,-1
 72 840 l 1,22,-1
EndSplineSet
EndChar

StartChar: Oacute
Encoding: 211 211 146
Width: 192
Flags: HW
LayerCount: 2
Fore
SplineSet
171 642 m 2,0,1
 171 706 171 706 95.5 706 c 128,-1,2
 20 706 20 706 20 644 c 2,3,-1
 20 59 l 2,4,5
 20 -5 20 -5 95.5 -5 c 128,-1,6
 171 -5 171 -5 171 57 c 2,7,-1
 171 642 l 2,0,1
136 638 m 2,8,-1
 136 60 l 2,9,10
 136 31 136 31 126.5 20 c 128,-1,11
 117 9 117 9 93 9 c 256,12,13
 69 9 69 9 62 21 c 128,-1,14
 55 33 55 33 55 62 c 2,15,-1
 55 641 l 2,16,17
 55 670 55 670 64.5 680.5 c 128,-1,18
 74 691 74 691 98 691 c 256,19,20
 122 691 122 691 129 679.5 c 128,-1,21
 136 668 136 668 136 638 c 2,8,-1
146 840 m 1,22,-1
 109 730 l 1,23,-1
 93 730 l 1,24,-1
 127 840 l 1,25,-1
 146 840 l 1,22,-1
EndSplineSet
EndChar

StartChar: Ocircumflex
Encoding: 212 212 147
Width: 192
Flags: HW
LayerCount: 2
Fore
SplineSet
171 57 m 2,0,1
 171 -5 171 -5 95.5 -5 c 128,-1,2
 20 -5 20 -5 20 59 c 2,3,-1
 20 644 l 2,4,5
 20 706 20 706 95.5 706 c 128,-1,6
 171 706 171 706 171 642 c 2,7,-1
 171 57 l 2,0,1
136 638 m 2,8,9
 136 668 136 668 129 679.5 c 128,-1,10
 122 691 122 691 98 691 c 256,11,12
 74 691 74 691 64.5 680.5 c 128,-1,13
 55 670 55 670 55 641 c 2,14,-1
 55 62 l 2,15,16
 55 33 55 33 62 21 c 128,-1,17
 69 9 69 9 93 9 c 256,18,19
 117 9 117 9 126.5 20 c 128,-1,20
 136 31 136 31 136 60 c 2,21,-1
 136 638 l 2,8,9
36 730 m 1,22,-1
 96 833 l 1,23,-1
 156 730 l 1,24,-1
 144 730 l 1,25,-1
 96 805 l 1,26,-1
 48 730 l 1,27,-1
 36 730 l 1,22,-1
EndSplineSet
EndChar

StartChar: Otilde
Encoding: 213 213 148
Width: 196
Flags: HW
LayerCount: 2
Fore
SplineSet
171 642 m 2,0,1
 171 706 171 706 95.5 706 c 128,-1,2
 20 706 20 706 20 644 c 2,3,-1
 20 59 l 2,4,5
 20 -5 20 -5 95.5 -5 c 128,-1,6
 171 -5 171 -5 171 57 c 2,7,-1
 171 642 l 2,0,1
136 638 m 2,8,-1
 136 60 l 2,9,10
 136 31 136 31 126.5 20 c 128,-1,11
 117 9 117 9 93 9 c 256,12,13
 69 9 69 9 62 21 c 128,-1,14
 55 33 55 33 55 62 c 2,15,-1
 55 641 l 2,16,17
 55 670 55 670 64.5 680.5 c 128,-1,18
 74 691 74 691 98 691 c 256,19,20
 122 691 122 691 129 679.5 c 128,-1,21
 136 668 136 668 136 638 c 2,8,-1
171 767 m 1,22,23
 167.636363636 730 167.636363636 730 130 730 c 0,24,25
 112.5 730 112.5 730 98.25 739.5 c 128,-1,26
 84 749 84 749 77 753.5 c 128,-1,27
 70 758 70 758 59 758 c 256,28,29
 39.6 758 39.6 758 34 744 c 0,30,31
 31 738 31 738 32 730 c 1,32,-1
 21 730 l 1,33,34
 21 748.6 21 748.6 32.5 757.8 c 128,-1,35
 44 767 44 767 58.5 767 c 128,-1,36
 73 767 73 767 81 762.5 c 128,-1,37
 89 758 89 758 96 753 c 0,38,39
 115.6 739 115.6 739 129 739 c 256,40,41
 147.6 739 147.6 739 156 753 c 0,42,43
 160 759 160 759 160 767 c 1,44,-1
 171 767 l 1,22,23
EndSplineSet
EndChar

StartChar: Odieresis
Encoding: 214 214 149
Width: 192
Flags: HW
LayerCount: 2
Fore
SplineSet
171 642 m 2,0,1
 171 706 171 706 95.5 706 c 128,-1,2
 20 706 20 706 20 644 c 2,3,-1
 20 59 l 2,4,5
 20 -5 20 -5 95.5 -5 c 128,-1,6
 171 -5 171 -5 171 57 c 2,7,-1
 171 642 l 2,0,1
136 638 m 2,8,-1
 136 60 l 2,9,10
 136 31 136 31 126.5 20 c 128,-1,11
 117 9 117 9 93 9 c 256,12,13
 69 9 69 9 62 21 c 128,-1,14
 55 33 55 33 55 62 c 2,15,-1
 55 641 l 2,16,17
 55 670 55 670 64.5 680.5 c 128,-1,18
 74 691 74 691 98 691 c 256,19,20
 122 691 122 691 129 679.5 c 128,-1,21
 136 668 136 668 136 638 c 2,8,-1
30 730 m 1,22,-1
 28 810 l 1,23,-1
 55 810 l 1,24,-1
 53 730 l 1,25,-1
 30 730 l 1,22,-1
139 730 m 1,26,-1
 137 810 l 1,27,-1
 164 810 l 1,28,-1
 162 730 l 1,29,-1
 139 730 l 1,26,-1
EndSplineSet
EndChar

StartChar: multiply
Encoding: 215 215 150
Width: 245
Flags: HW
LayerCount: 2
Fore
SplineSet
33 477 m 1,0,-1
 122 322 l 1,1,-1
 211 477 l 1,2,-1
 224 469 l 1,3,-1
 130 307 l 1,4,-1
 223 147 l 1,5,-1
 210 139 l 1,6,-1
 122 291 l 1,7,-1
 34 139 l 1,8,-1
 21 147 l 1,9,-1
 113 307 l 1,10,-1
 20 469 l 1,11,-1
 33 477 l 1,0,-1
EndSplineSet
EndChar

StartChar: Oslash
Encoding: 216 216 151
Width: 192
Flags: HW
LayerCount: 2
Fore
SplineSet
22 644 m 2,0,1
 22 706 22 706 100 706 c 0,2,3
 143 706 143 706 161 682 c 1,4,-1
 164 700 l 1,5,-1
 179 700 l 1,6,-1
 170 661 l 1,7,8
 173 640 173 640 173 634 c 2,9,-1
 173 57 l 2,10,11
 173 -5 173 -5 95 -5 c 0,12,13
 47 -5 47 -5 32 22 c 1,14,-1
 27 0 l 1,15,-1
 13 0 l 1,16,-1
 21 41 l 1,17,-1
 21 51.5 l 2,18,19
 21 57 21 57 22 62 c 1,20,-1
 22 644 l 2,0,1
95 9 m 256,21,22
 119 9 119 9 128.5 20 c 128,-1,23
 138 31 138 31 138 60 c 2,24,-1
 138 513 l 1,25,-1
 57 138 l 1,26,-1
 57 62 l 2,27,28
 57 33 57 33 64 21 c 128,-1,29
 71 9 71 9 95 9 c 256,21,22
138 638 m 2,30,31
 138 668 138 668 131 679.5 c 128,-1,32
 124 691 124 691 100 691 c 256,33,34
 76 691 76 691 66.5 680.5 c 128,-1,35
 57 670 57 670 57 641 c 2,36,-1
 57 203 l 1,37,-1
 138 578 l 1,38,-1
 138 638 l 2,30,31
EndSplineSet
EndChar

StartChar: Ugrave
Encoding: 217 217 152
Width: 192
Flags: HW
LayerCount: 2
Fore
SplineSet
171 57 m 2,0,1
 171 -5 171 -5 95.5 -5 c 128,-1,2
 20 -5 20 -5 20 59 c 2,3,-1
 20 700 l 1,4,-1
 55 700 l 1,5,-1
 55 62 l 2,6,7
 55 33 55 33 62 21 c 128,-1,8
 69 9 69 9 93 9 c 256,9,10
 117 9 117 9 126.5 20 c 128,-1,11
 136 31 136 31 136 60 c 2,12,-1
 136 700 l 1,13,-1
 171 700 l 1,14,-1
 171 57 l 2,0,1
73 840 m 1,15,-1
 107 730 l 1,16,-1
 91 730 l 1,17,-1
 54 840 l 1,18,-1
 73 840 l 1,15,-1
EndSplineSet
EndChar

StartChar: Uacute
Encoding: 218 218 153
Width: 192
Flags: HW
LayerCount: 2
Fore
SplineSet
21 59 m 2,0,1
 21 -5 21 -5 96.5 -5 c 128,-1,2
 172 -5 172 -5 172 57 c 2,3,-1
 172 700 l 1,4,-1
 137 700 l 1,5,-1
 137 60 l 2,6,7
 137 31 137 31 127.5 20 c 128,-1,8
 118 9 118 9 94 9 c 256,9,10
 70 9 70 9 63 21 c 128,-1,11
 56 33 56 33 56 62 c 2,12,-1
 56 700 l 1,13,-1
 21 700 l 1,14,-1
 21 59 l 2,0,1
132 840 m 1,15,-1
 95 730 l 1,16,-1
 79 730 l 1,17,-1
 113 840 l 1,18,-1
 132 840 l 1,15,-1
EndSplineSet
EndChar

StartChar: Ucircumflex
Encoding: 219 219 154
Width: 192
Flags: HW
LayerCount: 2
Fore
SplineSet
171 57 m 2,0,1
 171 -5 171 -5 95.5 -5 c 128,-1,2
 20 -5 20 -5 20 59 c 2,3,-1
 20 700 l 1,4,-1
 55 700 l 1,5,-1
 55 62 l 2,6,7
 55 33 55 33 62 21 c 128,-1,8
 69 9 69 9 93 9 c 256,9,10
 117 9 117 9 126.5 20 c 128,-1,11
 136 31 136 31 136 60 c 2,12,-1
 136 700 l 1,13,-1
 171 700 l 1,14,-1
 171 57 l 2,0,1
36 730 m 1,15,-1
 96 833 l 1,16,-1
 156 730 l 1,17,-1
 144 730 l 1,18,-1
 96 805 l 1,19,-1
 48 730 l 1,20,-1
 36 730 l 1,15,-1
EndSplineSet
EndChar

StartChar: Udieresis
Encoding: 220 220 155
Width: 192
Flags: HW
LayerCount: 2
Fore
SplineSet
20 59 m 2,0,1
 20 -5 20 -5 95.5 -5 c 128,-1,2
 171 -5 171 -5 171 57 c 2,3,-1
 171 700 l 1,4,-1
 136 700 l 1,5,-1
 136 60 l 2,6,7
 136 31 136 31 126.5 20 c 128,-1,8
 117 9 117 9 93 9 c 256,9,10
 69 9 69 9 62 21 c 128,-1,11
 55 33 55 33 55 62 c 2,12,-1
 55 700 l 1,13,-1
 20 700 l 1,14,-1
 20 59 l 2,0,1
30 730 m 1,15,-1
 28 810 l 1,16,-1
 55 810 l 1,17,-1
 53 730 l 1,18,-1
 30 730 l 1,15,-1
139 730 m 1,19,-1
 137 810 l 1,20,-1
 164 810 l 1,21,-1
 162 730 l 1,22,-1
 139 730 l 1,19,-1
EndSplineSet
EndChar

StartChar: Yacute
Encoding: 221 221 156
Width: 197
Flags: HW
LayerCount: 2
Fore
SplineSet
116 0 m 1,0,-1
 116 301 l 1,1,-1
 180 700 l 1,2,-1
 165 700 l 1,3,-1
 109 341 l 1,4,-1
 56 700 l 1,5,-1
 21 700 l 1,6,-1
 81 300 l 1,7,-1
 81 0 l 1,8,-1
 116 0 l 1,0,-1
153 840 m 1,9,-1
 116 730 l 1,10,-1
 100 730 l 1,11,-1
 134 840 l 1,12,-1
 153 840 l 1,9,-1
EndSplineSet
EndChar

StartChar: Thorn
Encoding: 222 222 157
Width: 192
Flags: HW
LayerCount: 2
Fore
SplineSet
104 539 m 1,0,1
 171 534.8125 171 534.8125 171 477 c 2,2,-1
 171 248 l 2,3,4
 171 184 171 184 98 184 c 2,5,-1
 55 184 l 1,6,-1
 55 0 l 1,7,-1
 20 0 l 1,8,-1
 20 700 l 1,9,-1
 55 700 l 1,10,-1
 55 539 l 1,11,-1
 104 539 l 1,0,1
55 524 m 1,12,-1
 55 198 l 1,13,-1
 98 198 l 2,14,15
 122 198 122 198 129 210 c 128,-1,16
 136 222 136 222 136 251 c 2,17,-1
 136 474 l 2,18,19
 136 501 136 501 128 511.5 c 128,-1,20
 120 522 120 522 100 524 c 1,21,-1
 55 524 l 1,12,-1
EndSplineSet
EndChar

StartChar: germandbls
Encoding: 223 223 158
Width: 322
Flags: HW
LayerCount: 2
Fore
SplineSet
297 57 m 2,0,1
 297 -6 297 -6 221.5 -6 c 128,-1,2
 146 -6 146 -6 146 60 c 2,3,-1
 146 129 l 1,4,-1
 181 129 l 1,5,-1
 181 61 l 2,6,7
 181 32 181 32 189 18.5 c 128,-1,8
 197 5 197 5 221 5 c 128,-1,9
 245 5 245 5 253.5 18.5 c 128,-1,10
 262 32 262 32 262 61 c 2,11,-1
 262 131 l 2,12,13
 262 176 262 176 248.5 202 c 128,-1,14
 235 228 235 228 208.5 251.5 c 128,-1,15
 182 275 182 275 162 299 c 128,-1,16
 142 323 142 323 142 362 c 2,17,-1
 142 683 l 2,18,19
 142 712 142 712 133.5 725.5 c 128,-1,20
 125 739 125 739 101 739 c 128,-1,21
 77 739 77 739 69 725.5 c 128,-1,22
 61 712 61 712 61 683 c 2,23,-1
 61 0 l 1,24,-1
 26 0 l 1,25,-1
 26 484 l 1,26,-1
 -4 484 l 1,27,-1
 -4 500 l 1,28,-1
 26 500 l 1,29,-1
 26 684 l 2,30,31
 26 750 26 750 101.5 750 c 128,-1,32
 177 750 177 750 177 687 c 2,33,-1
 177 366 l 2,34,35
 177 335 177 335 187 320 c 0,36,37
 202.789473684 296.315789474 202.789473684 296.315789474 222.894736842 278.657894737 c 128,-1,38
 243 261 243 261 254.5 248.5 c 128,-1,39
 266 236 266 236 275.5 220 c 0,40,41
 297 183.789473684 297 183.789473684 297 138 c 2,42,-1
 297 57 l 2,0,1
EndSplineSet
EndChar

StartChar: agrave
Encoding: 224 224 159
Width: 192
Flags: HW
LayerCount: 2
Fore
SplineSet
21 254 m 2,0,1
 21 316 21 316 99 316 c 0,2,3
 120 316 120 316 137 310 c 1,4,-1
 137 439 l 2,5,6
 137 468 137 468 129 481.5 c 128,-1,7
 121 495 121 495 97 495 c 128,-1,8
 73 495 73 495 64.5 481.5 c 128,-1,9
 56 468 56 468 56 439 c 2,10,-1
 56 376 l 1,11,-1
 21 376 l 1,12,-1
 21 443 l 2,13,14
 21 506 21 506 96.5 506 c 128,-1,15
 172 506 172 506 172 440 c 2,16,-1
 172 0 l 1,17,-1
 137 0 l 1,18,-1
 137 2 l 1,19,20
 120 -5 120 -5 94 -5 c 0,21,22
 21 -5 21 -5 21 59 c 2,23,-1
 21 254 l 2,0,1
63 21 m 128,-1,25
 70 9 70 9 93 9 c 128,-1,26
 116 9 116 9 125.5 18 c 128,-1,27
 135 27 135 27 137 51 c 1,28,-1
 137 244 l 2,29,30
 137 276 137 276 130.5 288.5 c 128,-1,31
 124 301 124 301 99.5 301 c 128,-1,32
 75 301 75 301 65.5 290.5 c 128,-1,33
 56 280 56 280 56 251 c 2,34,-1
 56 62 l 2,35,24
 56 33 56 33 63 21 c 128,-1,25
73 650 m 1,36,-1
 107 540 l 1,37,-1
 91 540 l 1,38,-1
 54 650 l 1,39,-1
 73 650 l 1,36,-1
EndSplineSet
EndChar

StartChar: aacute
Encoding: 225 225 160
Width: 192
Flags: HW
LayerCount: 2
Fore
SplineSet
172 440 m 2,0,1
 172 506 172 506 96.5 506 c 128,-1,2
 21 506 21 506 21 443 c 2,3,-1
 21 376 l 1,4,-1
 56 376 l 1,5,-1
 56 439 l 2,6,7
 56 468 56 468 64.5 481.5 c 128,-1,8
 73 495 73 495 97 495 c 128,-1,9
 121 495 121 495 129 481.5 c 128,-1,10
 137 468 137 468 137 439 c 2,11,-1
 137 310 l 1,12,13
 120 316 120 316 99 316 c 0,14,15
 21 316 21 316 21 254 c 2,16,-1
 21 59 l 2,17,18
 21 -5 21 -5 94 -5 c 0,19,20
 120 -5 120 -5 137 2 c 1,21,-1
 137 0 l 1,22,-1
 172 0 l 1,23,-1
 172 440 l 2,0,1
125.5 18 m 128,-1,25
 116 9 116 9 93 9 c 128,-1,26
 70 9 70 9 63 21 c 128,-1,27
 56 33 56 33 56 62 c 2,28,-1
 56 251 l 2,29,30
 56 280 56 280 65.5 290.5 c 128,-1,31
 75 301 75 301 99.5 301 c 128,-1,32
 124 301 124 301 130.5 288.5 c 128,-1,33
 137 276 137 276 137 244 c 2,34,-1
 137 51 l 1,35,24
 135 27 135 27 125.5 18 c 128,-1,25
149 650 m 1,36,-1
 112 540 l 1,37,-1
 96 540 l 1,38,-1
 130 650 l 1,39,-1
 149 650 l 1,36,-1
EndSplineSet
EndChar

StartChar: acircumflex
Encoding: 226 226 161
Width: 192
Flags: HW
LayerCount: 2
Fore
SplineSet
21 254 m 2,0,1
 21 316 21 316 99 316 c 0,2,3
 120 316 120 316 137 310 c 1,4,-1
 137 439 l 2,5,6
 137 468 137 468 129 481.5 c 128,-1,7
 121 495 121 495 97 495 c 128,-1,8
 73 495 73 495 64.5 481.5 c 128,-1,9
 56 468 56 468 56 439 c 2,10,-1
 56 376 l 1,11,-1
 21 376 l 1,12,-1
 21 443 l 2,13,14
 21 506 21 506 96.5 506 c 128,-1,15
 172 506 172 506 172 440 c 2,16,-1
 172 0 l 1,17,-1
 137 0 l 1,18,-1
 137 2 l 1,19,20
 120 -5 120 -5 94 -5 c 0,21,22
 21 -5 21 -5 21 59 c 2,23,-1
 21 254 l 2,0,1
63 21 m 128,-1,25
 70 9 70 9 93 9 c 128,-1,26
 116 9 116 9 125.5 18 c 128,-1,27
 135 27 135 27 137 51 c 1,28,-1
 137 244 l 2,29,30
 137 276 137 276 130.5 288.5 c 128,-1,31
 124 301 124 301 99.5 301 c 128,-1,32
 75 301 75 301 65.5 290.5 c 128,-1,33
 56 280 56 280 56 251 c 2,34,-1
 56 62 l 2,35,24
 56 33 56 33 63 21 c 128,-1,25
36 540 m 1,36,-1
 96 643 l 1,37,-1
 156 540 l 1,38,-1
 144 540 l 1,39,-1
 96 615 l 1,40,-1
 48 540 l 1,41,-1
 36 540 l 1,36,-1
EndSplineSet
EndChar

StartChar: atilde
Encoding: 227 227 162
Width: 196
Flags: HW
LayerCount: 2
Fore
SplineSet
172 440 m 2,0,1
 172 506 172 506 96.5 506 c 128,-1,2
 21 506 21 506 21 443 c 2,3,-1
 21 376 l 1,4,-1
 56 376 l 1,5,-1
 56 439 l 2,6,7
 56 468 56 468 64.5 481.5 c 128,-1,8
 73 495 73 495 97 495 c 128,-1,9
 121 495 121 495 129 481.5 c 128,-1,10
 137 468 137 468 137 439 c 2,11,-1
 137 310 l 1,12,13
 120 316 120 316 99 316 c 0,14,15
 21 316 21 316 21 254 c 2,16,-1
 21 59 l 2,17,18
 21 -5 21 -5 94 -5 c 0,19,20
 120 -5 120 -5 137 2 c 1,21,-1
 137 0 l 1,22,-1
 172 0 l 1,23,-1
 172 440 l 2,0,1
125.5 18 m 128,-1,25
 116 9 116 9 93 9 c 128,-1,26
 70 9 70 9 63 21 c 128,-1,27
 56 33 56 33 56 62 c 2,28,-1
 56 251 l 2,29,30
 56 280 56 280 65.5 290.5 c 128,-1,31
 75 301 75 301 99.5 301 c 128,-1,32
 124 301 124 301 130.5 288.5 c 128,-1,33
 137 276 137 276 137 244 c 2,34,-1
 137 51 l 1,35,24
 135 27 135 27 125.5 18 c 128,-1,25
171 587 m 1,36,37
 167.636363636 550 167.636363636 550 130 550 c 0,38,39
 112.5 550 112.5 550 98.25 559.5 c 128,-1,40
 84 569 84 569 77 573.5 c 128,-1,41
 70 578 70 578 59 578 c 256,42,43
 39.6 578 39.6 578 34 564 c 0,44,45
 31 558 31 558 32 550 c 1,46,-1
 21 550 l 1,47,48
 21 568.6 21 568.6 32.5 577.8 c 128,-1,49
 44 587 44 587 58.5 587 c 128,-1,50
 73 587 73 587 81 582.5 c 128,-1,51
 89 578 89 578 96 573 c 0,52,53
 115.6 559 115.6 559 129 559 c 256,54,55
 147.6 559 147.6 559 156 573 c 0,56,57
 160 579 160 579 160 587 c 1,58,-1
 171 587 l 1,36,37
EndSplineSet
EndChar

StartChar: adieresis
Encoding: 228 228 163
Width: 192
Flags: HW
LayerCount: 2
Fore
SplineSet
172 440 m 2,0,1
 172 506 172 506 96.5 506 c 128,-1,2
 21 506 21 506 21 443 c 2,3,-1
 21 376 l 1,4,-1
 56 376 l 1,5,-1
 56 439 l 2,6,7
 56 468 56 468 64.5 481.5 c 128,-1,8
 73 495 73 495 97 495 c 128,-1,9
 121 495 121 495 129 481.5 c 128,-1,10
 137 468 137 468 137 439 c 2,11,-1
 137 310 l 1,12,13
 120 316 120 316 99 316 c 0,14,15
 21 316 21 316 21 254 c 2,16,-1
 21 59 l 2,17,18
 21 -5 21 -5 94 -5 c 0,19,20
 120 -5 120 -5 137 2 c 1,21,-1
 137 0 l 1,22,-1
 172 0 l 1,23,-1
 172 440 l 2,0,1
125.5 18 m 128,-1,25
 116 9 116 9 93 9 c 128,-1,26
 70 9 70 9 63 21 c 128,-1,27
 56 33 56 33 56 62 c 2,28,-1
 56 251 l 2,29,30
 56 280 56 280 65.5 290.5 c 128,-1,31
 75 301 75 301 99.5 301 c 128,-1,32
 124 301 124 301 130.5 288.5 c 128,-1,33
 137 276 137 276 137 244 c 2,34,-1
 137 51 l 1,35,24
 135 27 135 27 125.5 18 c 128,-1,25
30 540 m 1,36,-1
 28 620 l 1,37,-1
 55 620 l 1,38,-1
 53 540 l 1,39,-1
 30 540 l 1,36,-1
139 540 m 1,40,-1
 137 620 l 1,41,-1
 164 620 l 1,42,-1
 162 540 l 1,43,-1
 139 540 l 1,40,-1
EndSplineSet
EndChar

StartChar: aring
Encoding: 229 229 164
Width: 193
Flags: HW
LayerCount: 2
Fore
SplineSet
21 254 m 2,0,1
 21 316 21 316 99 316 c 0,2,3
 120 316 120 316 137 310 c 1,4,-1
 137 439 l 2,5,6
 137 468 137 468 129 481.5 c 128,-1,7
 121 495 121 495 97 495 c 128,-1,8
 73 495 73 495 64.5 481.5 c 128,-1,9
 56 468 56 468 56 439 c 2,10,-1
 56 376 l 1,11,-1
 21 376 l 1,12,-1
 21 443 l 2,13,14
 21 506 21 506 96.5 506 c 128,-1,15
 172 506 172 506 172 440 c 2,16,-1
 172 0 l 1,17,-1
 137 0 l 1,18,-1
 137 2 l 1,19,20
 120 -5 120 -5 94 -5 c 0,21,22
 21 -5 21 -5 21 59 c 2,23,-1
 21 254 l 2,0,1
63 21 m 128,-1,25
 70 9 70 9 93 9 c 128,-1,26
 116 9 116 9 125.5 18 c 128,-1,27
 135 27 135 27 137 51 c 1,28,-1
 137 244 l 2,29,30
 137 276 137 276 130.5 288.5 c 128,-1,31
 124 301 124 301 99.5 301 c 128,-1,32
 75 301 75 301 65.5 290.5 c 128,-1,33
 56 280 56 280 56 251 c 2,34,-1
 56 62 l 2,35,24
 56 33 56 33 63 21 c 128,-1,25
38 604 m 256,36,37
 38 631 38 631 56 649 c 128,-1,38
 74 667 74 667 101 667 c 256,39,40
 128 667 128 667 146 649 c 128,-1,41
 164 631 164 631 164 604 c 256,42,43
 164 577 164 577 146 559 c 128,-1,44
 128 541 128 541 101 541 c 256,45,46
 74 541 74 541 56 559 c 128,-1,47
 38 577 38 577 38 604 c 256,36,37
53 604 m 256,48,49
 53 584 53 584 66.5 570 c 128,-1,50
 80 556 80 556 100 556 c 256,51,52
 120 556 120 556 134 570 c 128,-1,53
 148 584 148 584 148 604 c 256,54,55
 148 624 148 624 134 638 c 128,-1,56
 120 652 120 652 100 652 c 256,57,58
 80 652 80 652 66.5 638 c 128,-1,59
 53 624 53 624 53 604 c 256,48,49
EndSplineSet
EndChar

StartChar: ae
Encoding: 230 230 165
Width: 309
Flags: HW
LayerCount: 2
Fore
SplineSet
21 443 m 2,0,1
 21 506 21 506 98 506 c 0,2,3
 134 506 134 506 154 488 c 1,4,5
 172 506 172 506 215 506 c 0,6,7
 288 506 288 506 288 442 c 2,8,-1
 288 246 l 1,9,10
 286.151515152 185 286.151515152 185 210 185 c 0,11,12
 187 185 187 185 172 191 c 1,13,-1
 172 53 l 1,14,15
 173 28 173 28 181.5 17 c 128,-1,16
 190 6 190 6 213 6 c 128,-1,17
 236 6 236 6 244.5 19.5 c 128,-1,18
 253 33 253 33 253 62 c 2,19,-1
 253 130 l 1,20,-1
 288 130 l 1,21,-1
 288 58 l 2,22,23
 288 -5 288 -5 211 -5 c 256,24,25
 174 -5 174 -5 155 12 c 1,26,27
 136.111111111 -5 136.111111111 -5 94 -5 c 0,28,29
 21 -5 21 -5 21 59 c 2,30,-1
 21 254 l 2,31,32
 21 316 21 316 99 316 c 0,33,34
 120 316 120 316 137 310 c 1,35,-1
 137 443 l 1,36,37
 136 470 136 470 127.5 482.5 c 128,-1,38
 119 495 119 495 96 495 c 128,-1,39
 73 495 73 495 64.5 481.5 c 128,-1,40
 56 468 56 468 56 439 c 2,41,-1
 56 376 l 1,42,-1
 21 376 l 1,43,-1
 21 443 l 2,0,1
137 247 m 2,44,45
 137 278 137 278 130 289.5 c 128,-1,46
 123 301 123 301 99 301 c 256,47,48
 75 301 75 301 65.5 290.5 c 128,-1,49
 56 280 56 280 56 251 c 2,50,-1
 56 62 l 2,51,52
 56 33 56 33 63 21 c 128,-1,53
 70 9 70 9 93.5 9 c 128,-1,54
 117 9 117 9 126.5 18.5 c 128,-1,55
 136 28 136 28 137 54 c 1,56,-1
 137 247 l 2,44,45
172 242 m 1,57,58
 173 219 173 219 180.5 209.5 c 128,-1,59
 188 200 188 200 211 200 c 128,-1,60
 234 200 234 200 243.5 210.5 c 128,-1,61
 253 221 253 221 253 250 c 2,62,-1
 253 439 l 2,63,64
 253 468 253 468 246 480 c 128,-1,65
 239 492 239 492 215.5 492 c 128,-1,66
 192 492 192 492 182 481.5 c 128,-1,67
 172 471 172 471 172 444 c 2,68,-1
 172 242 l 1,57,58
EndSplineSet
EndChar

StartChar: ccedilla
Encoding: 231 231 166
Width: 194
Flags: HW
LayerCount: 2
Fore
SplineSet
23 443 m 2,0,1
 23 506 23 506 98.5 506 c 128,-1,2
 174 506 174 506 174 440 c 2,3,-1
 174 376 l 1,4,-1
 139 376 l 1,5,-1
 139 439 l 2,6,7
 139 468 139 468 131 481.5 c 128,-1,8
 123 495 123 495 99 495 c 128,-1,9
 75 495 75 495 66.5 481.5 c 128,-1,10
 58 468 58 468 58 439 c 2,11,-1
 58 62 l 2,12,13
 58 33 58 33 66 19.5 c 128,-1,14
 74 6 74 6 98 6 c 128,-1,15
 122 6 122 6 130.5 19.5 c 128,-1,16
 139 33 139 33 139 62 c 2,17,-1
 139 130 l 1,18,-1
 174 130 l 1,19,-1
 174 58 l 2,20,21
 174 3 174 3 117 -3 c 1,22,-1
 117 -137 l 2,23,24
 117 -167 117 -167 99.5 -183.5 c 128,-1,25
 82 -200 82 -200 57.5 -200 c 128,-1,26
 33 -200 33 -200 22 -196 c 1,27,-1
 27 -185 l 1,28,29
 36 -188 36 -188 48 -188 c 0,30,31
 82 -188 82 -188 82 -133 c 2,32,-1
 82 -4 l 1,33,34
 23 2 23 2 23 61 c 2,35,-1
 23 443 l 2,0,1
EndSplineSet
EndChar

StartChar: egrave
Encoding: 232 232 167
Width: 192
Flags: HW
LayerCount: 2
Fore
SplineSet
20 444 m 2,0,1
 20 506 20 506 95.5 506 c 128,-1,2
 171 506 171 506 171 442 c 2,3,-1
 171 246 l 1,4,5
 170 213 170 213 150 199 c 128,-1,6
 130 185 130 185 100 185 c 128,-1,7
 70 185 70 185 55 191 c 1,8,-1
 55 62 l 2,9,10
 55 33 55 33 63 19.5 c 128,-1,11
 71 6 71 6 95 6 c 128,-1,12
 119 6 119 6 127.5 19.5 c 128,-1,13
 136 33 136 33 136 62 c 2,14,-1
 136 130 l 1,15,-1
 171 130 l 1,16,-1
 171 58 l 2,17,18
 171 -5 171 -5 95.5 -5 c 128,-1,19
 20 -5 20 -5 20 61 c 2,20,-1
 20 444 l 2,0,1
55 253 m 2,21,22
 55 222 55 222 61.5 211 c 128,-1,23
 68 200 68 200 92.5 200 c 128,-1,24
 117 200 117 200 126.5 210.5 c 128,-1,25
 136 221 136 221 136 250 c 2,26,-1
 136 439 l 2,27,28
 136 468 136 468 129 480 c 128,-1,29
 122 492 122 492 98 492 c 256,30,31
 74 492 74 492 64.5 481 c 128,-1,32
 55 470 55 470 55 441 c 2,33,-1
 55 253 l 2,21,22
73 650 m 1,34,-1
 107 540 l 1,35,-1
 91 540 l 1,36,-1
 54 650 l 1,37,-1
 73 650 l 1,34,-1
EndSplineSet
EndChar

StartChar: eacute
Encoding: 233 233 168
Width: 192
Flags: HW
LayerCount: 2
Fore
SplineSet
20 61 m 2,0,1
 20 -5 20 -5 95.5 -5 c 128,-1,2
 171 -5 171 -5 171 58 c 2,3,-1
 171 130 l 1,4,-1
 136 130 l 1,5,-1
 136 62 l 2,6,7
 136 33 136 33 127.5 19.5 c 128,-1,8
 119 6 119 6 95 6 c 128,-1,9
 71 6 71 6 63 19.5 c 128,-1,10
 55 33 55 33 55 62 c 2,11,-1
 55 191 l 1,12,13
 70 185 70 185 100 185 c 0,14,15
 169.151515152 185 169.151515152 185 171 246 c 1,16,-1
 171 442 l 2,17,18
 171 506 171 506 95.5 506 c 128,-1,19
 20 506 20 506 20 444 c 2,20,-1
 20 61 l 2,0,1
55 441 m 2,21,22
 55 470 55 470 64.5 481 c 128,-1,23
 74 492 74 492 98 492 c 256,24,25
 122 492 122 492 129 480 c 128,-1,26
 136 468 136 468 136 439 c 2,27,-1
 136 250 l 2,28,29
 136 221 136 221 126.5 210.5 c 128,-1,30
 117 200 117 200 92.5 200 c 128,-1,31
 68 200 68 200 61.5 211 c 128,-1,32
 55 222 55 222 55 253 c 2,33,-1
 55 441 l 2,21,22
144 650 m 1,34,-1
 107 540 l 1,35,-1
 91 540 l 1,36,-1
 125 650 l 1,37,-1
 144 650 l 1,34,-1
EndSplineSet
EndChar

StartChar: ecircumflex
Encoding: 234 234 169
Width: 192
Flags: HW
LayerCount: 2
Fore
SplineSet
20 444 m 2,0,1
 20 506 20 506 95.5 506 c 128,-1,2
 171 506 171 506 171 442 c 2,3,-1
 171 246 l 1,4,5
 170 213 170 213 150 199 c 128,-1,6
 130 185 130 185 100 185 c 128,-1,7
 70 185 70 185 55 191 c 1,8,-1
 55 62 l 2,9,10
 55 33 55 33 63 19.5 c 128,-1,11
 71 6 71 6 95 6 c 128,-1,12
 119 6 119 6 127.5 19.5 c 128,-1,13
 136 33 136 33 136 62 c 2,14,-1
 136 130 l 1,15,-1
 171 130 l 1,16,-1
 171 58 l 2,17,18
 171 -5 171 -5 95.5 -5 c 128,-1,19
 20 -5 20 -5 20 61 c 2,20,-1
 20 444 l 2,0,1
55 253 m 2,21,22
 55 222 55 222 61.5 211 c 128,-1,23
 68 200 68 200 92.5 200 c 128,-1,24
 117 200 117 200 126.5 210.5 c 128,-1,25
 136 221 136 221 136 250 c 2,26,-1
 136 439 l 2,27,28
 136 468 136 468 129 480 c 128,-1,29
 122 492 122 492 98 492 c 256,30,31
 74 492 74 492 64.5 481 c 128,-1,32
 55 470 55 470 55 441 c 2,33,-1
 55 253 l 2,21,22
36 540 m 1,34,-1
 96 643 l 1,35,-1
 156 540 l 1,36,-1
 144 540 l 1,37,-1
 96 615 l 1,38,-1
 48 540 l 1,39,-1
 36 540 l 1,34,-1
EndSplineSet
EndChar

StartChar: edieresis
Encoding: 235 235 170
Width: 192
Flags: HW
LayerCount: 2
Fore
SplineSet
20 61 m 2,0,1
 20 -5 20 -5 95.5 -5 c 128,-1,2
 171 -5 171 -5 171 58 c 2,3,-1
 171 130 l 1,4,-1
 136 130 l 1,5,-1
 136 62 l 2,6,7
 136 33 136 33 127.5 19.5 c 128,-1,8
 119 6 119 6 95 6 c 128,-1,9
 71 6 71 6 63 19.5 c 128,-1,10
 55 33 55 33 55 62 c 2,11,-1
 55 191 l 1,12,13
 70 185 70 185 100 185 c 0,14,15
 169.151515152 185 169.151515152 185 171 246 c 1,16,-1
 171 442 l 2,17,18
 171 506 171 506 95.5 506 c 128,-1,19
 20 506 20 506 20 444 c 2,20,-1
 20 61 l 2,0,1
55 441 m 2,21,22
 55 470 55 470 64.5 481 c 128,-1,23
 74 492 74 492 98 492 c 256,24,25
 122 492 122 492 129 480 c 128,-1,26
 136 468 136 468 136 439 c 2,27,-1
 136 250 l 2,28,29
 136 221 136 221 126.5 210.5 c 128,-1,30
 117 200 117 200 92.5 200 c 128,-1,31
 68 200 68 200 61.5 211 c 128,-1,32
 55 222 55 222 55 253 c 2,33,-1
 55 441 l 2,21,22
30 540 m 1,34,-1
 28 620 l 1,35,-1
 55 620 l 1,36,-1
 53 540 l 1,37,-1
 30 540 l 1,34,-1
139 540 m 1,38,-1
 137 620 l 1,39,-1
 164 620 l 1,40,-1
 162 540 l 1,41,-1
 139 540 l 1,38,-1
EndSplineSet
EndChar

StartChar: igrave
Encoding: 236 236 171
Width: 76
Flags: HW
LayerCount: 2
Fore
SplineSet
20 0 m 1,0,-1
 20 500 l 1,1,-1
 55 500 l 1,2,-1
 55 0 l 1,3,-1
 20 0 l 1,0,-1
9 650 m 1,4,-1
 43 540 l 1,5,-1
 27 540 l 1,6,-1
 -10 650 l 1,7,-1
 9 650 l 1,4,-1
EndSplineSet
EndChar

StartChar: iacute
Encoding: 237 237 172
Width: 76
Flags: HW
LayerCount: 2
Fore
SplineSet
20 0 m 1,0,-1
 20 500 l 1,1,-1
 55 500 l 1,2,-1
 55 0 l 1,3,-1
 20 0 l 1,0,-1
84 650 m 1,4,-1
 47 540 l 1,5,-1
 31 540 l 1,6,-1
 65 650 l 1,7,-1
 84 650 l 1,4,-1
EndSplineSet
EndChar

StartChar: icircumflex
Encoding: 238 238 173
Width: 122
Flags: HW
LayerCount: 2
Fore
SplineSet
43 0 m 1,0,-1
 43 500 l 1,1,-1
 78 500 l 1,2,-1
 78 0 l 1,3,-1
 43 0 l 1,0,-1
1 540 m 1,4,-1
 61 643 l 1,5,-1
 121 540 l 1,6,-1
 109 540 l 1,7,-1
 61 615 l 1,8,-1
 13 540 l 1,9,-1
 1 540 l 1,4,-1
EndSplineSet
EndChar

StartChar: idieresis
Encoding: 239 239 174
Width: 140
Flags: HW
LayerCount: 2
Fore
SplineSet
50 0 m 1,0,-1
 50 500 l 1,1,-1
 85 500 l 1,2,-1
 85 0 l 1,3,-1
 50 0 l 1,0,-1
4 540 m 1,4,-1
 2 620 l 1,5,-1
 29 620 l 1,6,-1
 27 540 l 1,7,-1
 4 540 l 1,4,-1
113 540 m 1,8,-1
 111 620 l 1,9,-1
 138 620 l 1,10,-1
 136 540 l 1,11,-1
 113 540 l 1,8,-1
EndSplineSet
EndChar

StartChar: eth
Encoding: 240 240 175
Width: 197
Flags: HW
LayerCount: 2
Fore
SplineSet
171 57 m 2,0,1
 171 -5 171 -5 95.5 -5 c 128,-1,2
 20 -5 20 -5 20 59 c 2,3,-1
 20 444 l 2,4,5
 20 508 20 508 93 508 c 0,6,7
 119 508 119 508 136 501 c 1,8,-1
 136 683 l 2,9,10
 136 693 136 693 135 697 c 1,11,-1
 86 654 l 1,12,-1
 78 662 l 1,13,-1
 133 710 l 1,14,15
 127 739 127 739 94 739 c 1,16,-1
 94 750 l 1,17,18
 137 750 137 750 155 730 c 1,19,-1
 181 752 l 1,20,-1
 188 744 l 1,21,-1
 162 721 l 1,22,23
 171 707 171 707 171 687 c 2,24,-1
 171 57 l 2,0,1
93 9 m 256,25,26
 117 9 117 9 126.5 20 c 128,-1,27
 136 31 136 31 136 60 c 2,28,-1
 136 443 l 2,29,30
 136 472 136 472 126.5 482.5 c 128,-1,31
 117 493 117 493 93 493 c 256,32,33
 69 493 69 493 62 481.5 c 128,-1,34
 55 470 55 470 55 440 c 2,35,-1
 55 62 l 2,36,37
 55 33 55 33 62 21 c 128,-1,38
 69 9 69 9 93 9 c 256,25,26
EndSplineSet
EndChar

StartChar: ntilde
Encoding: 241 241 176
Width: 197
Flags: HW
LayerCount: 2
Fore
SplineSet
136 0 m 1,0,-1
 136 440 l 2,1,2
 136 470 136 470 129 481.5 c 128,-1,3
 122 493 122 493 97.5 493 c 128,-1,4
 73 493 73 493 64 483 c 128,-1,5
 55 473 55 473 55 443 c 2,6,-1
 55 0 l 1,7,-1
 20 0 l 1,8,-1
 20 500 l 1,9,-1
 50 500 l 1,10,-1
 50 499 l 1,11,12
 69 508 69 508 98 508 c 0,13,14
 171 508 171 508 171 445 c 2,15,-1
 171 0 l 1,16,-1
 136 0 l 1,0,-1
175 587 m 1,17,18
 171.636363636 550 171.636363636 550 134 550 c 0,19,20
 116.5 550 116.5 550 102.25 559.5 c 128,-1,21
 88 569 88 569 81 573.5 c 128,-1,22
 74 578 74 578 63 578 c 256,23,24
 35 578 35 578 35 550 c 1,25,-1
 25 550 l 1,26,27
 25 568.6 25 568.6 36.5 577.8 c 128,-1,28
 48 587 48 587 62.5 587 c 128,-1,29
 77 587 77 587 85 582.5 c 128,-1,30
 93 578 93 578 100 573 c 0,31,32
 119.6 559 119.6 559 133 559 c 256,33,34
 151.6 559 151.6 559 160 573 c 0,35,36
 164 579 164 579 164 587 c 1,37,-1
 175 587 l 1,17,18
EndSplineSet
EndChar

StartChar: ograve
Encoding: 242 242 177
Width: 192
Flags: HW
LayerCount: 2
Fore
SplineSet
171 57 m 2,0,1
 171 -5 171 -5 95.5 -5 c 128,-1,2
 20 -5 20 -5 20 59 c 2,3,-1
 20 446 l 2,4,5
 20 508 20 508 95.5 508 c 128,-1,6
 171 508 171 508 171 444 c 2,7,-1
 171 57 l 2,0,1
136 440 m 2,8,9
 136 470 136 470 129 481.5 c 128,-1,10
 122 493 122 493 98 493 c 256,11,12
 74 493 74 493 64.5 482.5 c 128,-1,13
 55 472 55 472 55 443 c 2,14,-1
 55 62 l 2,15,16
 55 33 55 33 62 21 c 128,-1,17
 69 9 69 9 93 9 c 256,18,19
 117 9 117 9 126.5 20 c 128,-1,20
 136 31 136 31 136 60 c 2,21,-1
 136 440 l 2,8,9
71 650 m 1,22,-1
 105 540 l 1,23,-1
 89 540 l 1,24,-1
 52 650 l 1,25,-1
 71 650 l 1,22,-1
EndSplineSet
EndChar

StartChar: oacute
Encoding: 243 243 178
Width: 192
Flags: HW
LayerCount: 2
Fore
SplineSet
171 444 m 2,0,1
 171 508 171 508 95.5 508 c 128,-1,2
 20 508 20 508 20 446 c 2,3,-1
 20 59 l 2,4,5
 20 -5 20 -5 95.5 -5 c 128,-1,6
 171 -5 171 -5 171 57 c 2,7,-1
 171 444 l 2,0,1
136 60 m 2,8,9
 136 31 136 31 126.5 20 c 128,-1,10
 117 9 117 9 93 9 c 256,11,12
 69 9 69 9 62 21 c 128,-1,13
 55 33 55 33 55 62 c 2,14,-1
 55 443 l 2,15,16
 55 472 55 472 64.5 482.5 c 128,-1,17
 74 493 74 493 98 493 c 256,18,19
 122 493 122 493 129 481.5 c 128,-1,20
 136 470 136 470 136 440 c 2,21,-1
 136 60 l 2,8,9
143 650 m 1,22,-1
 106 540 l 1,23,-1
 90 540 l 1,24,-1
 124 650 l 1,25,-1
 143 650 l 1,22,-1
EndSplineSet
EndChar

StartChar: ocircumflex
Encoding: 244 244 179
Width: 192
Flags: HW
LayerCount: 2
Fore
SplineSet
171 57 m 2,0,1
 171 -5 171 -5 95.5 -5 c 128,-1,2
 20 -5 20 -5 20 59 c 2,3,-1
 20 446 l 2,4,5
 20 508 20 508 95.5 508 c 128,-1,6
 171 508 171 508 171 444 c 2,7,-1
 171 57 l 2,0,1
136 440 m 2,8,9
 136 470 136 470 129 481.5 c 128,-1,10
 122 493 122 493 98 493 c 256,11,12
 74 493 74 493 64.5 482.5 c 128,-1,13
 55 472 55 472 55 443 c 2,14,-1
 55 62 l 2,15,16
 55 33 55 33 62 21 c 128,-1,17
 69 9 69 9 93 9 c 256,18,19
 117 9 117 9 126.5 20 c 128,-1,20
 136 31 136 31 136 60 c 2,21,-1
 136 440 l 2,8,9
36 540 m 1,22,-1
 96 643 l 1,23,-1
 156 540 l 1,24,-1
 144 540 l 1,25,-1
 96 615 l 1,26,-1
 48 540 l 1,27,-1
 36 540 l 1,22,-1
EndSplineSet
EndChar

StartChar: otilde
Encoding: 245 245 180
Width: 196
Flags: HW
LayerCount: 2
Fore
SplineSet
171 444 m 2,0,1
 171 508 171 508 95.5 508 c 128,-1,2
 20 508 20 508 20 446 c 2,3,-1
 20 59 l 2,4,5
 20 -5 20 -5 95.5 -5 c 128,-1,6
 171 -5 171 -5 171 57 c 2,7,-1
 171 444 l 2,0,1
136 60 m 2,8,9
 136 31 136 31 126.5 20 c 128,-1,10
 117 9 117 9 93 9 c 256,11,12
 69 9 69 9 62 21 c 128,-1,13
 55 33 55 33 55 62 c 2,14,-1
 55 443 l 2,15,16
 55 472 55 472 64.5 482.5 c 128,-1,17
 74 493 74 493 98 493 c 256,18,19
 122 493 122 493 129 481.5 c 128,-1,20
 136 470 136 470 136 440 c 2,21,-1
 136 60 l 2,8,9
172 587 m 1,22,23
 168.636363636 550 168.636363636 550 130 550 c 0,24,25
 111.6 550 111.6 550 98.3 559.5 c 128,-1,26
 85 569 85 569 78 573.5 c 128,-1,27
 71 578 71 578 60 578 c 256,28,29
 32 578 32 578 32 550 c 1,30,-1
 22 550 l 1,31,32
 22 569.75 22 569.75 33.5 578.375 c 128,-1,33
 45 587 45 587 59 587 c 128,-1,34
 73 587 73 587 81 582.5 c 128,-1,35
 89 578 89 578 96 573 c 0,36,37
 115.6 559 115.6 559 128.3 559 c 0,38,39
 147.6 559 147.6 559 156 573 c 0,40,41
 160 579 160 579 160 587 c 1,42,-1
 172 587 l 1,22,23
EndSplineSet
EndChar

StartChar: odieresis
Encoding: 246 246 181
Width: 192
Flags: HW
LayerCount: 2
Fore
SplineSet
171 444 m 2,0,1
 171 508 171 508 95.5 508 c 128,-1,2
 20 508 20 508 20 446 c 2,3,-1
 20 59 l 2,4,5
 20 -5 20 -5 95.5 -5 c 128,-1,6
 171 -5 171 -5 171 57 c 2,7,-1
 171 444 l 2,0,1
136 60 m 2,8,9
 136 31 136 31 126.5 20 c 128,-1,10
 117 9 117 9 93 9 c 256,11,12
 69 9 69 9 62 21 c 128,-1,13
 55 33 55 33 55 62 c 2,14,-1
 55 443 l 2,15,16
 55 472 55 472 64.5 482.5 c 128,-1,17
 74 493 74 493 98 493 c 256,18,19
 122 493 122 493 129 481.5 c 128,-1,20
 136 470 136 470 136 440 c 2,21,-1
 136 60 l 2,8,9
30 540 m 1,22,-1
 28 620 l 1,23,-1
 55 620 l 1,24,-1
 53 540 l 1,25,-1
 30 540 l 1,22,-1
139 540 m 1,26,-1
 137 620 l 1,27,-1
 164 620 l 1,28,-1
 162 540 l 1,29,-1
 139 540 l 1,26,-1
EndSplineSet
EndChar

StartChar: divide
Encoding: 247 247 182
Width: 301
Flags: HW
LayerCount: 2
Fore
SplineSet
20 301 m 1,0,-1
 280 301 l 1,1,-1
 280 316 l 1,2,-1
 20 316 l 1,3,-1
 20 301 l 1,0,-1
128 147 m 1,4,-1
 128 211 l 1,5,-1
 163 211 l 1,6,-1
 163 147 l 1,7,-1
 128 147 l 1,4,-1
128 400 m 1,8,-1
 128 464 l 1,9,-1
 163 464 l 1,10,-1
 163 400 l 1,11,-1
 128 400 l 1,8,-1
EndSplineSet
EndChar

StartChar: oslash
Encoding: 248 248 183
Width: 203
Flags: HW
LayerCount: 2
Fore
SplineSet
26 446 m 2,0,1
 26 508 26 508 104 508 c 0,2,3
 152 508 152 508 168 477 c 1,4,-1
 176 500 l 1,5,-1
 191 500 l 1,6,-1
 179 464 l 1,7,-1
 179 445 l 1,8,-1
 177 421 l 1,9,-1
 177 57 l 2,10,11
 177 23 177 23 157 9 c 128,-1,12
 137 -5 137 -5 93 -5 c 128,-1,13
 49 -5 49 -5 36 25 c 1,14,-1
 27 0 l 1,15,-1
 12 0 l 1,16,-1
 24 36 l 1,17,18
 22 47 22 47 24 59 c 1,19,-1
 26 102 l 1,20,-1
 26 446 l 2,0,1
61 149 m 1,21,-1
 142 396 l 1,22,-1
 142 440 l 2,23,24
 142 470 142 470 135 481.5 c 128,-1,25
 128 493 128 493 104 493 c 256,26,27
 80 493 80 493 70.5 482.5 c 128,-1,28
 61 472 61 472 61 443 c 2,29,-1
 61 149 l 1,21,-1
142 350 m 1,30,-1
 61 103 l 1,31,-1
 61 62 l 2,32,33
 61 33 61 33 68 21 c 128,-1,34
 75 9 75 9 99 9 c 256,35,36
 123 9 123 9 132.5 20 c 128,-1,37
 142 31 142 31 142 60 c 2,38,-1
 142 350 l 1,30,-1
EndSplineSet
EndChar

StartChar: ugrave
Encoding: 249 249 184
Width: 192
Flags: HW
LayerCount: 2
Fore
SplineSet
171 500 m 1,0,-1
 171 0 l 1,1,-1
 141 0 l 1,2,-1
 141 1 l 1,3,4
 121 -8 121 -8 93 -8 c 0,5,6
 20 -8 20 -8 20 56 c 2,7,-1
 20 500 l 1,8,-1
 55 500 l 1,9,-1
 55 60 l 2,10,11
 55 30 55 30 62 18.5 c 128,-1,12
 69 7 69 7 92 7 c 0,13,14
 115 7 115 7 124.5 15.5 c 128,-1,15
 134 24 134 24 136 48 c 1,16,-1
 136 500 l 1,17,-1
 171 500 l 1,0,-1
73 650 m 1,18,-1
 107 540 l 1,19,-1
 91 540 l 1,20,-1
 54 650 l 1,21,-1
 73 650 l 1,18,-1
EndSplineSet
EndChar

StartChar: uacute
Encoding: 250 250 185
Width: 192
Flags: HW
LayerCount: 2
Fore
SplineSet
171 500 m 1,0,-1
 171 0 l 1,1,-1
 141 0 l 1,2,-1
 141 1 l 1,3,4
 121 -8 121 -8 93 -8 c 0,5,6
 20 -8 20 -8 20 56 c 2,7,-1
 20 500 l 1,8,-1
 55 500 l 1,9,-1
 55 60 l 2,10,11
 55 30 55 30 62 18.5 c 128,-1,12
 69 7 69 7 92 7 c 0,13,14
 115 7 115 7 124.5 15.5 c 128,-1,15
 134 24 134 24 136 48 c 1,16,-1
 136 500 l 1,17,-1
 171 500 l 1,0,-1
144 650 m 1,18,-1
 107 540 l 1,19,-1
 91 540 l 1,20,-1
 125 650 l 1,21,-1
 144 650 l 1,18,-1
EndSplineSet
EndChar

StartChar: ucircumflex
Encoding: 251 251 186
Width: 192
Flags: HW
LayerCount: 2
Fore
SplineSet
171 500 m 1,0,-1
 171 0 l 1,1,-1
 141 0 l 1,2,-1
 141 1 l 1,3,4
 121 -8 121 -8 93 -8 c 0,5,6
 20 -8 20 -8 20 56 c 2,7,-1
 20 500 l 1,8,-1
 55 500 l 1,9,-1
 55 60 l 2,10,11
 55 30 55 30 62 18.5 c 128,-1,12
 69 7 69 7 92 7 c 0,13,14
 115 7 115 7 124.5 15.5 c 128,-1,15
 134 24 134 24 136 48 c 1,16,-1
 136 500 l 1,17,-1
 171 500 l 1,0,-1
36 540 m 1,18,-1
 96 643 l 1,19,-1
 156 540 l 1,20,-1
 144 540 l 1,21,-1
 96 615 l 1,22,-1
 48 540 l 1,23,-1
 36 540 l 1,18,-1
EndSplineSet
EndChar

StartChar: udieresis
Encoding: 252 252 187
Width: 192
Flags: HW
LayerCount: 2
Fore
SplineSet
171 500 m 1,0,-1
 171 0 l 1,1,-1
 141 0 l 1,2,-1
 141 1 l 1,3,4
 121 -8 121 -8 93 -8 c 0,5,6
 20 -8 20 -8 20 56 c 2,7,-1
 20 500 l 1,8,-1
 55 500 l 1,9,-1
 55 60 l 2,10,11
 55 30 55 30 62 18.5 c 128,-1,12
 69 7 69 7 92 7 c 0,13,14
 115 7 115 7 124.5 15.5 c 128,-1,15
 134 24 134 24 136 48 c 1,16,-1
 136 500 l 1,17,-1
 171 500 l 1,0,-1
139 540 m 1,18,-1
 137 620 l 1,19,-1
 164 620 l 1,20,-1
 162 540 l 1,21,-1
 139 540 l 1,18,-1
30 540 m 1,22,-1
 28 620 l 1,23,-1
 55 620 l 1,24,-1
 53 540 l 1,25,-1
 30 540 l 1,22,-1
EndSplineSet
EndChar

StartChar: yacute
Encoding: 253 253 188
Width: 211
Flags: HW
LayerCount: 2
Fore
SplineSet
34 -189 m 0,0,1
 26 -189 26 -189 18 -187 c 1,2,-1
 14 -198 l 1,3,4
 19 -200 19 -200 24.5 -200 c 2,5,-1
 37 -200 l 2,6,7
 82.3333333333 -200 82.3333333333 -200 93 -136 c 2,8,-1
 190 500 l 1,9,-1
 175 500 l 1,10,-1
 116 115 l 1,11,-1
 56 500 l 1,12,-1
 21 500 l 1,13,-1
 99 1 l 1,14,-1
 78 -136 l 2,15,16
 75 -156 75 -156 66.5 -172.5 c 128,-1,17
 58 -189 58 -189 34 -189 c 0,0,1
155 650 m 1,18,-1
 118 540 l 1,19,-1
 102 540 l 1,20,-1
 136 650 l 1,21,-1
 155 650 l 1,18,-1
EndSplineSet
EndChar

StartChar: thorn
Encoding: 254 254 189
Width: 193
Flags: HW
LayerCount: 2
Fore
SplineSet
171 57 m 2,0,1
 171 -5 171 -5 93 -5 c 0,2,3
 70 -5 70 -5 55 1 c 1,4,-1
 55 -200 l 1,5,-1
 20 -200 l 1,6,-1
 20 750 l 1,7,-1
 55 750 l 1,8,-1
 55 501 l 1,9,10
 72 508 72 508 98 508 c 0,11,12
 171 508 171 508 171 444 c 2,13,-1
 171 57 l 2,0,1
136 440 m 2,14,15
 136 470 136 470 129 481.5 c 128,-1,16
 122 493 122 493 98 493 c 256,17,18
 74 493 74 493 64.5 482.5 c 128,-1,19
 55 472 55 472 55 443 c 2,20,-1
 55 53 l 1,21,22
 56 29 56 29 63 19 c 128,-1,23
 70 9 70 9 93.5 9 c 128,-1,24
 117 9 117 9 126.5 20 c 128,-1,25
 136 31 136 31 136 60 c 2,26,-1
 136 440 l 2,14,15
EndSplineSet
EndChar

StartChar: ydieresis
Encoding: 255 255 190
Width: 211
Flags: HW
LayerCount: 2
Fore
SplineSet
34 -189 m 0,0,1
 26 -189 26 -189 18 -187 c 1,2,-1
 14 -198 l 1,3,4
 19 -200 19 -200 24.5 -200 c 2,5,-1
 37 -200 l 2,6,7
 82.3333333333 -200 82.3333333333 -200 93 -136 c 2,8,-1
 190 500 l 1,9,-1
 175 500 l 1,10,-1
 116 115 l 1,11,-1
 56 500 l 1,12,-1
 21 500 l 1,13,-1
 99 1 l 1,14,-1
 78 -136 l 2,15,16
 75 -156 75 -156 66.5 -172.5 c 128,-1,17
 58 -189 58 -189 34 -189 c 0,0,1
46 540 m 1,18,-1
 44 620 l 1,19,-1
 71 620 l 1,20,-1
 69 540 l 1,21,-1
 46 540 l 1,18,-1
155 540 m 1,22,-1
 153 620 l 1,23,-1
 180 620 l 1,24,-1
 178 540 l 1,25,-1
 155 540 l 1,22,-1
EndSplineSet
EndChar

StartChar: OE
Encoding: 338 338 191
Width: 313
Flags: HW
LayerCount: 2
Fore
SplineSet
20 644 m 2,0,1
 20 706 20 706 98 706 c 0,2,3
 121 706 121 706 138 700 c 1,4,-1
 291 700 l 1,5,-1
 291 685 l 1,6,-1
 171 685 l 1,7,-1
 171 381 l 1,8,-1
 271 381 l 1,9,-1
 271 366 l 1,10,-1
 171 366 l 1,11,-1
 171 15 l 1,12,-1
 291 15 l 1,13,-1
 291 0 l 1,14,-1
 136 0 l 1,15,-1
 136 1 l 1,16,17
 118 -5 118 -5 93 -5 c 0,18,19
 20 -5 20 -5 20 59 c 2,20,-1
 20 644 l 2,0,1
62 21 m 128,-1,22
 69 9 69 9 92 9 c 128,-1,23
 115 9 115 9 124.5 18 c 128,-1,24
 134 27 134 27 136 51 c 1,25,-1
 136 649 l 1,26,27
 134 672 134 672 127 681.5 c 128,-1,28
 120 691 120 691 97 691 c 128,-1,29
 74 691 74 691 64.5 680.5 c 128,-1,30
 55 670 55 670 55 641 c 2,31,-1
 55 62 l 2,32,21
 55 33 55 33 62 21 c 128,-1,22
EndSplineSet
EndChar

StartChar: oe
Encoding: 339 339 192
Width: 308
Flags: HW
LayerCount: 2
Fore
SplineSet
20 446 m 2,0,1
 20 508 20 508 98 508 c 0,2,3
 137 508 137 508 155 490 c 1,4,5
 174 506 174 506 214 506 c 0,6,7
 287 506 287 506 287 442 c 2,8,-1
 287 246 l 1,9,10
 286 213 286 213 266 199 c 128,-1,11
 246 185 246 185 216 185 c 128,-1,12
 186 185 186 185 171 191 c 1,13,-1
 171 62 l 2,14,15
 171 33 171 33 179 19.5 c 128,-1,16
 187 6 187 6 211 6 c 128,-1,17
 235 6 235 6 243.5 19.5 c 128,-1,18
 252 33 252 33 252 62 c 2,19,-1
 252 130 l 1,20,-1
 287 130 l 1,21,-1
 287 58 l 2,22,23
 287 -5 287 -5 210 -5 c 0,24,25
 173 -5 173 -5 154 12 c 1,26,27
 136 -5 136 -5 93 -5 c 0,28,29
 20 -5 20 -5 20 59 c 2,30,-1
 20 446 l 2,0,1
136 450 m 1,31,32
 134 474 134 474 127 483.5 c 128,-1,33
 120 493 120 493 96.5 493 c 128,-1,34
 73 493 73 493 64 482.5 c 128,-1,35
 55 472 55 472 55 443 c 2,36,-1
 55 62 l 2,37,38
 55 33 55 33 62 21 c 128,-1,39
 69 9 69 9 93 9 c 256,40,41
 117 9 117 9 126.5 20 c 128,-1,42
 136 31 136 31 136 61 c 2,43,-1
 136 450 l 1,31,32
171 246 m 1,44,45
 172 220 172 220 179 210 c 128,-1,46
 186 200 186 200 209.5 200 c 128,-1,47
 233 200 233 200 242.5 210.5 c 128,-1,48
 252 221 252 221 252 250 c 2,49,-1
 252 439 l 2,50,51
 252 468 252 468 245 480 c 128,-1,52
 238 492 238 492 214.5 492 c 128,-1,53
 191 492 191 492 181.5 482 c 128,-1,54
 172 472 172 472 171 444 c 1,55,-1
 171 246 l 1,44,45
EndSplineSet
EndChar

StartChar: Ydieresis
Encoding: 376 376 193
Width: 197
Flags: HW
LayerCount: 2
Fore
SplineSet
116 0 m 1,0,-1
 116 301 l 1,1,-1
 180 700 l 1,2,-1
 165 700 l 1,3,-1
 109 341 l 1,4,-1
 56 700 l 1,5,-1
 21 700 l 1,6,-1
 81 300 l 1,7,-1
 81 0 l 1,8,-1
 116 0 l 1,0,-1
43 740 m 1,9,-1
 41 820 l 1,10,-1
 68 820 l 1,11,-1
 66 740 l 1,12,-1
 43 740 l 1,9,-1
152 740 m 1,13,-1
 150 820 l 1,14,-1
 177 820 l 1,15,-1
 175 740 l 1,16,-1
 152 740 l 1,13,-1
EndSplineSet
EndChar

StartChar: circumflex
Encoding: 710 710 194
Width: 192
Flags: HW
LayerCount: 2
Fore
SplineSet
36 540 m 1,0,-1
 96 643 l 1,1,-1
 156 540 l 1,2,-1
 144 540 l 1,3,-1
 96 615 l 1,4,-1
 48 540 l 1,5,-1
 36 540 l 1,0,-1
EndSplineSet
EndChar

StartChar: ring
Encoding: 730 730 195
Width: 192
Flags: HW
LayerCount: 2
Fore
SplineSet
33 604 m 256,0,1
 33 631 33 631 51 649 c 128,-1,2
 69 667 69 667 96 667 c 256,3,4
 123 667 123 667 141 649 c 128,-1,5
 159 631 159 631 159 604 c 256,6,7
 159 577 159 577 141 559 c 128,-1,8
 123 541 123 541 96 541 c 256,9,10
 69 541 69 541 51 559 c 128,-1,11
 33 577 33 577 33 604 c 256,0,1
48 604 m 256,12,13
 48 584 48 584 61.5 570 c 128,-1,14
 75 556 75 556 95 556 c 256,15,16
 115 556 115 556 129 570 c 128,-1,17
 143 584 143 584 143 604 c 256,18,19
 143 624 143 624 129 638 c 128,-1,20
 115 652 115 652 95 652 c 256,21,22
 75 652 75 652 61.5 638 c 128,-1,23
 48 624 48 624 48 604 c 256,12,13
EndSplineSet
EndChar

StartChar: tilde
Encoding: 732 732 196
Width: 190
Flags: HW
LayerCount: 2
Fore
SplineSet
170 587 m 1,0,1
 166.636363636 550 166.636363636 550 129 550 c 0,2,3
 111.5 550 111.5 550 97.25 559.5 c 128,-1,4
 83 569 83 569 76 573.5 c 128,-1,5
 69 578 69 578 58 578 c 256,6,7
 30 578 30 578 30 550 c 1,8,-1
 20 550 l 1,9,10
 20 568.6 20 568.6 31.5 577.8 c 128,-1,11
 43 587 43 587 57.5 587 c 128,-1,12
 72 587 72 587 80 582.5 c 128,-1,13
 88 578 88 578 95 573 c 0,14,15
 114.6 559 114.6 559 128 559 c 256,16,17
 146.6 559 146.6 559 155 573 c 0,18,19
 159 579 159 579 159 587 c 1,20,-1
 170 587 l 1,0,1
EndSplineSet
EndChar

StartChar: endash
Encoding: 8211 8211 197
Width: 271
Flags: HW
LayerCount: 2
Fore
SplineSet
20 316 m 1,0,-1
 250 316 l 1,1,-1
 250 301 l 1,2,-1
 20 301 l 1,3,-1
 20 316 l 1,0,-1
EndSplineSet
EndChar

StartChar: emdash
Encoding: 8212 8212 198
Width: 321
Flags: HW
LayerCount: 2
Fore
SplineSet
20 316 m 1,0,-1
 300 316 l 1,1,-1
 300 301 l 1,2,-1
 20 301 l 1,3,-1
 20 316 l 1,0,-1
EndSplineSet
EndChar

StartChar: quoteleft
Encoding: 8216 8216 199
Width: 107
Flags: HW
LayerCount: 2
Fore
SplineSet
83 605 m 1,0,-1
 87 550 l 1,1,-1
 23 550 l 1,2,-1
 51 700 l 1,3,-1
 66 700 l 1,4,-1
 62 605 l 1,5,-1
 83 605 l 1,0,-1
EndSplineSet
EndChar

StartChar: quoteright
Encoding: 8217 8217 200
Width: 107
Flags: HW
LayerCount: 2
Fore
SplineSet
44 550 m 1,0,-1
 48 645 l 1,1,-1
 27 645 l 1,2,-1
 23 700 l 1,3,-1
 87 700 l 1,4,-1
 59 550 l 1,5,-1
 44 550 l 1,0,-1
EndSplineSet
EndChar

StartChar: quotesinglbase
Encoding: 8218 8218 201
Width: 107
Flags: HW
LayerCount: 2
Fore
SplineSet
44 -95 m 1,0,-1
 48 0 l 1,1,-1
 27 0 l 1,2,-1
 23 55 l 1,3,-1
 87 55 l 1,4,-1
 59 -95 l 1,5,-1
 44 -95 l 1,0,-1
EndSplineSet
EndChar

StartChar: quotedblleft
Encoding: 8220 8220 202
Width: 198
Flags: HW
LayerCount: 2
Fore
SplineSet
179 605 m 1,0,-1
 183 550 l 1,1,-1
 119 550 l 1,2,-1
 147 700 l 1,3,-1
 162 700 l 1,4,-1
 158 605 l 1,5,-1
 179 605 l 1,0,-1
83 605 m 1,6,-1
 87 550 l 1,7,-1
 23 550 l 1,8,-1
 51 700 l 1,9,-1
 66 700 l 1,10,-1
 62 605 l 1,11,-1
 83 605 l 1,6,-1
EndSplineSet
EndChar

StartChar: quotedblright
Encoding: 8221 8221 203
Width: 198
Flags: HW
LayerCount: 2
Fore
SplineSet
44 550 m 1,0,-1
 48 645 l 1,1,-1
 27 645 l 1,2,-1
 23 700 l 1,3,-1
 87 700 l 1,4,-1
 59 550 l 1,5,-1
 44 550 l 1,0,-1
140 550 m 1,6,-1
 144 645 l 1,7,-1
 123 645 l 1,8,-1
 119 700 l 1,9,-1
 183 700 l 1,10,-1
 155 550 l 1,11,-1
 140 550 l 1,6,-1
EndSplineSet
EndChar

StartChar: quotedblbase
Encoding: 8222 8222 204
Width: 198
Flags: HW
LayerCount: 2
Fore
SplineSet
44 -95 m 1,0,-1
 48 0 l 1,1,-1
 27 0 l 1,2,-1
 23 55 l 1,3,-1
 87 55 l 1,4,-1
 59 -95 l 1,5,-1
 44 -95 l 1,0,-1
140 -95 m 1,6,-1
 144 0 l 1,7,-1
 123 0 l 1,8,-1
 119 55 l 1,9,-1
 183 55 l 1,10,-1
 155 -95 l 1,11,-1
 140 -95 l 1,6,-1
EndSplineSet
EndChar

StartChar: bullet
Encoding: 8226 8226 205
Width: 285
Flags: HW
LayerCount: 2
Fore
SplineSet
20 378 m 256,0,1
 20 429 20 429 55.5 464.5 c 128,-1,2
 91 500 91 500 142 500 c 256,3,4
 193 500 193 500 228.5 464.5 c 128,-1,5
 264 429 264 429 264 378 c 256,6,7
 264 327 264 327 228.5 291.5 c 128,-1,8
 193 256 193 256 142 256 c 256,9,10
 91 256 91 256 55.5 291.5 c 128,-1,11
 20 327 20 327 20 378 c 256,0,1
EndSplineSet
EndChar

StartChar: ellipsis
Encoding: 8230 8230 206
Width: 236
Flags: HW
LayerCount: 2
Fore
SplineSet
20 0 m 1,0,-1
 20 64 l 1,1,-1
 55 64 l 1,2,-1
 55 0 l 1,3,-1
 20 0 l 1,0,-1
100 0 m 1,4,-1
 100 64 l 1,5,-1
 135 64 l 1,6,-1
 135 0 l 1,7,-1
 100 0 l 1,4,-1
180 0 m 1,8,-1
 180 64 l 1,9,-1
 215 64 l 1,10,-1
 215 0 l 1,11,-1
 180 0 l 1,8,-1
EndSplineSet
EndChar

StartChar: guilsinglleft
Encoding: 8249 8249 207
Width: 198
Flags: HW
LayerCount: 2
Fore
SplineSet
160 500 m 1,0,-1
 172 500 l 1,1,-1
 40 332 l 1,2,-1
 172 164 l 1,3,-1
 160 164 l 1,4,-1
 20 332 l 1,5,-1
 160 500 l 1,0,-1
EndSplineSet
EndChar

StartChar: guilsinglright
Encoding: 8250 8250 208
Width: 199
Flags: HW
LayerCount: 2
Fore
SplineSet
173 332 m 1,0,-1
 33 164 l 1,1,-1
 20 164 l 1,2,-1
 151 332 l 1,3,-1
 20 500 l 1,4,-1
 33 500 l 1,5,-1
 173 332 l 1,0,-1
EndSplineSet
EndChar

StartChar: Euro
Encoding: 8364 8364 209
Width: 200
Flags: HW
LayerCount: 2
Fore
SplineSet
180 112 m 2,0,1
 180 50 180 50 104.5 50 c 128,-1,2
 29 50 29 50 29 114 c 2,3,-1
 29 300 l 1,4,-1
 4 300 l 1,5,-1
 4 315 l 1,6,-1
 29 315 l 1,7,-1
 29 385 l 1,8,-1
 4 385 l 1,9,-1
 4 400 l 1,10,-1
 29 400 l 1,11,-1
 29 588 l 2,12,13
 29 650 29 650 104.5 650 c 128,-1,14
 180 650 180 650 180 586 c 2,15,-1
 180 444 l 1,16,-1
 145 444 l 1,17,-1
 145 582 l 2,18,19
 145 612 145 612 138 623.5 c 128,-1,20
 131 635 131 635 107 635 c 256,21,22
 83 635 83 635 73.5 624.5 c 128,-1,23
 64 614 64 614 64 585 c 2,24,-1
 64 400 l 1,25,-1
 145 400 l 1,26,-1
 145 385 l 1,27,-1
 64 385 l 1,28,-1
 64 315 l 1,29,-1
 145 315 l 1,30,-1
 145 300 l 1,31,-1
 64 300 l 1,32,-1
 64 117 l 2,33,34
 64 88 64 88 71 76 c 128,-1,35
 78 64 78 64 102 64 c 256,36,37
 126 64 126 64 135.5 75 c 128,-1,38
 145 86 145 86 145 115 c 2,39,-1
 145 255 l 1,40,-1
 180 255 l 1,41,-1
 180 112 l 2,0,1
EndSplineSet
EndChar

StartChar: trademark
Encoding: 8482 8482 210
Width: 269
Flags: HW
LayerCount: 2
Fore
SplineSet
130 500 m 1,0,-1
 130 700 l 1,1,-1
 146 700 l 1,2,-1
 188 567 l 1,3,-1
 231 700 l 1,4,-1
 247 700 l 1,5,-1
 247 500 l 1,6,-1
 222 500 l 1,7,-1
 222 622 l 1,8,-1
 196 542 l 1,9,-1
 197 541 l 1,10,-1
 180 541 l 1,11,-1
 180 542 l 1,12,-1
 155 622 l 1,13,-1
 155 500 l 1,14,-1
 130 500 l 1,0,-1
20 700 m 1,15,-1
 85 700 l 1,16,-1
 85 684 l 1,17,-1
 65 684 l 1,18,-1
 65 500 l 1,19,-1
 40 500 l 1,20,-1
 40 684 l 1,21,-1
 20 684 l 1,22,-1
 20 700 l 1,15,-1
EndSplineSet
EndChar

StartChar: minus
Encoding: 8722 8722 211
Width: 299
Flags: HW
LayerCount: 2
Fore
SplineSet
20 316 m 1,0,-1
 280 316 l 1,1,-1
 280 301 l 1,2,-1
 20 301 l 1,3,-1
 20 316 l 1,0,-1
EndSplineSet
EndChar
